<mxfile host="Electron" modified="2024-04-11T06:35:34.807Z" agent="Mozilla/5.0 (Windows NT 10.0; Win64; x64) AppleWebKit/537.36 (KHTML, like Gecko) draw.io/21.2.8 Chrome/112.0.5615.165 Electron/24.2.0 Safari/537.36" etag="hZmLPCwbRVv01YFgec_f" version="21.2.8" type="device">
  <diagram name="Page-1" id="2XWkQP5S-hDbL94sL5Vg">
    <mxGraphModel dx="2058" dy="1180" grid="1" gridSize="10" guides="1" tooltips="1" connect="1" arrows="1" fold="1" page="1" pageScale="1" pageWidth="3300" pageHeight="4681" background="#999999" math="0" shadow="0">
      <root>
        <mxCell id="0" />
        <mxCell id="1" parent="0" />
        <mxCell id="nLBNJSQwYbZqWhq8hHGm-1" value="Singletons" style="rounded=0;whiteSpace=wrap;html=1;fontSize=30;fillColor=#dae8fc;strokeColor=#6c8ebf;" vertex="1" parent="1">
          <mxGeometry x="920" y="90" width="930" height="170" as="geometry" />
        </mxCell>
        <mxCell id="nLBNJSQwYbZqWhq8hHGm-2" value="" style="shape=image;verticalLabelPosition=bottom;labelBackgroundColor=default;verticalAlign=top;aspect=fixed;imageAspect=0;image=data:image/png,iVBORw0KGgoAAAANSUhEUgAAAx4AAAJ/CAYAAAD25QV1AAAAAXNSR0IArs4c6QAAAARnQU1BAACxjwv8YQUAAAAJcEhZcwAADsMAAA7DAcdvqGQAALSkSURBVHhe7f0PlBRVnuj7/vpa54KUglCFRRUCSav8sYUWSoRppBTF9jr+ocYWDvS57y5d3cw09WbQg4e5yHKWuMaL3OOR6ebMAafpvrrWWbepC9pTpe3x2aIoio1iAa2OQGk3BUiVJVX8swthvfL12ztiR2ZEZkTk36jKLL6ftRIiozIy/mRk5P7F3r+9v3XzLfP+LP3oRHeXmQIAAAAwUP1P5n8AAAAAiAyBBwAAAIDIEXgAAAAAiByBBwAAAIDIEXgAAAAAiByBBwAAAIDIEXgAAAAAiByBBwAAAIDIEXgAAAAAiByBBwAAAIDIEXgAAAAAiByBBwAAAIDIEXgAAAAAiByBBwAAAIDIEXgAAAAAiByBBwAAAIDIEXgAAAAAiByBBwAAAIDIEXgAAAAAiByBBwAAAIDIEXgAAAAAiByBBwAAAIDIEXgAAAAAiByBBwAAAIDIEXgAAAAAiByBBwAAAIDIEXgAAAAAiByBBwAAAIDIEXgAAAAAiByBBwAAAIDIEXgAAAAAiByBBwAAAIDIEXgAAAAAiNy3br5l3p/NdL840d1lpqIySh6avkQeuFik7WiTzD/ykZnfj8pvkebrZkvMPI37eqcs2vOG7DdP+45zjLrl2X0b5Kc9ZjYClMnihcNl/mXfSPMLJ2Rzt5mdE+e9RNr3nZHl75838wEAAAaWgV/jUX6NzFVBhxYbM1nuticxQMWuLpcVC0dI41+PNI8RsuKGQalBXpJcl8tbxSCZoYIOrea6QVJnTxYRHRip47GwPPpjAQAABrQSCDz03fh/kOaxo8xzZeRC+f3shZkFET2fyPav7cm2o/vlJXuyf/W8IfN3/qN8N/5okrfMn5CGKqiv+L5/Ibju+yNk7dwhUnvZRWaOdpHUXjdU1i4cGlioz3W5gug+L7tP2ZPt+87LDnuyZMVuGCorri4zzwAAABJKIPAYKd82NRYeX3fJZ2Yy3Bfy0z12Ab8omlkhZ7Grh8q6HwxVAYKZ4RK7YYQ0xHTg8I207DspK39+XBbpxwtnpEUX7C8bJA0+d+1zXa5wemXzFnudA6OZVZnUzh0u6wKCQwAAcOEq/sCjfKSMU/8d/voL+7ky+eJKkbPH+yEXAv2iYpDV3Gft3EFSc+q8NL/eI23mT7ZBsuA6u7aiZfsJeer93sTfu8/LU1tUEKGnLxsiC6625hq5LnchuUiu8An0grS9f0Y2tH0jNbEhslY3V6P2AwAAGEWbXD55bIM0jqkwz7xJz3dP+gd5QprkuweSazASieR+2o5ukvlHEgFMgllOnOTuUWod98qPKyrid23bunfKygNhid+jZPLIOlk7plJiFye2u637bbXcR2mCpCmyfna93JQuudxJSg98XbokcWcbJ6pttOfo/frF0TdExqhjWhGSXF4+RR4aM0fmuo/J1wflFwe3yEsRJqPrWo5lOuBQ0+1tZ2T9b88nBR2Kek2jeo2cOisrtyQHJYbzGvUei9R7eOZlspznNd7k8t/pAObW8kRTrVPfSMveM/LUp73287hEIrmf9n0nZbkKfkLpIKy2XGbELrKOidaugrGm18/IjtAk9zJ1LIfIsmllUhNvUvaNOqY9qcdU7fO6aeqYZxJwuI+ni86ZWTZ3iPnczqp1BBxfAABwwSiR5PIKmTtmoayfZD9+rMv1FXOkeXqDrHfnfuTr4kq5ShWw16vC+xOuArYWq5gtjdNvkcnmuYdZpnGCLtA7QYem3qOiXhpnN8hD5WZWv7GDEnsbzSxF79cT1zXIj4eYGT50EPj76+rlgeRjcvFEtWxS/k2huGs5VAG5ebsqlPsFHUpsuH1Xvb3N/++WE6qQrf+PJRK468argELJaDlVWB9rzfC6onaErLWafzmFeUVN6+ZGjd+3379QdLOwRrWu+a6gQ6vRzcF+MFLW3RBQu6DzYlTAYx1L93aKep/YUKtmYrH7tFUyCjpCtH3aI8t/flKaqf0AAABG0QYe+49ssPIyFh3ttrqZ/cXRHbLReuyXw+rvbV93yeGzXfJHkzhuS+RzuB/We2REF6Tr5SZdY9C6KbF860H7zxfPlqUj7ckEFXRYy6jJrw96lvvuzk3y6NGDqlBbId8OKdj3hbsnOTVB3fKWe9/2NclbX6uAIqCWSCfy2zVParmjTbIovm/2cdEF9tiYewsaWDm5HFYXs21nZOXPT8jmlNqDhLGmMN1xMqS2oLtXOqyJMhltFbLV/6ZwHb6ck/ztLOemAgwVBOg7+hteMLkhqrC9Yd839p9VoX6Fp4lWIp/D/VjpvD6MOiZrrWZhOhdFHxPX8tvPW8FRzXVDUwII3ZxshZMXo5upqQAusW69rXrZi+SKEfarLZ+ecb3GNDfTNT7xea6HT21Hgtrf354w22cHY+R+AABw4Sr6Go+rhqiS1Nnj8lLPF7JfP8TkfBzdIssObJGfHvdrOpUHFTw8unOD5333H98ij5rYZdzF3rv7k8fOkZv0hNX8KXl7vpCXjmyR+fs2ybLjZlZ/KL/FriUyTdaWufet5yNZtmeTPOsJ4Byj5KExE62pt1rVcke8Tcb0cZlvBWUVMreiQLUeFbqJjl3L0RJSy5HgBBDfyOcnrBkB1N9N71Fe6ZYLZzWP+m2Pq5lTr+x4XxW2TTBRa2pV8lMmi6fZ72PnoniPSZsKFJarwr0OhGZc6a1ViN1QLrV6wmoqdiYpgNPbqpZ94aQ89amZFQFr+144I83q+Ovaj2VBNTMAAGBAK/LAY5Rc6VtT0C1/PGsmC0oVzHXOgnnm9tlZv1qTUXJ7pS7R6+VCcjNUwNSvhlTad5m7385ucEBnDBQVVG0MCpyO77e6Ao5VXuPfDC0Pn5v/i9c3svsP/rUlbX+wayHksrL87/BXmLE+VPCwNShA+PS8VTNRE3OPPVImf2F67EpNyHfpDqnxAQAAKJAiDTx0PsI/yO9n282D2lSQMbl8lP2wCtFd8ocIE5oz53T1Wyzb48/qBUxpO5tltYsTsFw8Wxpn68/D71Fv1/gUSnePrDdNc+ZbTXPSDeLXK8esmoyk5kIpgnpnSrdcngJyQ7IywuR0XKZzJZwBDpMfQ+2aDQ9nn9UxyrS1YQS8TefOyvp0CfQAAGBAKonk8tiYemm8bon9mKCb/kyUJ6xCb4aDCKKkeJvmmOTnkMTkI6fsZk3VJsncV0WZVFsTTiHcCVjSLeeMLN6/hffSVCaLrcEZ3U3n6N0KAIALVZEGHk6SuB7R206GXrTPfjzarUp/3TvNc/9mUX2vUq7s916r0osNScmMD3e2yy4kdjfFE8oDH2HdAOei+7yViO0kJofVfrSZ5HBvMyOv2JW68Ku0JUYH33HITozOaDkV3Byx5mTIqaXIdjk/Ts9auutavwRv98O3W2C/xPgsZVlzY9Vy/PVwqwcuXcuhOwhI7V4YAABcSIq7xsMMHvjHsyax3MqV0CWo4+a5flF/+khes+6CV8gDEwO62tV0EzEzGUp352smffUct3r0Cnrd5LH3+o5hsr/7gF0YrZjsX0OkjrPv6PA9n8h2nXReMaffugNOqf1Y6NNzk8lvCB7ozzVQoAk2LNkst9evQB/UTCuRDB7aVW+mnJ61YuU+vVaFOS/vWStXgdutIb1JVWSSh5Jp8FImddRyAAAAH8UdeKTkc9jJ5lnnKkTopaM77UKVzoOYvlAeGunu3UkP2LdQmnUTsUlTzDw/x023wBPlx2OnJIKU8ilyt6fAn3jdE+r9Eq8bJQ9Ncg+4mMQJIPRyahvd72lvX1Cexhfy06N2r1UPXKfHTFHr9GzPKLl7rFo+6iZv7tqPywb5FKLPy1anF6m5I2TFDa6CtDWGhcl/SEnOPi9PWb1BZbtcQu1cPX6Gq8ZELZcYJPC8NBUkn6FXNu+1e62a/wO9nWp9no9aFfZv0DUMQ+NjlDh2tJw1Se5D7KDN02RNDyqo8y+Gy9rAMUe8wUude70qYKlLagIXU9vRQC0HAADwUbQjl1tUofj3Y7pco3TbI3xL6z9m1T2tMwp62pHLA0f8TvMezoji5mmq4Pd1eEdqd9HNnNwjtOtjYuW5pNLb9oshevBDn/WFbePXB+WtsxPlpoCRywO3zaHHLzm4Jbses3KlA4LaMtnqcxdd32nXhV5fp87Lhi1n4s2s3LJfLjFyefupiwIG27NHNd+cQV6IHhhQj9GRbuRy53WB9Dgdr59JXWdFuQou7FHE/aXZ1tDl1fH5eeL46MBjwcmzBBwAACBFUdd4OL0xeUXVlW4eet6Q+c5ggZ7xMLqlTQUOi/S4IGkK5XrAxEXWYIMuukDfnRRhHd9iD9znXo8ee2TfP1oBkX+3v4rexn1N6v3cfzeDAu7ZIhuDllOswRzNst7tSyzfJ0GH1n1engpourPDGazOJI3bVHCgByEMCDo0e7mz0mKS1G1moL6Q5XRBf71TE+Napz2gYGZBRzba3j8hi3SzszaT8+FQ2+1sq+86u+1RxK3BAv2OjR6gMWxb9fJqvd7jo/bTGpDwrOf4tL1/hqADAAD4Ku4aDyBH8doBnZAdOrp2/8u0xgMAAKCUlUR3ukC22t7vsRPHY0MzGAukf429LKT5FAAAwABB4IEByk4c102S7LFAnIH2RmTZM1QB6cTzq709SOnk7gZrRvAo6AAAAAMBTa0wsOnCfm25NZ6ELfOk70ILSw7XuRbLi7xJGAAAQD4IPIC+orufrR0q9SoIivcQpRPD95KQDQAABj4CDwAAAACRI8cDAAAAQOQIPAAAAABEjsADAAAAQOQIPAAAAABEjsADAAAAQOQIPAAAAABEjsADAAAAQOQIPAAAAABE7gIYQHCUPDR9iTxwsUjb0SaZf+QjM78fld8izdfNlph5Gvf1Tlm05w3Zb572HecYdcuz+zbIT3vMbBSHinJZ94MhidHOHafOysotPdJmngIAABSzgV/jUX6NzFVBhxYbM1nuticxQMWuLpcVC0dI41+PNI8RsuKGQalBXooyWbxQvX5heQavTch9fQAAABeWEgg89N34f5DmsaPMc2XkQvn97IWZBRE9n8j2r+3JtqP75SV7sn/1vCHzd/6jfDf+aJK3zJ+QRsUgWfF9/+Cg7vsjZO3cIVJ72UVmjnaR1F43VNYuHCp1Zk6h9Nn6untk+c+Py6L444y0mD+lE7thqKy4usw8AwAA6D8lEHiMlG+bGguPr7vkMzMZ7gv56R67gF8UzayQs9jVQ2XdD4aqgr6Z4RK7YYQ0xHQA8I207DspK51C+guqkH5Kzb5skDRkWZsRpq/Xl7syqZ07XNYFBGsAAAB9pfgDj/KRMk79d/jrL+znyuSLK0XOHu+HXAj0i4pBVjOotXMHSc2p89L8enJewyBZcJ1d69Cy/YQ89X5v4u/d5+WpLaaG4LIhsuBqa66Pi+QKn4DGXyHW1zfa3j8jG9q+kZrYEFmrm4FR+wEAAPpJ0SaXTx7bII1jKswzb9Lz3ZP+QZ6QJvnugeQajEQiuZ+2o5tk/pFEAJNglhMnuXuUWse98uOKivhd4rbunbLyQFji9yiZPLJO1o6plNjFie1u635bLfdRmiBpiqyfXS83pUsud5LSA1+XLknc2caJahvtOXq/fnH0DZEx6phWhCSXl0+Rh8bMkbnuY/L1QfnFwS3yUoTJ6LqWY5kOONR0e9sZWf/b86nJ1Oo1jeo1ocnWzmvUeyxS7+HMWzdNvXcmAUfScrmsr+77I6Uhdl42/PysjP7+UJnv1Jjo4OXTMlmcMs9azMcgWfHXQ6U2i+RynYuybK6doN7edlYdR5LSAQBA3yqR5PIKmTtmoayfZD9+rMv1FXOkeXqDrHfnfuTr4kq5ShWw16vC+xOuArYWq5gtjdNvkcnmuYdZpnGCLtA7QYem3qOiXhpnN8hD5WZWv7GDEnsbzSxF79cT1zXIj4eYGT50EPj76+rlgeRjcvFEtWxS/k2huGs5VEG8eftJWe4XdCix4fZd/PY2/79bTnwj7fr/2CBP7kVGQUeSfNanmz7VLxxuAgztIqmdVq6CjqR5cwubk9L2qc4TOSnN1H4AAIB+UrSBx/4jG6y8jEVHu61uZn9xdIdstB775bD6e9vXXXL4bJf80SSO2xL5HO6H9R4Z0QXperlJ1xi0bkos33rQ/vPFs2XpSHsyQQUd1jJq8uuDnuW+u3OTPHr0oCqcVsi3Qwr2feHuSU5NULe85d63fU3y1tcqoAioJdKJ/HbNk1ruaJMsiu+bfVx0wTs25t6CBlZOLsd8FRToWo6VPz8hmz/tNX9NNdYkd3ecDH6NdPdKhzVRJqOd2PDTM6kJ27oWIT7P9XBqO5Sc12e5SAU7KpB6Qb+vCgSsfJAhKuhImieDZGbBm2n1yubfnpCV28+roEgHN+R+AACAvlP0NR5XDVGltrPH5aWeL2S/fojJ+Ti6RZYd2CI/Pe7XdCoPKnh4dOcGz/vuP75FHjWxy7iLvXf3J4+dIzfpCav5U/L2fCEvHdki8/dtkmXHzaz+UH6LXUtkmqwtc+9bz0eybM8medYTwDlGyUNjJlpTb7Wq5Y54m4zp4zLfCsoqZG5FgWo9KnSTILuWoyWkliNBFeytWotv5PMT1owA6u9WgT5f+a+vfd8Z2WydT73yu7ZvUuYdK8h2BmtTAdfyF85YAY6u/Vh2AzUfAAAgekUeeIySK31rCrrlj2fNZEGpgrnOWTDP3D4761drMkpur7RrA549GJKboQKmfjWk0r6r3f12doMDOmOgqKBqY1DgdHy/1RVwrPIa/2Zoefjc/D/Q+NWUuOcdOWUHIwAAAANJkQYeOh/hH+T3s+3mQW0qyJhcPsp+WIXoLvlDhAnNmXO6+i2W7fFn9QKmtJ3NstrFCVguni2Ns/Xn4feot2t8CqW7R9abpkDzraZA6Qbjc2oILpIrRlgzAmTTa1WYvl5f4Xmbsp2V9e+HNBkDAAAokJJILo+NqZfG65bYjwm66c9EecIq9GY4iCBKircp0FArEXpxSCK0U0NQbZK+fVWUSbU1oQKHTFN+AvT1+gpH95ylBz10N2WjdysAANA3ijTwcJLE9YjedjL0on3249FuVYrr3mme+zeL6nuVcmW/91qVXmxISmZ8uLNddqG0uymeUB74COsGOBfd52XzluPxROiw2o8200ypJhZcOxK70u6SV9rOyw5rToDLLpKxZjJIQdfXR6xajr+2e87StRw6Yf+pkIR9AACAQivuGg8zeOAfz5rEcitXQudUHDfP9Yv600fymnU3u0IemBjQ1a6mm4iZyVC6O18z6avnuNWjV9DrJo+913cMk/3dB+wAomKyfw2ROs6+o8P3fCLbddJ5xZx+6w44pfZj4VBZ7OklSvn0fJoB+1wD/h1K9E7lL7kXKh8FXV8eMgiS9P7UUcsBAACKQHEHHin5HHayeda5ChF66ehOuxCn8yCmL5SHRrp7d9ID9i2UZt1EbNIUM8/PcdMt8ET58dgpiSClfIrc7SnwJ173hHq/xOtGyUOT3AMuJnECCL2c2kb3e9rbF5Sn8YX89Kjda9UD1+kxU9Q6PdszSu4eq5aPusmbu/bjskEy/9bkLmDPy9Z9dvOn2rkjZMUNZYm/VwySFSpYqdXTp87K1sBB+c7Le9YHeZH1/nXuQ1mhCu+epl6FWF8+nB6zBkn9Da5aF7Vuz3YrsRuGSgO1HAAAoAgU7cjlFlUo/v2YLtco3fYI39L6j1l1T+uMgp525PLAEb/TvIczorh5mir4fR3ekdpddDMn9wjt+phYeS6p9Lb9Yoge/NBnfWHb+PVBeevsRLkpYOTywG1z6PFLDm7JrsesXOmCfW2ZbPW5a6/v7OtCtq9T52XDljPhzZ4qymXdD+zRvVPpEce9y2e7PnvkcpGW7cfjo5LHbhgha6+7KO28ZM5rUrhHWFd04LHg5FkCDgAA0O+KusbD6Y3JK6qudPPQ84bMdwYL9IyH0S1tKnBYpMcFSVMo1wMmLrIGG3TRBfrupAjr+BZ74D73evTYI/v+0QqI/Lv9VfQ27mtS7+f+uxkUcM8W2Ri0nGIN5miW9W5fYvk+CTq07vPyVEBToR3O4HhWbYDjG3sQwnRBh9bdYzXraknqzrZdBRHN28+mLJ/3+vLQ9r5a9z6d/+Kit/OQd9vb3j9D0AEAAIpCcdd4ADmK1wgk1QBEpa/XBwAAUGpKojtdIFtt7/fYCeCxoRmMBZK/vl4fAABAqaHGAwOX7kLW6s3J7RtpfuGEbA5uWZa7vl4fAABACaHGAwOX0xVvmzfvITJ9vT4AAIASQo0HAAAAgMhR4wEAAAAgcgQeAAAAACJH4AEAAAAgcgQeAAAAACJH4AEAAAAgcgQeAAAAACJH4AEAAAAgcgQeAAAAACJH4AEAAAAgchfAyOWj5KHpS+SBi0XajjbJ/CMfmfn9qPwWab5utsTM07ivd8qiPW/IfvO07zjHqFue3bdBftpjZqPAymTxwuEy/7JvpPmFE7K528wGAAC4AAz8Go/ya2SuCjq02JjJcrc9iQEqdnW5rFg4Qhr/eqR5jJAVNwxKDfIsOhBwXud+jJB1C4fK4qvLzOsAAACQrxIIPPTd+H+Q5rGjzHNl5EL5/eyFmQURPZ/I9q/tybaj++Ule7J/9bwh83f+o3w3/miSt8yfkEbFIFnx/XLfQKLu+yNk7dwhUnvZRWaOdpHUXjdU1qpAos7MSe8iqblskMyfO1waF/qva6CL3TBUVhB4AQCAAiqBwGOkfNvUWHh83SWfmclwX8hP99gF/KJoZoWcxa4eKut+MFQFFmaGS+yGEdIQ0wHHN9Ky76Ss/PlxWaQfL5yRllNqtgokGgKDiPOywXm9tcxJ2bDvvLTrP102RAUtF2LwUSa1KvBaFxDkAQAAZKv4A4/ykTJO/Xf46y/s58rkiytFzh7vh1wI9IuKQVaTqLVzB0nNqfPS/HqPtJk/2QbJguvsWo6W7Sfkqfd7E3/vPi9PbVHBh55WQcSCq6254bp7Zcf7Z2T5C2fjwUdGyw0gbWr/N7R9IzUxFXjp5mrUfgAAgDwVbXL55LEN0jimwjzzJj3fPekf5Alpku8eSK7BSCSS+2k7uknmH0kEMAlmOXGSu0epddwrP66oiN/tbeveKSsPhCV+j5LJI+tk7ZhKiV2c2O627rfVch+lCZKmyPrZ9XJTuuRyJyk98HXpksSdbZyottGeo/frF0ffEBmjjmlFSHJ5+RR5aMwcmes+Jl8flF8c3CIvRZiMrms5lumAQ023t52R9b89nxR0KOo1jeo1cuqsrNySHJQYzmvUeyxS72Fzkr11jccZ2WHmuumalLU6qAl6bx0U1ZbLjNhF1jZq7So4anpdvV9K8rg3ufx3OmC6tTzRNOzUN9Ky94w89Wmv/dxRUS7rfjBEBV1B+5c+ad06jtPUcfSpLXK07zspy1XQ5qZzZpbNVetW0+1tZ9XxDzi+AAAAaZRIcnmFzB2zUNZPsh8/1uX6ijnSPL1B1rtzP/J1caVcpQrY61Xh/QlXAVuLVcyWxum3yGTz3MMs0zhBF+idoENT71FRL42zG+ShcjOr39hBib2NZpai9+uJ6xrkx0PMDB86CPz9dfXyQPIxuXiiWjYp/6ZQ3LUcogrU21Wh2C/oUGLD7bvx7W3+f7ec+MauvYgNyiLXQ8Upf3CaXF0kY605CTooafzBUJnvCjo0nR/S8IORsu6G4FqCK2pVQGM1G3Plo6hp3byp8fsqQCogO/clPOgI0vZpjyz/+UlppvYDAADkqWgDj/1HNlh5GYuOdlvdzP7i6A7ZaD32y2H197avu+Tw2S75o0kctyXyOdwP6z0yogvS9XKTrjFo3ZRYvvWg/eeLZ8vSkfZkggo6rGXU5NcHPct9d+cmefToQVUYrpBvhxTs+8Ldk5yaoG55y71v+5rkra9VQBFQS6QT+e2aJ7Xc0SZZFN83+7jogn5szL0FDaycXI75qqCsazlW/vyEbE6uBXAZawrvHSeDX6ObT3VYE2Uy2h0bptN9XnbrHJHk5dQ2WjUhVk6J3sZEjsjK7XawUnPdUFnsuy4VYKhgRdcgbHjBWU7nlXxj/zmmE7vtybyp7XRyX3TwlthG04zMld+SXNuR0Cubf3vC7JcdHJH7AQAAslX0NR5XDVElt7PH5aWeL2S/fojJ+Ti6RZYd2CI/Pe7XdCoPKnh4dOcGz/vuP75FHjWxy7iLvXf3J4+dIzfpCav5U/L2fCEvHdki8/dtkmXHzaz+UH6LXUtkmqwtc+9bz0eybM8medYTwDlGyUNjJlpTb7Wq5Y54m4zp4zLfCsoqZG5FgWo9KnTTHruWoyWkliNBBQTWnfxv5PMT1owA6u9WAJGri+SKEWZSN22aZtdK2Dkl3m1s+/SMLFeFdL3MjCv9awesZk2/7XE1x9J5Japwb4KP2vGFqfVwaoP0drqDN6smw9rGQTIzwyDH2q8XzkizOo669mNZSI0OAABAsiIPPEbJlb41Bd3yx7NmsqBUwVznLJhnbp+d9as1GSW3V+oSvV4uJDdDBUz9akilfXe6++3sBgd0xkBRQdXGoMDp+H6rK+BY5TX+zdDy8Ln5v+hUDJIZOtg5dVa2fmrPSvHpeSuhvSbmN4bIN7L7D/61C4mmXWV9VqNQbYITAACAKBVp4KHzEf5Bfj/bbh7UpoKMyeWj7IdViO6SP0SY0Jw5p6vfYtkef1YvYErb2SyrXZyA5eLZ0jhbfx5+j3q7xqdQuntkvWnSo8fRWPf9oMH/HL1yzKrJcNdI+FF/zyHHIcFVozLC5HTornZTBh90HkOl1npxjnxySnLRZpqf1c4dKnXuZl96PBSdbK+ENlFz8TaBOyvrA5tmAQAApCqJ5PLYmHppvG6J/Zigm/5MlCesQm+GgwiipHib9Ay1EprDRhE/cspunhR6576iTKqtCRWoZJryozm1G9kuVyzUsdxgtQOzE97jgZFObNez284E19rElcliJ0E93gSO3q0AAEB2ijTwcJLE9YjedjL0on3249FuVfrr3mme+zeL6nuVcmW/91qVXmxISmZ8uLNdduGyuymeUB74COsGOBfd52XzFidRO7z2w7mr79+syRa7Uhealbbzvt3mBvFdzukhS3fNaxKzAx9B3fsGcWpTVDB1xJpRCHZgZieTO0xSfJocGquW46+HWz136VoOneif0t0vAABABoq7xsMMHvjHsyax3MqV0O1Fjpvn+kX96SN5zboLXiEPTAzoalfTTcTMZCjdna+Z9NVz3OrRK+h1k8fe6zuGyf7uA3bhsmKyfw2ROs6+o8P3fCLbddJ5xZx+6w44pfZjoU9PUSafInigP9cAg4ecMTwyoBPd/ZZzerqKlQf0WpVOULOwRNK6p2tgp0eugOZXsRvs5k++rF6tRJpfOC7LPUFRalK8V1miG15qOQAAQAEUd+CRks9hJ5tnnasQoZeO7rQLYzoPYvpCeWiku3cnPWDfQmnWTcQmTTHz/Bw33QJPlB+PnZIIUsqnyN2eAn/idU+o90u8bpQ8NMk94GISJ4DQy6ltdL+nvX1BeRpfyE+P2r1WPXCdHjNFrdOzPaPk7rFq+aibvLlrPy4bJPNvTe7K9bxsdXqDmjtCVtzgSszWuQwqWLGaFYUlg7tVqEK3Ksxbg/bp5216UD/rL0avbN5r91o1/wd6fYMk5jn0Zvm/Hho4ZkjtXD3Oh6uGxhq3RA8CqJ+clyZP/oTTI9cgaXDX+qjttJpAmeDIj92rlQp0AnrXCqKDGd0NL7UcAACgUIp25HKLKhT/fkyXa5Rue4Rvaf3HrLqndUZBTztyeeCI32newxlR3DxNFfy+Du9I7S66mZN7hHZ9TKw8l1R6234xRA9+6LO+sG38+qC8dXai3BQwcnngtjn0+CUHt2TXY1audCBRWyZbfe6+6zv09pgVPk6dlw1bkkcnd0b8Nk99hI3WHR/VPIhaZ/PrZ1wjiTvr+0baT10UMKBfwOjjV5uR133ornmbLhuu9t1nWWfUc/PUjx5pfffes57udnXgseDkWQIOAABQMEVd4+H0xuQVVVe6eeh5Q+Y7gwV6xsPoljYVOCzS44KkKZTrARMXWYMNuugCfXdShHV8iz1wn3s9euyRff9oBUT+3f4qehv3Nan3c//dDAq4Z4tsDFpOsQZzNMt6ty+xfJ8EHVr3eXkqIBDY4QxyZ9UOOFQhXw9CmBJ0hNGBgQpUXghvXtT2/glZpJuBtZmcD8cpkz+h1pkSQGjqvdc7NTiubbUHFPQJOrRP1fsl75u1jfbAf06CfQp1vJrU9oXRI63rHBr3oIVt7+taHoIOAABQOMVd4wHkKF4boRPAf5tFXseAYmpY5KwKgoICKJ3LoWtL7JqT4NHLAQAA8lMS3ekC2Wp7v8dOOI8NzWAskAHKdAXsSVRPEVJbAgAAUEAXxcZ/e7WZ7hdff11s7aYwMHwj754pk++NL7OaEs2rLZf7rMdg+XdtX8vHniZxA9SQ/1luv+bfSc2o/1nGn/n/SvuJ/5+4W2rFVGByx5xh8reTdJ7KefnvL35t95oGAAAQAZpaYWDTvUWpgEOPQ2ELSN4eoOq+P9JqRhUqJQkeAACg8Ag8gAEudnW5LJg2SKovM4MTGk5vVr/7tDekKRYAAEBhEHgAAAAAiBzJ5QAAAAAiR+ABAAAAIHIEHgAAAAAiR+ABAAAAIHIEHgAAAAAiR+ABAAAAIHIEHgAAAAAiR+ABAAAAIHIEHgAAAAAiR+ABAAAAIHIEHgAAAAAiR+ABAAAAIHIEHgAAAAAiR+ABAAAAIHIEHgAAAAAiR+ABAAAAIHIEHgAAAAAiR+ABAAAAIHIEHgAAAAAiR+ABAAAAIHIEHgAAAAAiR+ABAAAAIHIEHgAAAAAiR+ABAAAAIHIEHgAAAAAiR+ABAAAAIHIEHgAAAAAiR+ABAAAAIHIEHgAAAAAiR+ABAAAAIHIEHgAAAAAiR+ABAAAAIHIEHgAAAAAiR+ABAAAAIHIEHgAAAAAiR+ABAAAAIHIEHgAAAAAiR+ABAAAAIHIEHihuY2ZK81/Vy+/Vo3nWNTLZzAYAAEBp+dbNt8z7s5nuFye6u8xUAc18WKrurzVPEs4990M5/Z55ghJwhaz/q+vlJvNMazu4XeZ/cto86w/D5KF5c+WBS83TJP2/fSheMblk9Ropr2qR00uflnNmbloFup4NVuscNrVaej/cKN0b3zZzLyTOd/crefaN1+WneX1NE9eBtoMfqO/852Y+ACDMgKzxKKuuMVNuLXL+Ag067p5l1xjYj1vloWHmDxb9A+r++0y52/ylECaPuUbWz7vV9f710jxvpjw0Zhi1F5kYM9Nz7DJ6zLrCLIziMkYuqlL/dR6TXntGRgpyPRuzSMpV0KGVVY2WMmuqeKReJ26V9ddckfYaketyeRs2Wuaamw+xiaMLes0sDHNdn0ctMYDiMiADj96mh6Vz6Q/NY5X0dKqZWf7YD1yXytzRrsjD9QNaWPYPX+P1E+SmS70riF1aLQ9cP1cadQDiCYKSfS4bP+iQNvNMvmqVldQmoFSNMQX+LK9FBbmeHd0l5/Vy0iHn9u0qqmvh3bNu9blOXCo3TbzeukYEFepzXa4gTh+T7V/Zk20Hj8lL9iQAII0LIMcjt7uMA1msZnTiLtjQSyVmJgvp7lnBzZHiVADy7aGhkYfsP/qezP/XJvmufmz7RPab+f3ntPx0m9ke6/GBvGX+AoQpq51hBR7n9uTTzCnX61mb/Gm1DlweltNN8VC+302+5lZ5olpfKL6Stw5ul0XO9+oN9b3SBXt1jXjC5659rssVTuI6QDMrAMjcwA88Zt4gg9V/+f3YDzCXXipXmcm7R9vNLwrrCrnN/bZftSYKBv+qCgm6FkMVDnQ+xLKj1GCEUoGXfdwSj0UHza1WS4c8mvT37+4q8YLQuFmy4skGaXyuQdYtqDQzS19Ztf5SdMg37fbznAyo69kVsnSifXfirQ9el2WfnE7cWDj9uSzbZoL6SyfI0jHWXCPX5S4kl8q30934AYB+UBLJ5WVj5sjgu+pl0NTqeNvk3g9flNMbG9Pe9Surf1oqbhfpWfOw/OmomRkqJoOX/p3VHtq9rp7fNMq5Gp3kWeP7XmUzF0n5HTNkcJVT4u5Qy+22lwtZb67LZUPneDxhvf1XqsB/qcTUD9JbHzSpQn8i2dKZbxdk35OXkhK7/ZOmEwmWWvw1w66R5lsmxGtS7HWZJ2GSlksVkBSq8yCuN8ev4wOr4K3bfi+dqJth2LPlqw55dvd7/gmlw4bJ3ZOvlx9Xp6n9Me/tlclxSjV5mCo8zZjoaSbSprZx+8ED8tM0wZi+29toCl6JzyvcZHWM1k6sNp+xpj7zjoOycv/nsr/QxzNPdQ82SMM080ROSvNjm2XzYfO0YEyid+dG6dz4tvke3qO+h/ZfeztbpOeXT6d+B8cskopV90jZh/ZyqYISyL3zezNdX5KMr2cBCenS+aJ0r05/3dTyue5mxDnP9I2JoNpM5zXu7142y3lek7je6evIqzqAcX8Hv9K1Jx/43AzxXueSZfSdV9/3hyZPlLmua4z+vv9CfYdeCl10mPruTVLf3UvUdzf+5bO/u+p4ePZd7XOz5zsewvdaBgDRy6rGo7y8XKZOmRL40H8vLB0EqB/aVUs9gYBWNvUeqdj4tFyS5o6WfZexXXozKfjqQsXGNVbPL8nrGrbqaRk2Xf+Q+7yX+pGvuF8XIvS6HOo9nOVmBhRnc10uZ3+S7e323fJxlw5Tv2kmv0MXeP9kzXb5XF7rMJOKp3mWw5Mf8pVsP+b/C3rT9bdayeR94pLR8lC87beZp+m8kluSE+sVK9iZazXbKPTR9qeCHL19t6hgxdM2XR1jk/vSXNDkcBUYWbk2yQUStb/V16vtuFXWh3022R7PUjFmlgxShf5eGS2X6GuM9T00f1PKqmqt72DK9UV9D/S1obcj6IIS1BTKzP/wmJSt/lXm60uS6fXMPyFdbXdG+R35X3czMfnSS6z/29qP+QcP2hlVyNb/VycSuJ1a2oyWc9Xuun17ss93UE3fpL5/he6cQd8o+L1a1wNJ1xj9fX/ilnppvibgS6SClfUq4LG/u54vn/3dTekoRL+nmQCAIpVV4NHT02P9P2XKd1IemvP3wrDvEOogQN/VPffcKul2JViefrVF/YBWS/mPFnl+GL3myKCp6r8P38+g68o56of/Hvu9Ol+U02ucdf1Qup+z1zVYv1dKgUJt5x06ILG30Z0EGl/u/r/z+aHOdbl86B96O8LQgYT+Abd+CP90Rv5gzfV6aX9rIrFb/UjenvQjN9lZXlPBy6tO3HH6E/mFK2jRP5S6QK17nNGF6slRFlZ1gdhq++1Hbcdkd6FimDw0I6yGpfB07ovdNj2YLlSsL8jnru/U6sKVeepLF7auDw4gsjqehbGjaY+0mPOn/eXXIqjtUEwAoQvS5ep77bm+rNko56xEbHV9uWuOnohzCvS9HQF5EkEJ5M58vb6qpOtZyPq8Mr+eeRPS1UNdU6z5QdsdV4jrbmauGmqfV4e/Crnlf/qM2B//JXKldY4OkyvteCXNck7yt7Ocmzrn1Tnd1tEqj77hNFHcLo86TRhTvn/JeV32w9vkMcCYmaZ20q5NSTQ5VcubjjNiE/2+fyrosAIjNalrFz/Y7lq33la97KXy7aH2qy2eZpmmuZmnmavrQW0HgH6SdY7Hhx99JB999G/mmU0/1/MLqaz+79QPtJrQTQN0QuR7ba4f8jY51/S0dKsf7NO/DKn2Nz/2wXcnEwYvXWq1nRbdhGK1t5lT73tqXeaHOzCps3O39KhtTFDbq5fTP9ZhzSJyXS5Xx46Z9s+Xym3mh/+tY1/Ff8w9PAFEUm9YqgBwe02iQPrWQW+Th5d2mSRPD+cuuz0Y4N3JP7ZqffFEcuehfpxz8ZbzQ62TTc08yyVDEzU3ST16xZfRP+yu1eqmFNb8fH+sh10jP3ZVbun1JRdEHDdNLEBi7JhJ3uYhHYmCj1PosakAYkb4+jI6noVyeJc89cgGWXT/Blm+NYJxfpR4jYDf9eXo2+q68qL9PKnr2bR5GgE1Ik5iebbr88jiepbM3t/0+SUFue5mxAkgvpI/nrFmBFB/9y3fp1sunNU8atcnrmZOp+WlT16PBxM3jS5EQK0C/4n2F97ORfE2jbI6zrC+88nXVl1LMtFuvmk1FXsvqfml3la17Bs6R87MAoASkVNyuTv4iCLo0Hf2ym/XF+wWOR3WHln9YIe2iY4XAtLc5bP6uFf/6x/bNANrpSZ1qh9mfbey6h4ZtnSOlKXcqVY/1r7bmOty+XKaUFXLTdZvYoe8FrKel44lCsOxiZMSXVR6Cu1+76GTPJ07c6li1RPkiYia6uhCRbyd9mlvk7Ggphd2Qcb5cT8tn51JlHZ8m5nlwFNDpOhmHY3x8Qfs5lBxgduZOW/HAR3yqKtNuC70eGqlfGq0HLkdz+LmBBA9QQXoo343GGJSZhXKdwd+NwdbzTFTrzm5rS9JptezFDEZfJ1af8h22wp03S16wc1C96vrnXV0CxFQx5uytsrGoOOlPncdyHuvMc5Nna/k2d0hPfmd9t8HAChmOfdqpYONba+/EUHQoTjNEjJqIhXMLgSkH2jLuRsZ1v457I7huY2r5PSHHVI2dalUrPqVVG18WobVq2DC/D1Irsvlzq6adxeqpUP3QR/SA8rRA/Js/OXVcpsJkDyFaOs9/Jg7c9Yd9lbfGpB0d9pzkdwEw7O/bvFmHJraFl0TM+9W9VBBQDx5W/nTmeAf/yw4TUsy49dEJBuJJimWr76Sz8ykwx1Uhsn4eJYME0BkmvvlMHkhwV3ZOu+bfJ3IcX1JMr2epcqwC94CXXczc1r+YLX6TGoulCLo2pRuuTwVIqB2uiq/dILnBoP3keiYIsHZ5z/JH4gtAAwwOQceWmfnl2aqwAKaK2THuTuZ/k6iczfyfEvQnURzxzCw4NCmgoiHpXNNog304NtVMGEFEmEZBLkul5/4XT3lrWPpmg+dlldNQrpmN0FwN7P6Sp7dn74J0v6jn8gy3U46ualOyJ326H0uG5PaaeskTm+CZmb7V3gUOqLjJHqHFLCdQrj7+pH2uuQU8JNrFnJcn0fm17MUmXbBW5DrbuacANbq6CLIsKEyzppwvg9OwJJuOadGlu8RABSTvAKP4pbhXb6MZPheR00baJ2IaSWM6kAigwTxXJfLlU687NBd6HbIaxm0k97/ycFEsGD1LuO6C+lOKvcYJnf79Zak+9nPMW8jCta+Bd3A10mdft335shbU+Az/obnkb6L3HCJAprF5w5uNGO4lABTEA8rYA++y+5owl1YT5dYXmbeN+U6kUFuht/6vHK/nmWa39HX9n+V6OgiqNYzXrPqqlV1auoyWs6npi+UU0uR7XJ+1PfdOlN017W+33HXw7db4HxrPZUSbQoJYOAqzsCj3f5xLbv9B/YPuZ8xaZokZVC48KqWi0y+qZfuWtIknqf86M+x8zPMMw+dMPqKTkj3e99clyuU0/LTXa/L/G3p+pB3uGsGquW2WaMT41YEdGlp9d6ke7KaN1PuHub+9UwkXNr6846kq9cnncT5xvbEwyoMZD9OhZUHE9/dYZ4evNw1Tfo4PuFzbPR4GeuvKUxPUd6mVGp9ukcx80yP6+FOdA8OIPtBxAMIpgsgdDfXw3TOV1KzprDEcmt8DTNuRvI1J55YHqAsYH0eWV/PEuztzqCZVyGuu9kw+Q3BA/25Bgp018xms1xSpxe2oGZaiWtTaFe9mXJ61qqemGUum5NHlaYpqrp2pG+mWoDgBQAKqDgDj6O75LzVvWStDFv9sAwe42p2pKZ1H/NVq5Zm1Byp7LpZannzRC/rMzZGb4ddQBt8v16XNWnRg4oNs7qWtJ+nFCjq62Wwzs9YbY+54flBVj/Qw6zuclPlulx/cheab7IKMpp/kqbut94esFC5VPdVr7vSddo0ewfiajt4IM87+3lwJ8jrdthqO+OP+PbqLoB9euCKS0q21gX8WxL7una0a8HkboZ9jo01XsbEbAsqATz5OYrV97+9LmtsADNbf46hSax9rK5+utSa86fmzttksd3WpmDsgrj+vv9KKjw5VebaYgKIc8+5BwB02F3expfR31c9Lsft1XLuQ/vD9U8sV//fvsZ3fU7A4r8+r0yuZ15OfkmtlLuul2Uz53iudZYCXnczk7ihocf6WX+NqyBtjWFh8h9SkrMTtabZLZdw0/V6/IxEIG4N8BcfJLBDfpHBIKDpnZafHtTbqfPH9HYmdyU+TO6+ZqY0/9XMRKcdRrwrc31dmjczaRwkfYNCLaevU4FjjniDF8/1Sw+Y2lfjKgFAkuIdudwZIdg8TZZ+BF1VINhoaircdM9VKT22BLxW62yR0/tqZFjAaMH2SMJOKdvHhxutnrKStzPX5XKRGLlcd+voN4q4+rGOJzkGj4Ttfh9L4Oi3w+ShWfaAWWHa1PIpo+8mc0YgttgjDoeOXK4k72PwSN/u/U4veAT2kPexusN0F+r1AILXpx3LI2w05OxGLjcFscDVfaX2K2m05pyPZ2FEO3K5GUFcbbfOqbIL5al6X10l3U1JNSJBo4Gr99LXhnO1+judfJ1w1teigopaz6CBCXq8jP9qdV0bLJvrmVfQtebccz9U6zRPHHlfd7OnB9QM/D58pc4vXTNrnrplv5yu4bRHLm/7KjmXyxFwjfHhfA/Cvqua9/viQzfp3O1Tu2oNbho2zlCabQ1dvvDfWwDIRPHmeBxtFGssiw91AcFFBQI9elCrtD9+b8vpNS+agblsvXrZV/x6rtKv3Sg95o6lpdMMnrX6afN6/6YK1kBdZln3+/Y6ywcED7ku15+Se0EKTky3m3LpRPJnrVwSM9ti55Y8+obuRz9N0BG5z2XZG65BEtMI7ttfv4+9r25tX6lCfXtyEs1peUkdm0XOsTFzLfr1epCxN5pCCzLZ0d0am3E7kj8HPa6HKrh4go4iEO0Agk6uRJP6bqdeX6yC9ZofpgYd2ntPW69PUN/VVzda413oQMO/SZO9vt59L8jplPWpaWt99ngZ4bK5nnn1Nqmgxme7e/yadeV93c2e9X0IOj8Dgg7NXk73lude0HyHQpbTBf2VPt8Je0DBwuV0OfZ/4roWmnkW5/se1KTTGtfIdEnud2z+Nc226uV1Zx6e46OvS3pAwn6saQZwQSveGg8UH8+d8AFwxyx+RzDozqGuuZkrD8R3OaiGByXD3NEXvxoN9Lt47UAJfNcyrfEAACQM4F6tUFC6kO5qftOvuRkFcvdkpxmCHjnY1d7bottRj5a5rhYqbSU/fgXiY/ZkPQgf+kK8B73q66XZ1RlCMcpuXB4AgEaNB0I4baLN07iB0T44JWclFG2iB4LBS38lw6baORnJ+VooEjpx+nrvKP+6eVEhu7bOik48H/qVvHr0dLxpqE7u1h009Ot2AUAJosYDwdy9PsXpH9qBUQCP9xyTjpWTQtBR+pwenvIbQRwRO/qelZuQnDPVXyaPnigPXO/u6c7uFU5r6zhI0AEAWaDGA8GSejfSyZe/2P9JhmN/lAjdteToSfLjmuqUEcvbOjpk+7Fj8tMiS75GrkzPUBn0BAXE6WvE5Ovlx9VmcEHNJIYXW8cMAFDsCDwAAAAARI6mVgAAAAAiR+ABAAAAIHIEHgAAAAAiR+ABAAAAIHIEHgAAAAAiR+ABAAAAIHIEHgAAAAAiR+ABAAAAIHIlNIBgpdQtmCH108dLTXww7UOy4f5XZId5BgAAAKA4lUyNR92DC6XhTnfQAQAAAKBUlEiNR6UsfnKhzFdBR8umLfLUzkxrSQAAAAAUg9LK8ejYI1sJOgAAAICSQ3I5AAAAgMiVSODRJce+MJMAAAAASk5p1XhUD5exZhIAAABA6aCpFQAAAIDIlUDgUSmxBXdI/TQ12XFSjtgzAQAAAJSQ4u1Od9wsWff4dKkxT6XjkDQ/84psPmyeAwAAACgZJdPUql09jtmTAAAAAEpMCQwgWCl1C26ThjuHW+N4rHxkl7SZvwAAAAAoDSVQ49ElO7Zulg171SS9WgEAAAAliV6tAAAAAESOwAMAAABA5Eok8KiU0aPUf3SnCwAAAJQkajwAAAAARI7AAwAAAEDkSivwqJ4uC2ZXmicAAAAASkUJjONhiy1YLGv1WB4eh2TD/a/IDvMMAAAAQHEqmRqPtq2bZeXLh6S9w8wAAAAAUDJKpsYDAAAAQOkiuRwAAABA5Ag8AAAAAESuKAOPsWNjZgoAAADAQECNBwAAAIDIEXgAAAAAiByBBwAAAIDIEXgAAAAAiByBBwAAAIDIEXgAAAAAiByBBwAAAIDIfevmW+b92Uz3ixPdXWYqQY/jceRIm3k2sMVmz5IFd42X2urhZs5JaXm5RbZubZUojkC266t7sEEappknHielveOUND2zW3YcTv0MRSpl8ZMLZX61eeqnY4+sfGSXd72z75DGJePNk2DtL2+R5Vv91uu3j+r1e/dIU9Muta1mhkyQFc/Nk1rzLBMtmzbIUzvNEwAAAGSFGo9+VPfgYlm7ZLqngCwyXGrvnCdrn7xD6sycQins+oZLTfV4aXh8oaxbUGnm9TcV7Pjuo0jNtOlqWxfLitlmBgAAAPoUNR79JLZAFZDv1IVjXePwmmzd2mXf+R83QVb8ZJ4qOKtpvxqBHOW6PqfGI+Vu/7hKqbvhNmkw79n82GbZHK9NSGPcLFn3+HSpCavxyHrf3TUsah83qX3cafZR/a1uwQypv3O81OzdJot+1mrNTeW8R5b7AwAAgLSo8egXE2SBVWDXBfrN8pQTBGiHW+WpR7ZJi56uni4LCnKHPoL1He6SHVtfk+YO87y/zZ5hgo5DskEFDU/Fgw5Nb+srsvyxLSFBBwAAAKJE4NEfZl9p5xZ07JGtvjkDKhjYdMiaqr1+gvV/XrJZ312zJGZNlZJKWXyXnRfSsukVVx5HEt9cFAAAAPQFAo9+EKu5zPq/fc9nwU2JPj8p7fr/aVfmnetRd71dKM9ofdXDZaw1Iw3d1OrB26xahva9Lf3bLGncVTLD1Ha8R/I3AABAUSLw6Adja+xmTx3tIXfgD58QuxXTZTJ6nDWRo0oZPcqeCl/fZ7LbWqH/+mqXNEjjc67H4wulQb1v86YtsjyK5kvV02Wte32uR0qC+BXDpUb/v/cPssOaAQAAgGJD4NHnnEDgpHz+uTUjwAn5vKD5E+nWl4Pq4TJ/yW0qEOjfXq2cGiQAAAAULwIPZET3arXofvdji6zctEfadXe8SyLoUlf3auVZX+LBWBoAAAClh8Cjz3XJsS/0/8PliiusGQFGyBVW3kKhpFtftrqkbecuWf6YDj5Eau6cUfBxRzLV1n7Knhg1ogQT4wEAAC4MBB794Ej7Sev/6pqQWoJxI8SOO07JsbwSt51AJ936nATtLNeXJjekT2SbGA8AAIA+R+DRD5w79DXTrwq8Qx+7YXzBEqZ3fGB3lZvR+jpOyhFrTgmJBz/jpb5oRlEHAACAG4FHf9j5hzQD9rkG/PugAD1GZbO+32Q5UnpATUls9h2y7kH/MUjiQc4XJ7JbV6Au+d0euxap5s7bZHFQzcu4CbK4nxPhAQAALlQEHv2iVba+bBeUa5cslhULKhM1EapwvOLJeWkG/MuWa4DAgq1PvYcOLh6fbgUR7S/vdtXMVMpf3KWCi2nzVPAxS+pcgYBeZlkhgyqjLT6K+nCZ/7jexwmu2h1nW+dZvXAFBiYAAACIzLduvmXen810vzjRnTq2xNixMTlypDD3wotZ3YOLpWGaXQhP0XFINjzySkHHpchlfXUPNqhlzJMgugeqR5JrSkxAE5Ag3753m//4HypAaFxiD3gYSi2/KGX5Sln85EJrUEN/J6Vl0+aQXrGc5U9K82Ob+3dQRAAAgAHmotj4b6820/3i66/PmqmEYcMuk9OnTU9FA9jh9z6WD45XyjU1w+XSS81MVThu37tT/o//4z35vZlTKPb6LpLhNYOl5tKLzVxVGH95p6xf77++cbNmmKZUqdpVsPJG42uy+tlWSf20uuXd1w/Jl/9uiIyeoPbPzNU5JC2NL8ljW4+aGUnGXi331QYER25f/FGef6/bPHGclY9f3+27j+1798t/f+b/I5s/MrN8DZEp874jky49Jwff/Fg+Pm1mAwAAIG/UeBSJ2ILFslY3QfK9kw8AAACUNnI8ikTb1hY7AdzKi3DnJwAAAACljxqPYqIToJeYHp/iEvkG8VqRjBySDfcXNkcEAAAAyBU1HsVk5yuy/LFt0rzX7vEKAAAAGCio8QAAAAAQOWo8AAAAAESOwAMAAABA5Ag8AAAAAESOwAMAAABA5Ag8AAAAAESOwAMAAABA5Ag8AAAAAESOwAMAAABA5Ag8AAAAAESOwKOoTZX7Hl0tq5bOkyozJzO5LgcAAABE41s33zLvz2a6X5zo7jJTCWPHxuTIkTbz7MJVNfdv5UezRd7d9M/yZqeZmYG0y1WpwOTeOplQUWlmiHS3viM739omH/u8/tqFq+WeCWqi+x355cZtkvKSKYtk1fxJauKAvPhEo3xsz42zt6dSWptXy/MfmZkRqpoyT+bcOCmxf+oca33nebXuL+znKXSgdq/oXQzV+mtZs+VD80Rx9jvouMgouXnpT+R7Ff7HRatSn8Xkm+pk4oRKqTDzutV6mtR6gj7yXI6ns0y4rvg5k9nrXfyOQZbnWSGOJwAAKF7UeBSrqnlSrwt+rTuyCjrSLacLlKuWqEK2qzCoVUy4Ue5Z8rdyc0oVySipdErEapmRZjJBFQZVId+iCvjH7SmXUTJ5kl5Xl3R9ac+JklVgnn+jd//U9IT5PwmuAZpyTfqgQ+k+7t2BqkqzjopJMtn3jS+3j13rJz6F5FEqoFPbqj6L77mCDq1iwr3yo8DaqtyO58iR3s/bn3rPbM41t+4vPYFC9udZvscTAAAUO2o8ipRdy5D9nd2w5RJ3sbuktfl5efujL+zCYpUKHm76iSoAq+mUu812bUCF+pwqKrpS3td+T7VYtyo8dyfVCFhMbULgXewCUkHX3yy5URXi7f2L13BUTZWb71UFfKvQ6reNXs5xSlejYB1rdUy6deF65zPyL9uTalTM9qT+zblzr6eTPgsrILlPfYaV0u33njkdz8LUFGR6XHI7z/I5ngAAoBRQ41GMpiyymjZ173wzu0Ji2HJOTYgqDOrmNLpQHi/0dX4hb255Rt7tVtPJd5urLrfuxncfOCDdUimVnjvRU2WOes/uVhU8qhcl1whYzPLJd8SjUHXNJHtbdyY1q+r8UN7cuFpe3PmOvPhWeNCh2bUD6WoUpsokqwB9QA6q41Yx8nJ7tkt8e7q8heRrF5qgQxe+n0j6LOQL+XjL82pbfy1NfoXrXI5n1bUyUS+UZ01BRscl1/Msj+MJAABKA4FH0TFNl1Sh1LfgGShsOfW3e3VNgCp7Ngfli3wh+w/o2qdKmXjNKHuWdrm7GZAKPFzlwaq5dTJBDsjO/Vbc4V8gNMv7BiURCSqYfrw9ILfAwxSAdQE77LVOQHb8Y/u4TbhGrrX/EudbUDfBoZUPE1hjoYKP7QE5Hrkcz4J8BpkclzzOs1yPJwAAKBkEHsVmys3W3fDWd7JslhS2nHPHWwUlb4c0kens0gVC791mu929Kux98qVYN6orncKiqe3Y+abIZJ3jcUAO+Ly3026/L+5SO9s/4cY8evNyahTS1Q44hXm1X/Z6J8mkKdZfDCc3xltQv9Y6VrpgnluTp1yOp/MZHvwkj88gk+OSx3mW6/EEAAClg8CjqEyV+0yvPmEFt1ThyzlNVLIOZlRhL57I3PmldOnIw7h2oe4F6oDs3C52gTA0sdw/KCm4j940zXhulB8tXSQ3T3HdUc9UhrUD8YBMv+yjT6RV/Tdh8lT9J8MvEdqpNcj1eOR2PO2agkr53pLVskp3s5z0+Ju5GRynDI5L7udZrscTAACUEgKPImI3XeqSd3+dXcEtfLnse0FKFC5NYc8VVFh3qavmyWxVgLZzSZzX+OUcpC4frS/kzY3PyItWzskk+Z7Vk9UiuTaL6o9MaxTizX6snf5QDlglZVfzoHjTIddBd3rPyrnwnMvxdPVKlof0xyWf8yzH4wkAAEoKgUexcJJyWwvbfW68sBov1AVLKVw6hb0DH6ug4ot4jce1N+l2/Lq2Q70urEDoNM/pg8TyBJ2c/c+yZtOvpdWq/Zhkdd96n6fZTpBMaxScROhEAPDx/gPqX1fzIFfTIUf8+KYcK91TVXJNhAqYzF/jcjqe5vPXvXk9sdr3kUkPUenzK/I4z3I8ngAAoLQQeBQJpzD/YpquXpNlvFzau+Q+d6yTCnvHj+uahDpXbYcqRIb1NJRhs6VIdH4oz29cLb9stnvjmjDff+wIrwxrFPwCgKTmQXYuh39BPeVYOe/n5lcrksvxNLUs+X0GGSbca7mcZ3keTwAAUBoIPIpBFN3nZiueGHxA9pvSn31nOlHYs5J+K1Th19VzVtid8PTNc6LX+VGjNO3UycpJvSj5ybRGwTcA8GkeFFBQTyToG53b5F+cGohN71hJ/H6BQi7HsyCfgXNcCpFf4XOe5Xs8AQBAaSDw6HdRdJ/rZpLCVcCQOup4gl1zosuDulmV5roz7RT2vuyS1tYD8m48edjkD7gLkS52UNJHieUhfHtR8pNhjYITkCX3EmU3D9JjnTjHxXv3P6PtcLbBJ1DI5XimbyKVgYyOS3bnmTsBPdfjCQAASguBRz+rmntfTt3nZr6ck5sxSWYH9F6kR5q2xpbwBDE+zY46t8nzWxrlzXjB13mNXw1Barv9aKgAbOlqWbU0uAvd+F3/NAGF05wnXbez8cJ88k6rwEw365p4zbXWcUkEcYb1d2VCXWCzL3sb/IKLXI5neGCYqcxqTbI7z9y9r+V8PAEAQEkh8OhX9lgYOvH3+axqBbJbzr5zLFIx+z65z93FbNVUuXnh38qP9Hupgp+nVyzTvCa0sOe8xq9An2mzpbyZAq/pQvfaKnehd5Rc69q/8IDC6f0pXXOekLvvnR/bo25PCsh7UYHbTt18SBWmv2clvHu3tWrKIit/xve9czqeYYFh5jKtNfn4LbuZWFbnWT7HEwAAlJRv3XzLvD+b6X5xQhU4ko0dG5MjR9rMs4FL3wH+0WyRdzcFjfLsL5fldAH8ngm64Oenyxpp2hPEqELwqvmT1PzVgcGNvR2V/q8xy6cT9v7ZyHr/VIH35qU/sWqNQnW/I790jzBeNU/+ZsmNUqF7ifJJ6HeOiVXA9v180q+3e+czqT1N5XI8M1zGd31xuscte8yWF59IP+hhYv/9+ByTvI8nAAAoFdR49JfIus/1p7uYtXt48upufUdeVAW65MK/0+4+7C532J1wp3lOuPR30TNl79870uoJZLsC9y9eG5BOcm1BmnyHzk+cYxxUc2KPNWJ9Fp4Pw9lW/+5tczmemS2TRpaJ5Z3bnc/BzNDUZ9K689fyyyd8Aoe8jycAACgV1Hj0k2sXrpZ7JmR2F9kt1+USsruDDQAAABQCgUd/ME1gwpu4+Mh1uSTx5ivd78iLv94mH5s7yVVVIp39cFc5vHlOMgImAACAUkRTqz4Xdfe56XVuf17e1e1XKm6Ue5YkRsv+0b3BPUNFyW6yBQAAgIGMGo8+5tzdzzapOtflguken+6T2RPsNvZatw5q3InUAAAAQIEQeAAAAACIHE2tAAAAAESOwAMAAABA5Ag8AAAAAESOwAMAAABA5Ag8AAAAAESOwAMAAABA5Ag8AAAAAESOwAMAAABA5Ag8AAAAAESOwKOoTZX7Hl0tq5bOkyozJzO5LgcAAABE41s33zLvz2a6X5zo7jJTCWPHxuTIkTbz7MJVNfdv5UezRd7d9M/yZqeZmYG0y1WpwOTeOplQUWlmiHS3viM739omH/u8/tqFq+WeCWqi+x355cZtkvKSKYtk1fxJauKAvPhEo3xsz42zt6dSWptXy/MfmZkRcdYVrsv32OSynbmsL5/jmdP+Oe8XtD4ZJTcv/Yl8ryKxvszW4xL43gAAADZqPIpV1Typ1wW/1h1ZBR3pltMFylVL7vUEHVrFhBvlniV/KzenVJGMksoKM6mWGWkmE1Sh9UZdSFZUEHncnnIZJZMn6XV1SdeX9pwojRyZSWFZbUvKscltO7NfX37HM5f9q6o0y1RMksm+VWCX29vU+klK0Jix7i8JOgAAQChqPIqUfVfcvwYhTNhyibvYXdLa/Ly8/dEXdmGxShV2b/qJfM/3LrxutnWvVKjPqaKiK+AOvFqsu1K95teyZsuH5i8Oe/kJfXJHPPXOfeZy2c5c1pfP8cxt/6xzQq2rWwebO5+Rf9n+hfmLoYLVv1lyo//fXJzzpy9qrgAAwMBDjUcxmrLIaorTvfPN7ArPYcs5NSEq6NDNcJ53gg6t8wt5c8sz8m63mk6+K151ueib4d0HDki3VEql5475VJmj3rO7VQWP6kXdx32qCszyfXJHvOpamZjrnftctjOX9eVzPHPav6kyyQooD8hB9flWjLzcnu1Sdc0ke5u6goMOza5t6ZuaKwAAMPAQeBQd09Sm+x1pCrn7nCpsOfW3e2+0CpetzUH5Il/I/gO69qlSJl4zyp6lXV5pF8gtqqDsKrdWza2TCXJAdu63ysn+BVezvG9QUmj5rCuXZfNYxpbl8cxlfU6gc/xj+/OdcI1ca/8lLrOAwgQwSc24AAAAMkXgUWym3CzfUyXF1neybJYUtpxzp1wFJW+HNJHp7LKbvbnvitv5Aaqw+cmXYlWIVDpBibk7v/NNkck6J+GAHPB5bye/IN3d9EJwtvXgJ9mvK5ftzGV9+RzPnPbPCVbUftmf7ySZNMX6i+HknKQJKJwaoXzyQAAAwAWNwKOoTJX7TO9DYQFCqvDlnKY0WQczqlAaT7ju/FK6dEnZuHbhvfbd+e1iF1xDE8v9g5JCs+/cV8r3lqyWVbo74aTH38x11eR45Lad2a8vv+OZy/7FAx1dm/HRJ9Kq/pswear+k5FhYnkutS0AAAAuBB5FxG5q0yXv/jq7ACF8uex7a0oULk2h1FUItmpDqubJ7HguifMav9yI1OWj4+otKmu5bGcu68vneOa2f/FmVNabfSgHrMjD1dwq3hQr/OTIpUYIAADAjcCjWKTpBjdQ2uVMQTZe+AyWUriMJ0J/rArBX8Tv0F97k84X0Xfn1evCCq5O85w+6WrV7Gfrr2XNE6t9H4E9NuW0nTmsL6/jmcv+OYnliUDn4/0H1L+u5lauplhhMssDAQAACEbgUSScwueLKd3Rhst4ubR3831qRpIKpceP696W6lx351U5OaxHpL5snjPlGrHK2LmsK5ftzGV9+RzPXNbnF1AlNbe61sonSRdQkFgOAADyR+BRDKLoPjdb8QT0A7LfFC49+QGKlZxcoQrPrp6zwu6E92XznHzWlcuyuS+T2/HMaf98Ayqf5lbpAgongCGxHAAA5IHAo99F0X2um0li9h0lO8GuOVFvZzUD0tyJ0NYM9VZd0tp6QN6NJ6mbvANXsOJmF6L7MrHcPwBKJ5ftzH59+R3PXPbPCXSSe8Gym1vpMUSc9aWpDevLmisAADBgEXj0s6q59+XUfW7myzm5BJNkdkCvTnpEal1z4g1inCRnV6G0c5s8v6VR3owX0J3X+OVGpOYXRCc8AAqXy3bmsr58jmdu+xcPVpKXUQGPHrxw4jXXWu+bCDb95VTbAgAAkITAo1/ZYzfohOHns6oVyG45+w63SMXs++S+Ka7go2qq3Lzwb+VH+r1UAdXTK5YnETpAYCK04pdfEJmwACiNnLYzh/XldTxz2b+Q2ozOj+1RzCcxYjkAAOg737r5lnl/NtP94oQqGCUbOzYmR460mWcDl65p+NFskXc3BY0m7i+X5a5VAcY9E+w716m6rBHNPUHMlEWyav4kNX91YHBjb0el/2vM8umEvX/GMlxX985nUnt+ymU7c1lfPsczl/VVzZO/WXKjVOhesHw6HnDWZQWcoefRVLnvUXuMkRefaCTHAwAA5Iwaj/4SWfe5/j7e8s/yy+YD1mjZbt2t78iLquCZXBhOToT2E3Yn3GmeE64wd9EzW5e/XLYzl/Xlczxz2r80eRmdnzjnglpf2Hnk1AiRWA4AAPJEjUc/uXbharlnQvZ3kXNdLoE72AAAAOh7BB79wTSd8W36EybX5ZLEm9l0vyMv/nqbfGzueFdViXRmU/tSIIlmP5kgYAIAAChFNLXqc1F3n5te5/bn5V2ri90b5Z4lq2XVo/bjR/fOExV79Dm7iREAAAAGMmo8+lhoQnaIXJcLNkquXXifzJ5g5wJo3Tqo2Zhdt74AAABAJgg8AAAAAESOplYAAAAAIkfgAQAAACByBB4AAAAAIleUgQf5HQAAAMDAQo0HAAAAgMgReAAAAACIHIEHAAAAgMgReAAAAACIHIEHAAAAgMgV5cjl/Scml6xeI+VVLXJ66dNyzsxNa+bDUnV/rXmScO65H8rp98yTDAxW6xw2tVp6P9wo3RvfNnMBAACA0keNh8cYuahK/dd5THrtGRkpq64xU24tcj6LoEPGLJJyFXRoZVWjpcyaAgAAAAYGAg+3MabAn2Xg0dv0sHQu/aF5rJKeTjUzy/eQo7vkvF5OOuTcvl3ZLQsAAAAUOQIPl7LaGVbgcW5PPs2ccqs1EWmTP63WgcvDcrqJARQBAAAwsBB4uJRV66ZOHfJNu/08JzNvkMHqv/yCl4iNmyUrnmyQxucaZN2CSjMTAAAAiE4RJ5ebRO/OjdK58W0pm7lIyu+4Rwbr2gSlt7NFen75tJw7aj+PG7NIKlbdI2Uf2sulCkog987vzXR9Scrqn5aK20V61jwsfwp7bUBCunS+KN2rGzOqLSkbM0cG31Uvg6ZWx3NCej98UU5vDF++7sEGaZhmnshJaX5ss2w+bJ4CAAAAESjeGo8xs2SQKvT3ymi5RAUCFfcnggCtrKpWhq16Wi4ZY2Y4auw8jd6OoFJ/UFMoM//DY1K2+leZry+JXWvSLr3pAhTfhHS13Rnld8SsHrAqVi21EtLdiehlU++Rio3ptxMAAADoS8UbeJgAQheky6fqrmlXSbeTwL1mo5yzErGrpfyuOXoizinQ93YE5EkEJZA78/X6qjoyXp/XHBmktlU+fD9tV7zehHT1eK7Fnh+03XF2zYzudtdKRHdv59JVcvrVFrVfajt/tMgTkLjtaNojLR32dPvLr1HbAQAAgMgVbeARrxHQTY90wvV7bYlA4ejbcvqXL9rPk7qeTZunEVAj4iSWZ7s+DxO8BNe2BLP3N31+SVn936nASE34bae0ybmmp6VbBUqnfxnS3OrwLnnqkQ2y6P4NsnxrMY2jAgAAgIGqiAMPO4DoCSpAH/XrNSomZVahfHdgLsbg6XZeRXLNQm7rSxIParLtlSomg69T6w/ZbtscKb9db2eLnA7LA1GBUrpcFAAAAKAvFWngYQKIDHIlPExeSHBXts77Jtcs5Li+JHZQk+XAgZYMu+B1moNl0JQLAAAAKCZFGng4id4hBWy/XI2ME8uTaxZyXJ+HU9uSQc1Isky74E27fwAAAEBxKs7AwxTEwwrYg++6xyqEuwvr6RLLy8z7pgQHGeRm+K3PK8NaCx+Z5ncAAAAApaooA4+0PVPNfFiG6d6jkpo1hSWWW+NrmHEzkgOMeGJ5gLKA9XlkECwFybQLXmm3g5qy239gB1B+xswJ3RcLAwgCAACgjxVp4KEL4iKD7/+VVNS7C9L2+BXOwHvnnnMPAOiwu7yNL6MK4sP0uBy3V8u5D+0+ZP0Ty3WBfo3v+pyAxX99XmXXzZLBzhgaY9TyM2PmSRAnv6RWyusTry2bOSfxPo6ju+S81a1vrdqnh9XfXe+t16WPzaqlMsz1Pn7q6qdLrb3LUnPnbbJ4nD0NAAAARKUIRy43I4hLh+jxKOxCeareV1dJd1NSjUjQaOC6t6o1D8u5Wr9RxZ31taigotYzaGCCHi/jv1pd1wZTAc7Gpak1ERmMRG6Pdm4iAZdzz/1QrdM8cTgjs5unyRi5HAAAAMWoCGs8nFyJJlVgXyWnP9QBSIJVsF7zw9SgQ3vvaev1CSpgeHWjNd6FDjT8mzTZ6+vd94KcTlmfmrbWZ4+XEe5t9boXzUCDtt7OFul5Jf1I5L1NKqjx2e4ev2ZdRxvV/qQeF9Hr0oMJpgk6NAYQBAAAQF8rvhoPc0df/Go0AAAAAJSkoqvxcBK9sx+EDwAAAECxKr7AI6RnKgAAAAClqcgCj8KMIA4AAACguBRZ4JH7IHwAAAAAilcRdqcLAAAAYKApwu50AQAAAAw0RRl4jB2bbrRvAAAAAKWEGg8AAAAAkSPwAAAAABA5Ag8AAAAAkSPwAAAAABA5Ag8AAAAAkSPwAJDe7Dtk3XMN0qge6x6cJfQ7V8LGzZJ1T94hdeYpAKB/xRYsVr+tE8yzga0oBxDU3ekeOdJmnqHfzXxYqu6vNU8Szj33Qzn9nnmSgcFLn5ZhU6ul98ON0r3xbTM3On29voFrgqx4bp64z4D2l7fI8q39OfhnpSx+cqHMrzZPk/T/9hUpHUAuGS81HYdkwzOvyI7DZn6/GCYPzZsrD1z6lTz7xuvy09Nmdk6c9xJpO/iBzP/kczMfQFHJtTxRoHJIsdKBx9o7h4vs3SaLftZq5g5MBB5Iq6z+aam4PbmE1yKnVcH+nHmW1phFUrHqHinT050vSvfqRum1/hCRHNdn72t7dvuWoboHG6RhmnkiJ6X5sc2yOV7wSy5Iq4Lh/apgaJ7lKzZ7liy4a7zUVqsLm9GuCp+7f7NbfrezS8K/bQQeusDeqArsWSm2HxBd0/H4dKnJ4NyaPOYaWTqxWm66VJXkLV/JWwcPykZVoN9v5vjJbrkCBh7DrpHmWyaYmrgOefRf35OXrOliYfZVWmXRtk9CjyGKUK36/i823/9/U9/rZwd2wTBKuZYnClIOyVGU5QI3J/gY6DfOaGqFtHqbHpbOpT80j1XS06lmdh7LLnA4ukvO6+VUoeDcvl3RBh1aTuuLyeDr1IUt233LyXCZcUOlmVbGXSUzAgrR+dEF9AZZu2S6J+jQaqrHy/wlC2Xtk3fI4nFmpq9W2brpkLSbZ9KxR9ZTm1Bi1HnwEx106IA3POi4e9at0nj9BFfwoF0qN028XhrnzZS7zZxkuS5XEKePyfav7Mm2g8eKLOgA4Mi1PFGQckhO+q5c0LZ1s2zYq36b77wtzW9yaSPwQJbGyEVV6r+sv4Rt8qfV+oLxsJxu6ovarFzWl+u+5aZm+lWJXIkrhqtCYeHVPRhcKxCnApArrnAFQT7adr4iy+/fIIv045FdaWpI+kKXbH7EbI/12CYt5i9IFVtwm3UetL/8mquWLdXka26VJ6p14KBrKrbLon9tku/qxxsfyFu6YH9ptTwx7xqZbL06IdflCue0/HSbvU6aWbnoO/V/T05WvmJVl5kpFFauv7l9+Vvdt+WCHT/Tv2XDZf5PBu73lsAD2Zl5gwxW/53bMwBzJvp636qHy1gzWXd9ls14MjJBZsabdikde2RlvKC+RVbqWowOu1nSUzupwQilAq9EkGM/Vr580vxR082XvH8vnmZWE2SBbjuctqbqClk60a6teOuD12XZJ6cTTYJOfy7LtqkgQk9fOkGWjrHmGrkudyG5VL7trgjqIxSYC2Nslbe2GAWS629uX/5W93mZp1W26t+W6umyYLaZlYlxs2TFk6YDmAXhNxL7GzkeRaBs5sMy7I5aKdNRtaVDzr3aJD1Nb/tE2DG5ZPUaKa8KaNvoJGCl5DWY5To3SufGt9U6F0n5HffIYLPO3s4W6fmler+j9vMgdltHkZ41D8ufwl4bkAiWVb7FmDky+K56GTS12s7VUHo/fFFOb/RZPqf1zZFhq+vVMcikjVP+bUkTOR4nVYF/uNSo1bZs2qAK/U6+QmJ+IsfDm1/h3/bTm+8Qf028Tb/NXpd5EiZpuVTJ+SmGOw/C5DfYuSW6mZc9WzoOSfMzr/jfdR9XKXX1t0n9tDS1P765E5kcp1SxcapQ/pNa39yXzWmCsXgyoCWznJyYOkbL7hpvPmNNfeZ7W2R9U6u0Ffp4Osz7pD0mY2bK769Xb/xVSB6C85qOD+S7u0zNQjbLeV7jzfF4VQcwMyYmmmp9pWtPPpBlR5OTPxKJ5H7aDm6X+Sr4CTXsCnlo8kSZW31p/K5i21cd8ovd78lLoYsOk8ljJsnaiZdIzJXH0tZxUFaq4+HZd7XPzROr1evM8zDu41lAsb9U5+i1h2Tlfw6ppUzJXzghdQ+o7+F3nO+hOkf/TZ2jz6pz1HqeTH1v/3KG1F97mdRc7voefam+R6+r71GLzzk3Wl1j/qO5xsRzJsz73KK+H3q+pt5jw/+tvlfHzHMjNlp9b/+D+t5msj6f/IxYrfoe3aq+R5fbs/V6mtV6NsfXo66p6hjMV8cgI1/uCT/GGVHXsP/izaUL0rJZXcsLUsXrLRfo54PrfyDlt6vyiP0Cq3OW0+pvnt9QJ4dS/c1eLlmacoqRcXkiSebL5VLuyb9ckLJ9qiwz7Eeu91TrPR1W3nJ+g7PIEwzPIS0u1Hj0K32C/0oqVIE5EXRo1TL49qVSsXpR/Muf0CZ/ekVfcWqlvD6pIk5fDKygQ53UyYXtMbNkkFpHr4yWS9QXpeL+xJdPK6uqlWGrnpZL0tyRLKvWX5x26U1zkSir9i869maUb6EufnobVy2VclfQoZVNvUcqNqZuZ07rGzNa7XcmFxeloNWsp2T3HvtueXVNpbrImPwOXeD9wprt0irv7TWTiqd5lsOTH3JSdr/vX7isXbJYFs/uozsho66UxQ+qQo+VW2LmaTqv5HG1HcntV60L7UJ14YymyVkqVcjR2/e4+qEPyH0pbNeGqlBh5dq4gw5N7e+0eWo7FsuKsM8m2+PpYtemBZ8XjsmXXmL939Z+zD940M6oQrb+v3p0PGfj7tH2BmW0nCqsX2XN8Pr25Ful8Zbrvfkhavqm6+fK72ddYWYUhm4W9nu1rgdcQYcW083BbqmX5muGmTlJVLCyXgU8jSqASgQdmnqf6uul8a9ulYeSFs0o6CigugfUefSXTpK9oQrnTs2qLnCv+Ps7ZPFoMyPZd2pl3X9R38N40KGp6e+oc1Qt5+2CWX2H1Poa9et1sOAKArSay9W5uVh9jx5I8z0aOcIKJFb8vXkfM9t2Uo54gg57nWv/o/re5rK+kep7pJdf7Ao6NL3sf1TfI/dxGZlh0FHKnHJBh/pB1+WHjWtkmCvo0MqmLpVhyWWNGvXbqf6zlvOVWfOkTMsTyTJeLpdyTwHKBe7t00FIlSrLeAIZvQ1h2374M9ndof6fduWA7PacwKPfqKBjoz4Zde3GRule4yRNqceajXbiVNU9Uj7TfrXHey9Yfy+7/QdWFaBNvZ/Vi5MOOnzuMJgLhS64l08VOffcKul2re+clYhdLeV3zdETAebIILWsfPh+2jv/3kQw9XjOvj3T25HunpB9h0J3g6tK4t7tXLpKTr/aor7oajt/5A3Kclrf0UbXe6tjoOfpGhL3+ziPDGtpMqObP5yypnQgUXeD+bH94oQk3diz7Gjak0jsVgXNv0gqZMac5TUVvPzOuctxeJc0uYIWXYDQBerG5+z+wmNRJq/pArEKIvyp7ah3Fw6cxOe+o3NfdJATRgcEK7Kp6g6ka6R0gGOe+hquAsOQhMKsjqdbpYwepf8/JcfS3P26aqhdSj78Vcgt/9NnxH6bS+RKq5A9TK6045U0yznJ385ybirAUEFAW0erPPqGyQ351+3y6EGTLa4K9es9NxoS+RzuxyLn9WHGzJRGq1mYXZsSz0XRy3/QYQVHsYnXpwQQujnZeiswUpNfdcizH2x3rVtvq172Uvn2UPvVlqPvuV5jmpvpGp/4PNejQLUdRzpPSfUtKkj4Lw3S+PeLZdm1+py5TOrVdKOaZxW41Ry/64wtJPBXhfP6v3QHxzqQTV8410HLirDb+Op9l/0HHUiY527HT9gBq1H3gB0UhQldnw4wApdX36PvF/JmQ7Za5an/tEEWZfAoTG2HYsoFct3f2TUY+qblmlXmd0/93n5ovUoVpL13+pwbfYG/r7rwrv8PDTwyL094ZbFcLuWevMsFMftGst73mQ+L7onL6tI/XsZTx/W5F9Jse5f8zro5eZmMzvB3WpcTWnSwoqTL5etvBB79ZPBSFXToIGGNTn5+2xu5H31b/vTLF60Tuqw65f62klzroQvr+v06pGeNf7VmvEbA+gKpdb7XlvjCqPWdNuuTKnPB8GMuJsF3OYLZ6++Qb+IlaH9l9X8n5daX1mc71X6fa3pafYE3qu0NDwQyXV9cRhfKAnr/D+rTV6qHy8wa+4ew5YMTppCYxBNAJPWGpQqWfzE98UPa8htvdb+VqGYuRgnOXXZ7MMC65AubWl88kdx5bDpk/pidlk1b7OUfS0r+HjUicVc2qUev+DL3b7F6+HDopkLW/HxzJ8bNknpX7oteXyL3ZYOV++KovasACX6zZ3gT/Pdui6/PyrMxs62CT5qEwoyOp8cIucKK4U/KEXtGACeA+Er+eMaaEUD93bd8n265cFbzqF2fuJo5nZaXPnk9HkzcNLoQtR7D5KGJ9gdh56J4m0btV4HCfBV86EBo7mhv5DH5molyk56wmoq9Jz/1NP/S26qWfWO7LMv+0lhQbf/jFVn+T9uk+d9UoeVy9T23CvP6f3WN0M2JNqvz5z+nNl3yOmm/Thdy/8l100OpuWWG5w7sjt/qv5+UljfUOf1P6vVO4Vhtg/v8rJ0aVqB3tlO9j1rvSuc9/pOa/q3ruz5afW+/Y6YV72vVd2mz63t7a5rvUXz/kr5HuvbFmuiSzf85sR3NX1ozbbq5lmu91iPvZlb9wykXWHf4X1UBh75pedTZE/V7+xtTLkhi39EP+X1NWyOi5FqeyGK5vMs9OZULTG2PzJBh99fYwY5uqhbfXHVc1XZkZrhckemlT/1uP2U6XCn2rngJPPqFidhV4DBs1a+kaqPPwxmDIoir1uOSpbotpQ46gts7OheKnqAC+9EMvljxi0m2l1inO7rdaXJI5ki51U+3T1MxN3XBCH+fTNfnYvatLxPI7CZU46XWKgQfkvdC8i92fJD4Ua250/Xj7ym0+71Hq7oYqQL8y+4CbkLNtOnSkKapTq50oBBPWj/sbTLmTqz3Oimff+5cNLvkSHsigdu3mVkOPDVESq3uUtiMyq4fujlUXOB2Zs7bccAh2aACp/hP+85XvLVSPjVajtyOZyn4SrYf868t2X/MroWQS4bm3yPWsNEy16qxaJWNQdcFdR3UNRMxdT1IrG+Y3F5j15I8uztkDI7TITU+felYq2x+drMschXEdWF5pQo4fPMtkrRs3px43bFdsv6NxHfQugPrbo6k/r78P22Wp34vMva7d8iKv18s6/5efY90UyjzEku8QB9EfS/+Sb2PWm/i10VNuwKk2HeTvreL1fdW1+yYx1onj0NzNS9L1v6G+h7F9099j/7NnrSELDcQ2eUCUxMQ0vujt5Dv3NEP/n0dPN3+9EPLCrmWJ7JYLu9yTy7lAidYUcFc73N2sJOLtna7VcRARODRH0wvCflx1XpYVYhhSVbmQqGKntm2pXSzLyYtcj7rUUIz7I7O+cJmXfWaLPvu7+x9y6KGJC/2XQx3oVr2/kF2OHen/ezcLc3xmovxMtM0AfIUoq338NMlO7ba3eGu3JSojk1If6c9Fx3t3kKOZ3/dDp9QR96htkXXxDypCjA6JyKevK184W12kauxpoYpM5lXdftzmjoZPjUP7qAyTMbHMyen5Q9/0v8nNRdKEdQ7U7rl8hSQG5KVoSan49IJ0vhX9fJ738f1ds2Gh7PPf5I/FElskV6lLL5VF8QPSbMOHL5TK38RlNeRRlunuwCkrl3u89nKzbADDZ2fofMu7NqL7LRsTlcLk23PUkkBkktHZ9L3qLOQ36NS4pQL9G+6/5W1rHZGaiHf5E0E/7467xv+e5preSLz5fIv9+RULnACo1dXDYgR1aNA4NEPnOo/PdR/SpvBpEfwXYiYXHKH/lJkwhTEwwr0aasUnbscmRfm4zLtji5+JyOP6EjLuvu7wgRm2Wp7P1EL0fJBuuZDTptPW+31uumCu5nVSWluSt8EqW2nqY5NbqoTcqc9eqb7QJeaalWA8QRhme1f4aXPjRgoPjtjN2sad2lKgkPCsKFinyZOIdwJWNItZ2obSqrwXrpif3mbzL9cfWf+6RXZ/D9ek+YvVUD/Hwpxc+GkfB7vAEMFHVaSt3laVNT3Nk0gU3x0r1aJGpywR2jOTMbS36DzbVKV9nfaed+wFge5lieyWS7fck9u5QInWDnfkt9tsljNwO0Km8CjH/nnb2RmsNO86jk7+WnwHX49YBmmIB5WoB98l920K7iwnn0tgiPrfIs8Zb++DC5QUdA9V+zVXegekvcyyC1t29qSCBas3i5cNSTupHKPSqnz6y3pcKs8lWPeRhSsfUupiTF0l7EF7BrQW1Ogu8G128X6P9J3kRuuS465eyrzaRIVzRgujhPyuT6uGTTF2v+VHUF4mxl5TR5dbRdeOxKjg790zP7gMlruq6/kM2tOhpxaimyX8+P0rKW7rvVL8HY/fLsF9kuMz1Iham7SGT1Llt0yXNrfeM10D6vzFbZJy+XTZZknOTwzdVP9z8/YX9Z6mlO1v7FNNvxTIu9ig7sJUwF4aybU99adY5HyyPd7GyJts7ES4bS8CPxN9y94OzdOg5o6laV9Xy3X8kQWy+Vd7smlXFDom5i66bGZHEAIPPpBb4ddIi67blZgsFA2U53AZjrZ4KW/kmFO86r33paeV9UPf1APWEq6C4UeA0O/X2j1ZQZf4iD2XZMMvojt9sXE21tXkjFzggMsI+P1OZy7Hn1OFQh+tlmWP6J+JDMqVLtrBsbLzAevjP/wt+/5zLcZktV7k+7J6sk7pG6cNyl98V3uAkV/3tl39fqkBzl8TBVenIcu/Kvjk23QYeXBxGtwKj09eLlrmvRxbPA5Nnq8jBULCtPDjbcplVqf7lHMPNPjergT3YMDyFw5gU8GTcZMfkPwQH+ugQKPuX4Ns1nuoF+BPqiZViIZPLSr3kw5PWtVT/TptSrM5/KaFVtdKg/MCBl9fdiwDPJQChC8pBEbNdzK6Vj+P9xNilrlKZ3zUZU+T6r2VvV9MM2UYrXq/HQldOsE9d/51SSo+U3/o1V2HNM5Gur7U+tNBC+Ett8nfW91976jk763urvgvyx0z1TqO3TcTGoqgFtQm7Rez3bkqm97tYq3vMjyZqNvLYhhjV9hxtMKLSvkWp7IYrm8yz05lQtyDaiSOa0ZsvldtrtstwYQLGhX8IVH4NEf3jMRtAoW9Fgdg10/1nrQPLu/6TW+gYT+Yusvi7v9YG9TU2ith32hUH+//1dSUe8uuNvjZTgD7517zr9HLDcdLMW3d4xaXgVI4Zw7AN5xR8pmzvHst+XoLjlvdW9XK8NWP6z+7npvvS69rat8+hT3yGJ9yabWyyWu/bE/C/X5mOfFwF1orp3mBA7+YzToAe7iAwpVqx/qx3VXuvaFqfG5xICDWvvLu6O7Q5iOO0G+erqsVdsZf8S3V3cB7NMDV1xSsrUumDye2Ndl7p7AkrsZ9jk21ngZd9YWJunek5+j6B7FzLqscT3MbKs52TOF7x3HDnySe0Pz87lsdHqRuv5WWX+NqyBtjWFh8h9SkrM/l2VWb1DZLpdw0/V6/IwrPMslBgnskF+kGxAwI6flpwf1dqoA4ha9nWp9niBgmNx9zUxp/quZ8TFKHC/tNx0C6PyQeTPloTHuBfWggmq5W+ZKY+CYI97g5W7P4mq9nvfLT1vLK7LcGpAviTU/g/PrcvV9+I/q/PwvdsJ24vxUb/F6YnlP7odeJt4USH1/FkfQPfYx9b31JILr7VTf26T11t6ivrc55rME2fGht3ZYJ7Z71vsfCtPxRV8KCyAsTiHfdywsuwvaeFlCD5CnxyS7vVrOfWhfCzJK/s66PGHLZLmClXuyKRekbbKeIec3MTBvM1VsgR4I156umVag366IEHj0i7fltBlnQgcf7p6tnEHzdL/PPUlRuB7hXH+xRfcJ7cn9SNR6pBbKTUG8s0N6rV6wlkpFvPcsZ7wMbyDjyxUsxbd3lVr+juBaG1ubnNtnX4jKbl+T2M/7l8qglF+mtng3wmIN7JN4vbUu67i8KKdDet/Ibn1GPOBRF1MV8MWXsT6Le2RQQE1Sv0gZm0PZ2+JbI9C29TVp3uvNnfDTvnebrO/P7vc8yeVBhpseuBoCx9awug4208mSe8Ta8TPdVW+6Y5NJYT0TXbL5EbVtoTt5Ulo2RdT3+k676+ZMegXb/8nr8miHDj4ulZsmqoK0k3TtGsPiUb9mSEffy205y1fSphbV42e4l7ODDj2q+XvxZl15U9tpd9Grt1Ot7xazPusxV57QI42rP6fUSpz+ROa/4QQf1fKAHtjQtZw1qKDe1v3B7SLcwYseqDC+vApYnrh+UkqwU2zs3qDME61FBdTubmY91Pmsu/QtsB3Pqu9t2vdV39vvFuJ76xK6r0rJ9YaVvklQUI3BuT3mJJjqKktYA+TpnjV/KD3WdS5NU+dcyxMZL1eAck8u5YIC5ak6ncakz/0MUqjfrmgQePSX9542A9h4SyNWwVp9ea1+n808zQo6rFHJX7T+lsyp9UhtpuRU/TVJ92r1JftQfRHtP1ji6wstzGsqWFrzohlwx9bb2SI9r6Qfiby36b9a602wB01MDqws1uA9qdupR2PvsfrDDh+/Q8tqfRYV8Khj0+NZxt4/fWyKrWeK5F6Qgi9OdlMunUiuA5B2z+7ZuSUbHtsiy13du/aPVnnqMe94AWHsxHo/+n3sfXVr71CFoD0nzDNHlwo+NstK59iYuRb9+pe3qb8Vsj90tW2PmHE7kj8HPa7HY5sTXeUWnGmiVz1dli1I/2P00q7X7cH0dPk8TgUHHR9YY1gEBQH2cq3y1lfuBc1AfSHL6aBk5TYzgJ9rUXtAwdflpwVORtfB1Xff+ECeVYGS57xX2+1sq+86dfDhDBbod2z+Nc22WsHLB0nHR+2nNSDhgcIFV3nRCelb7HFAHGb8D2/TLU3njiQHAup81l336q5xf+tuGlUo6nv7rPremrFKPO//pfremvFEUrc1X/a+6rFC2pMCkHZrvX9IM05OsUnfJCiwRkSVXfx+X/U4GbpnTXu5dE2dcy1PZLpcIco92ZcL0jbvysgEWaB7c+zYI1tDuthPFponWWS+dfMt8/5spvvFie7UC8TYsTE5cqR/i0IDxphF1oikenCg9MEFSsLsO6QxPtaETo6OMJGyL4ybJese100zVKHHN4m8UhY/uFDmO83GVEE970EELzg6j0Y3rws6xv4mX3OrPdK3Tsgu0OjaUXG21RqMsCBNsy4Qtep6Eh8DQwce6vwouR6hAJcSLvfUPdggDdOyu057mPKBHvepWAcSpMZjgPPthxulSxfSXQPc9WtuRoHU1TvtwXX1cCLx2qYTva+SGa4E7Pb25NoLpNclm5/RtUp6nJQ7PKNPh9n/yUE7cbz6emme5crBKEJXDbXaZiEvSeN0ACWoVMs9Tl5m+8u5N7u1u+H1z/ssFgQeA1zaBDKUAH23usFOfLZqBhyHpKlI72jkqubOROK1O9F7IO9znzm8S5brpl5OT15mdjg7cVz/fMdU8JEYeO/WLHuGKiCdeD7G24OUTu5+wmq2HTwKOoALQymWe3TQYQ2Yu3db7jUV42bJMus9/PM+iwWBx4CWPoEMJcDd61Ocroot8SZWxo6mDPM7rJyUgbHP/WbnK7LcyafJtNeTo+9ZuQk6J6IYTB490Urudo8+rpO7tbaOgwXPCQFQSkq33KPz/XJrRlypApc77CbL+neyyJsik+MxoM2RYRuXymCdkL46fVI2ipQnp0NfnPZIU9OuDMf+KBHjKqXuhhlSP318yojl7XsPye4PPpPNkSVfo6To7mcnXy8/rjaDC2omMXzZUaKOrHlyPERaNhdmnAigf1yI5Z4JsuK5eVKte6js985i0iPwAAAAABA5mloBAAAAiByBBwAAAIDIEXgAAAAAiByBBwAAAIDIEXgAAAAAiByBBwAAAIDIEXgAAAAAiByBBwAAAIDIEXgAAAAAiByBBwAAAIDIEXgAAAAAiByBBwAAAIDIEXgAAAAAiByBBwAAAIDIEXgAAAAAiByBBwAAAIDIEXgAAAAAiByBBwAAAIDIEXgAAAAAiByBBwAAAIDIEXgAAAAAiByBBwAAAIDIEXgAAAAAiByBBwAAAIDIEXgAAAAAiByBBwAAAIDIEXgAAAAAiByBBwAAAIDIEXgAAAAAiByBBwAAAIDIEXgAAAAAiByBBwAAAIDIEXgAAAAAiByBBwAAAIDIEXgAAAAAiByBBwAAAIDIEXgAAAAAiByBBwAAAIDIEXgAAAAAiNy3br5l3p/NdL840d1lphLGjo3JkSNt5tmFbKrc9+i9MqH7Hfnlxm3Saeaml+typa9q7t/Kj2ZXSmvzann+IzMzMqPk5qU/ke9VHJAXn2iUj83ctKYsklXzJ5knCX2zzQNRjp9DhPr2PCwdpX1ciu88i1zVVLn5pjqZOKFSKsys7tZ3pGlL8O/KtQv/Vu5Rr+9u/bX8y5YPzdwCivD6yfcWiB41HkWsam6dTJAueffX2QUPwcvpgGS1rEr3WDjVvL70jBxZqf7tkq4v7efRulwq9a+xCp6P2zMyUlWptzHZATnAD12cLgCsenSRXGueh8vtc4jOKJk8qS/Pw1JRfMeltM+ziFXNk79Zcq98zxV0aBUTbpQfLQ04ZmqZ2er1WkXF5VJlTRVWdNdPvrdAXyDwKFbqAl4/W10EW3fIm1lFHSHLTblGBSTpdR8v1avuKLtgoH84sjlmuaq63P5B7v4yq8Cwc/s/y5onVpvHM/Jut5p5oRRmMmIKAJkekxw/h+g4BdQDsr84NqhIFNtxKfXzLEqj5OZ7b7T2V9dc/DJ+vVotv2w+IK0H3vSv8en8WA7q65m6Brce+DiS4xTd9ZPvLdAXCDyK1LU36Yv+AXkxy6rq0OU+anRdsNUPyE67mZuuVnbP/5ftX1jzS07VtTJR/3C0ftInzSCqrplk/TC37s+nOYHzY3chFGYyld0xKcznUEAXVAE1C0UbIJboeRal+LXUbi7lPj6d6nfk+cDfiC/kzY36d+SfQ15TSAW8fvK9BfoEgUcxmrJI7pmgrn87A+4qBclyub5tltQHLrebBPRVjU1Bjp+phbogCjOZyvKYFN153MfnYckotuNS6udZhEomyCrk9ZPvLdAnSC4vOiaBUbJNDM92OZOArmtHQhMlzft2/1rWWLUoo+TauTfL7Nn2D5Omq+KbPHfFMkzCtNoQ3ygVann7vV2q1Hpuus9qL+ysR1eBv/vOm/LmR/530sITA51tUm+z8xmfWh21voXe9ekkyp1vbZOPL9fJjJXy7qZ/djVf8+7j8SnzZM6NN8oEs3C32tadv1b7nuaDsLdZkt47XJUKMOtvVMc/fmC6pHXnDnl7u/fOZO5cn/lbYiWX6nbe1vFX+/SmOndS5vmsOPPtVOfi0jp17HTBLp3kcyr5XMvk/HTJ4TyzBZ8vx68JPg+rrPNkkmtfu9Ry6lzR51lhPrwkOZ7XWX3f3XI7LjnL6vPrx/NMyeV7m3J9qFL7cK9rH9S+vpjBdSa9TI9N0nFR++SX6C1ZdGySz/Us++tnbudn339vgYHrotj4b6820/3i66/PmqmEYcMuk9OnT5lnF5gpd8kPp6mL32v/l+zO5sZLtstVTZE5tWNlSOsOeeHfQq6cVbPk9hvHytcH3pKWr2fJ3/zHe2Xa2EoZYv6sDamYLOMuOiAtbX8yc/4kX196rUwfO0S6D74vbT1mtof6If/f7pWJQ3QS/Eue1+gfov/1h/+LTKsY4lmPDKmUMZOul2s860oYf8NfysSKLjn4dvI69Y/q/0uuU780rc3PyH9/L6lAogMgvV9J6xtSMVYm1l4rVf/TWPWjeET2vvKxJA7tt+X6/2WyCpoOSHfd/ybzp6nXuBYeorZVL3tR4P7b7G1Ofu8gej+Wym3qcx7iPTBSMXayTP9OmbR+8EcJWV2GzL51f0uqvj9HHTezMrVPQy4dJdereRNd88ZcekLe9pxDWW6nPhfVj7rnpUFUQesdzz4626rmH/22/K8ZnZ+2XM+z8PNllFxSrs8FVSh5PukzVet7cP509TfPUonz7OQR+eRLn/XlKpfzOqfvu5HrcclR1p9fP51n+Xxv3deHb6lC9oP1td7zR10/D2Z07Ugj42Oj1rcjsb6q79xsXeeTde/9H/KW33fHI//rWVbXz1L53gIDHDUeRUVdiPuq+1x1MdV3qvzv/rs4r9OfU0Wl9cP74q/flI879TL67tFPrOZdui2wp9Yi3fsH/d3M17x3EEdJ1dyb5Uez9d9UsJJyhyv5jqShf2x0rYq+i9b8vDzvdxfUqvlR1PF78deJO1jWnTi1LdadseRjG39fzX7vt9V7W3+37kqq99R/TD4uHmbdoa9xONtp7gZ+oo6LszG6y0u1Pl2bU5C7ye59U9v2S/0ZuD6XlHme7c93O83ymZ7LZlt1cmni/HTuAKc/P7XszjNn/5Rszpf4+Zl8Hqr1TbnZLOe3vlzluJ3muGT9fc/5uOQo58/P0UfnWfy45PJ9MOeMrsV+p1J+pD8Xva9vOe+h1jtF5OPQmrlcZHls3Mznkv46lM9xcZj3SDnmfpz1KVmdn339vQUGPnI8ikjhu88N5nRJ2N0V/qPlvK5CVzGrIGHNRv1j6yzzhXz81jtidWKS7Msua37FyMvt5x7qYn6jKhioi3yTJyhRPw6mMKF/cLxJjapQv73RJMRXysRrRtmzHX6J5a6gQ/8wpAYdus9582Okf7zUD47zY6TpJMp/aT5gP0lKOHTaQFs/VDqR0gk6tM4P5flfm+MS1qWkSWbMpE2xvZ2qsKP3QzdBcG+MWt+bZn0VlUnHJRemrbO1b85nYD5PzzzDvf15b2eWCZ7O5+A9P+2/BZ+fuZ9nmZwv9nEK2H5VYNUBaoJan17uiWesY1aowkvO53WO3/e8j0tW8rhOOPrkPMv3+2ASp2WSKuDqJkDP2PvqXm/Bgw4ljyRr+/xJnweT93VCy/r6qRT59xa4EBB4FAtVSC5497mBnP7K0/d9bidU6h/48JqRlIu/062iT8G7au599t2sd7yBkh1AqfdSP+xBd7k6P7F/IFICmqTEQH0Xa5Ur6PA9NurYzbZWaBemwyQnLzqJpoHBXueXvgURD2eb0wR/uqA1yfrVnCT3LPEZd0U/nBqKAnAKn57Px2yre15q8FqA7XTWk1XCr3q9LoBmeH7mfJ5leL5Yn2lKYegL6bLe8EapXzhVqlKiUVWI9D2RcpD3ea2PZxbf97yOS/byuk44+uA8y/v74AQAKtjpbrZvbvSJpGtp5pzuidN1R1ug61mm189S+d4CFwgCjyIRSfe5gZwuCNP1fe6Mi6EDFP+Lu3MnMPXi71ywK2WkPcOYKnOsQOnXKYUGpzB/8JPsf2DdhWAr4dDcEQ37EYxve0h/8/538AozXsi1k/U2ZjDwVYbjrxSK8zm499neVu88+3Wu7S/AdvqtJ5j7/LRmpPA7P3M9zzI/X7zrc3y85Rl5sbVLKibcKz+yClx/K/fNVYUZ8/dCyf+8zu77nu9xyVY+1wlHX5xneX8fnIJ1SIAVBefYZH98M+zatkDXs0yvn6XyvQUuFAQexWBK33SfG5dxVXr6AMWvkOo4flw3d5gkk6bYzzW7yrtL3n0rOVDKsDAfcDfO2Y6KG1dbPZPottAv6uYWFTfKHNf63dIXYFwj2Xq2yRyXsPFC0h5js79pg7/Ej6K+2+oeb8XvEXY3NjPO3Uj3Pvt9NuZ1ru3PfzszPAficjk/cz/PMj9fggpDX6hCzD/Lmk2qILNT35GvlAmzVWHGKsiENCnJUt7ndZbf9/yPSzbyu07Y+uI8y//7kHsAkI9sj41Lhl3bFuZ6ZrYzg+tnqXxvgQsFgUe/C8p3SCfX5ZTQH2UX585UusJzwI9UZ5cOPHSlh7k4myrv7p3P59gm1uyz4r0z5RSW1X6p7bES1rd8KB9v3yGtau6EG+fleHcqoMCRQdtiuyYq7EfYee90wV9CQfI30nECJk9QZbbVkz8THFjlvp0+6wmTaXCXdSEq6DxLJ30B1dKpCjLbdftwVbja9Gtp7dYFmfvk5j67hRqwnXl+34NleFwKJt3n17fnWW7fh1yPdb5y/6zsgEJtb5qfFUd+1zNnOzO/fgbLcJ/7/XsLDAwEHv0sKN8hnVyX0zK9kxa/M5W28Bxwwf7oE6vgb7ezVoWBe+1mYTt9AyXTNCuphsTN2WcdbL3tvjPlFAzUPr27yX2X7EN5O02thw5WKn2bgeueakxCYtKPm1N1H0Tnl1g93ITd4TWFvLTBnxIP4CZdGxhAVU0ZVZiqf7+g1G9bfV6X93bGP8fMOJ9DdudnHueZJfvzRQfG9+n24eaZh+6I4B2d6B30vrnK4bzO6/uey3HJRb6fn9In51m+34cMC8OFljbIChav9UmzYEGuZ1lcP22l8r0FBj4Cj34VnO8QLtfltMzvpPk1H/BwLv6BbWe/NHkel6sfkpvtQKm5MfAu48f77Z52Jsz/W7lP/fDE6e4VF9qDO1nBRXJCt1MI9qlJ6Qyp9bCbgun1LZJrXX/Ug0Xdt9R0j6kk/7jZx0Xt1uyfyN942vrqH7FEfknYvjr0j2983XowNPd+O0wApwOoHy2d591W59jM/0lIcJU5p/DpvlOc6byCbeeEOrnZdRzsZdX7meeOXM/PXM+zXM8XKxlatw9faq/Ptai1zvvM3flCye+8zv545rq+XOV8nUgW8XmW1/chjwAgH+mDrCDO78okme1qflQ1Zapnvy0FvJ5lcv0sle8tcKFgHI9+ZCVBZzlqtZbdcqNMP+TmaZDudwL6Lz+QNIJvgr0d4SMRX7twtbqwd0l3tw4OkteRyn69eZJC12ik7nO67XD+bjXB8tS2qB8Pp2/3ZLqf/gOVck/KcTbHRQ6oH089kq2Z7ZHc57ufgHWnfA6G7qXLSZj34R3LIHfO5+XeZ3ue+zwIOTfy2s7wc9X7+eZ3fuZynuV2vticbQmkjovucSffz8+Wx3md0/HM/bjkKrfPz9F351nO3wezXOo1K1p+3/9MBZ3jBT0ucdlcP0vlewtcGKjx6C9VfdV9rqmyTyflzlr6qv60dwIV++6kzr1QP2bp7kAqH29ZLb/UfapbzSkMtQ2tO9UF/gn/H8N02+HUelTMvjnpbuaH8vymX8u7ra7gV6+r+Rn149Vo9lu9r2ed9nHpPvCmPL/R7u0ksalquvUdu2/6tF1f6nW/I62u/exWP4LvvhNQe/RRo2lX7A3U7fWtThrLIFd+tWFmnuc8CDk38trOL+RNdUw9n4eij4te1lt4ye/8zOU8y+18sXVu18mp9rKeVTrLF7Twkvt5ndvxzP245Cq3z8/Rd+dZrt8H3xrFyOWXV9K5/Xnrephgfx6+zd3yvp5lc/0sle8tcGGgxqOfpN5FzkyuywEAAAD9iRqP/jClj7vPBQAAAPoZgUefG9X33ecCAAAA/YzAo4/1R/e5AAAAQH8jxwMAAABA5KjxAAAAABA5Ag8AAAAAkSPwAAAAABA5Ag8AAAAAkSPwAAAAABA5Ag8AAAAAkSPwAAAAABA5Ag8AAAAAkSPwAAAMHONmybon75A68zRZbMFiWffgBPMMANCXGLkcQBG6XBb/8AGZP1ykveU3snzXv5n52XDe44Q0/z+bZHPqpaaIVcriJxfK/GrzNEn7y1tk+Va/Hcp1uQFi9h2ybsl4qek4JBueeUV2HDbzXXTgsfZOdWLt3SaLftZq5qIwKqVuwQypn64+g/g5qD6L+9VnYZ4BuLARePSz2OxZsuCu8VJbrX4ILSel5eUW2bq1VQp5BOoebJCGaeZJoJPS/Nhm2Rz/sZ4gK56bJ7VqKqjA4vyIJ/6eKPi0bNogT+20X5fKeV3yOm3ZHhdn/wLXqQokjapAEvojqO+UPj5datRkugJa8PE8Ke0dp6Tpmd2q0OO3fPh+B4pvf7gBU7CsvEnW/ftZ1mch8qls+G+/zqHgQuCRLPT8CDzH7HN69292y+adRXwQ49/f9AXd1OsW3Mrqn5aK29vl9NKn5ZyZlwn/6yKBB4AEmlr1o7oH1Y/fkumuwrU2XGrvnCdrQ5oK9IeaO2dkuD1d8rs9J62p6ppK639f466SGbpw1HFIfpdU+C74cdEFEqtApQv7wT+AsRvGm4Ku2t/pV0nMTGdnuNRUj5eGxxfKugUh+49wXftlt30aSXvLQQot/co+p+cvWSiN+vs3zswuKirg+okOOsK/4462rZtlw159XbtNFhfl/vSnmAy+Tl2cO49Jr5mTmUoZPcqeatm0RRbdv8E8CDoAJBB49BN9x61hmi5Y6zv5W2Slc5F+bJu0dKjZuvD65KwcC7+pdvzM+RHQjy3SrNdh/Ui754fdgR8v9RkWpNvePyTt6v/QwvsVqjCj///ihKcGo/DHZYKsMLUYLZvC9q9S/mK6Wm/HHml+WZV41Xr+IoMCia5hSRw/vZ1bZINeXomkUKO2L35MfB4D5+7tl7L5V/+nLPpv/2eOzaxKXZdsfsT92arz3/wlXK7LZcgKqovrpogWW3CbVcvT/vJrGdci7viZPjbDZf5PCnedHRjGyEVV6r+sAw9DXaO2FnPNGIB+ReDRLybIAt3GWNGF4adUYTFe+D7cKk89YgoL1dNlwWxrbv/ae8janoxrPQ5/JrtNkBBUeK+73m7S0fKBu411oY+LbnaSaCoW3OxLMTUw7Xs+k81W4DRcZtyQQ43F4S7ZsfU1E9gBpcp1U8IJ+uNU8FFUydnmuqEKvOuzCrxbZat1k6FIrrPFYuYNMlj9d27P2/ZzACggAo/+MPtKqzBs3xmy5iRRhexNh6yp2uuL4Qf+D/YPdMa1Hk5zq6DC+wSZabUDPiTvufc/m+NyV/q7lHUPmrbue7elrwkwNTAd7ep1h0+ILmfl3tyqtMVmLZHG//f/LitCTz2dP/G/q9fd6xuMxibcJCusvzuPJbLuL78TcDyd9/J/rJt1uXldkMvV+u6Vda73WPeXN0ld5Zdy7JR5ScFVSkwnMj+5WBqfa4g/dG9Ki2cHfUd04m22yxQBK+h3akmNaVf6f+7WMUnsW+Nzdg9SsbCav3HquDyoXuc6Jr6PoGDHXDf0TYNs8+Kc2tlsrrNlY+bIJUufloqNv5Iq86hYukjKzN99jYnJ4KRlqlY/LJfMDLrCxOSS1eo1S+fEnw+ufzhpnXMC11k2c5EMW/10Yl0b1brVNg4eY17gMcf72vutq7AMvt9Z1v142ApK/HXJsS/MJAAEyCrwKC8vl6lTpgQ+9N+RXqzmMuv/0B/Kz09aP4hBP/B9atQIka0tWdV6hDa3cgKMvX/wtP11akEyOi7Vw2WsNcOf3WRLTeimSRn0XGOv2wmEWuW9veq/DJtbeViFKNPsY29L5snjRaTts1ZTGLspOPCacKPpceqdpPbbdhCx9rZZUmtXXhkjpGb8XbJWBSCLC1rGthPI1952tdS41lczfpY0/PslUm9/1QpL5ww9t1DW6t6TPHlIar3qnNG5EFZh28yzAg5VsG5UyzTcGb5M8eqSzb+xg37beJnpqSWYICtUwGEfEzPLogL6afNk7eOLZYVfcGUlhKvjMs00vcyB/d09Kbvfz6F5j1M7m9F11gQPq5ZK+dRqT6G/bOo9Kih4Wi7xKdiXzVQBw6o1MixpGamqlfL710hFvc+3bMwsGVQl0ttxVE0vUu+tlr+9NmmdS2WY37J6ffffI4Or3B+EWrfaxmGrnpZhycHOmNFS5nltiEyaX6W5NgO4sGUVePT09Fj/T5nynZSH5vwd4caaEpJ1dz2IuesucpmMLnSeQE5Ms4RMaz2c7ff5EXICL28zq0RiYvhxMQWFsOMy+w67u0wtKYfEn6mBcQVCOz7Qhaz0za1qlyTdldWFKLUfzZu2yPIouuqsni5r3etzPVYUqrmIk9g9fIL8RcDu1111tfr3hOz+7Et7hhGbNd8KSPTfWl571srRsB7/z2+kWb+nCkDm//vkWpJEPof7sbLlhPl7sLq/tLvcTV7fSrW+lpMq2PGW8fPn6vksTIc6txPnnT6f02+ILqAX7DOMghP0G4nOI0yTxtCy63D1XUnOeXISwvPhXDdOybGcgnyndjbddVbXQNjBg/p05dxzq6R76Q+l03qsktOvtqgCebWU/yip5sMKAuyAoffDjZ5lutUyWtntf5casNSoYED/f93fqaDlHinrbJHTa1Yl1veh9Sopq05eUG3nHfq2jr2N9uvN+p6zt3Hw/UnrO9ro2q6Ndi9WnS+65rkeqxtzy/sAACPrplYffvSRfPSRN9lTP9fzkQnnh/KkfP65NSPACfnc3bShCLRlVethag1S7oyaJO7kZlZx6Y5LGjVOD1bGtNr0Cd6mBsYTCO38g72vuTS3UsHWfFXI8r3DWxJUIPDBp+p/FSTcYN9U8Ki8Seqtm8yt8jt3jKjmL6sdoSbs7mufanUFJV3/poKLZ03wcbXUp20+lQFnO3zW16bW91R8fYWSWlBu37vNley/RVZuOmTNS84n2tG0RxXadYcJ6vXuDh10/oR5jVYcTSuzNHuGt/te1zGxjoeZrYMPTyK307OdkegJaYvV45RD52dZ830D+RFyhRULnJQj9owcDZcrrjCTPsrq/07KrYRrXSB/WE6/1+YqgLfJuaanpXvNRjn9S3fBfI4MM82Wzj33Q+ne+LZnmV69zKv6Il8tg2q9V5myavsss2oiXlUBxOqn5dxRJ5RV6/vNi+EBQOdu6VHbmKDW955anw5a1jwsfzpqZifTtR/6/xx6tIotuEPqrVrmfD8LAANZTjke7uCDoONCkl2th11rkFSYcgobSc2sCqX2TqcHK1XosbZVFXbqwwtz3mZWjsyaW6X0amUVPnUhU9/hjaBLXd10zLO+xCM0eT5brQftAvH4iSlBZuyqCfYx/uAt1119ZUSFXSg/9G7AmBlOQKMCum9Pzj6gS5Z2fQWWVFC2codUYdhds9G28xX/mq7Du2T5/ZvlqfdFxt5wh6x4crGdC/G43flB3KgR+R+XPuY0kbQdkg2uY6KPR5MriAj+PukbDs6H2CVH2hMRY9S5Vm3t6RKB5kj57fqDb5HTYXf8j76tggMzrZTV11v5EL0qcDj9nj0vWW/Lbuv9kmsuyqrtE82qWWnyfMs8rKZYHirA6FT/Vd0jw3QOSErTLxW0BAUdmqlpyTix3Gp2qGtcF8pa3Yyw45A0P7PLe10AAJeck8t1sLHt9TcIOrLmJOCF32GL38krMlnVephaA3f7aWesDG8zK7d0xyU9pwerNqd3qdAmLE6i+3hpSGq6ZA+ElW3vVrrwqQqZj+ngI8PjVJT+TbZaTZ2ulpmeuO1y+Ytv61qNT+W9pI8wpgIBrf3Ecet/Xye67Tvgwyvybgee0foKyekC2gg+h32Ms3MgdKCh8zz0GDXeXIhSlWgiafG52+3cgEgRb06qDZf5j+tEezsgizeV1DJqLhkhpxbgw/ezGkzPDh465HxLtlsfkzJdu6Kunuc9tRYJZbUz7OZbHal/P7dRN8XqsHJAKlbphPCnZVh9cCK62+DpdjOtb9xt6rKgFztmTwKAr5wDD62z09u+G5lx7uaFD7A3QuxySa5tl6PirfUIv1voNLdKtJ+281v8mlMlekTJaODBoOPi6cEqkRAb2AuWk+geIqc7rpnkohQ53yTzwKRyBNNjyaTLgSh+7gE2tdBcrIw415IEnXjvDchOSnNTFgFeDpycs0CmFiC1diGMEzy0S28GNQze904/joYT1PgHCG0q+HhYOtckck8G366CECsACbuSZbjNblZNnq5xtccvsgZPZVwUACHyCjyQG6ewHlagjf/IR9QkKR/xWo8MCuTeJG1Tu+AzWrnm3BnN6LgEtCNOuQu9c7dd6xHQV7/TI453IEXnYboQTdPcasDqekuarI8vkWQelFTuVjNipJny4TSPOtldsHbgoesrpKTk6kzzMWILaj3BbfvL22TDY4nBMd35DMUrMcaOzWmamNSFqk9nEt6mWF7WtSRR7eGlm+08Fjbop2Zy4XzWm508c8ty4iSCJ9VcmHE0ggOPDAOEoyb3RCeFr9ko5zp1AOKTyB5nAp4sa3ZsevwiezR4erUCEIbAoz84TZACB65yDaSXTXOOPuMaeOt6MyuI2VcrmEjX3342x+U3mbYjdtV6LEkecTk8ENLLho9HEiJdzUyJ2PGZnWQ+4yqdDP4dmWnFaUlJ5YZTQyLjvxfQZe7lsvh6Hbioc+CP+/NuPpNYX2oeiqVypG4dVTjxWixj2ryUbnOtcSyeWxzcoYE615q2tsqOw3pwTP36WXZCbpasJnzxdaj3yTAwzmW5mNVMLCkXJaUHOIc9uKBzTPTx8Oyf57vm6g1L5y7pYMx56KDskVcy6I7aCXxyrVl0OrsI+Z622wFA2e0/CB7DYkxyUyaTa6GO2qCZ1owU7oT1HlcOiJNYHpxnEVQjMsfO6zDPPI6+Ladf0VfXarnIXW3l5jQpA4AIEXj0i0QTg9oli2XFAlUAsJ4p7h/5wIH0+p9T61E7Lfhups1J0h6ughTdpCGsv33XAIGFPC47XzF3lZOS4jMYeCx0PBJfujCpCp+my9X2l3eXdpOk1nesnqF0MnjdhInW8UpJKnc4NSRWl7lLZMUEV89Vld+xxtuwu779VJp2FaCZptPtr1wtDT+8V+pcH601oOC/v8s+XwomeSwLdVz0GBXxvCAztofOV3B1aOBpjqibonhen2l3sk6zRYd6n8cT77MsMDDOdTk750K/bm1KMzE7gTzOqVV0uI6JfTwcJ72Jx+5k/erpaj3qeDgPs7w9AOEsV7CUylurmqVMOrs4ukvOmyBi2OqHZfAY15XADAxYtSp1TI1ze6zbKDL4/qSxM5wBCK2E9Q7p8fSEla4ZlWJqRHr37fIup5PZdV7Hant9niBCrXOYqV1Ja2q9Z2BDe8DERSEDBwJA5r518y3z/mym+8WJ7tRC6NixMTlyJN/7ocVPDyqmB87y1aF+3B95pWCF1roHnWTpMLrJkbtpgyrsP6cKHfpu5COpNQx6kD4nCVQndAeNDu5+nXVn0+e93HI5Ls7+6V6mfHt3io+/oJa/314+7TIWcwySjk1Gx9N3X/VdXjOieqjEdlpUMNPo7iY4yN5tAd2O5k6PZL7W6iZX+1Q2/Ldfh5yX9oB+doDhx+76NpNeqJz1trc8K8uDApXKm1SAMcu/8H7yU2k5dbXUjs98nZnQgeUyT4E6le5Sd328d6ewz/yktKjAoNY530O/H8656KMQy2Vyjunv3zPqvEypHTA3BgLPa7Wfm15T3zP3hxCyXT6Cv6fmfTK4tiRzrk3h1wBFD+Knx9MwT5P1fviinN6Y2uPV4KW/kmFTzZMUKuhI6drWHi+kvKpFTqvgxK/JU1m9HbToLnqTe8ty/hZIjyXi6dbXzVm3eZrEb31e5jyX7D8HABcOajz60Y6fbbb7ufe0cT5pjw1QwKAjKk6tRzpOrYEWOiq5YR+XPdLSYdcK2cwYCLkel8O7TLeedlMQXVixe7MKGk/E4dwxzvyOarsqnOkBBBcNkB/ftl3vxj/n9Enl9mCAK1/bJS3uj08FHO2HfiMr/1vhAgBL11uyXA9OeMg92OAJaWlR6/rVr2XrifSDEGbL6jL3MZ1M6/fd3SMbHtuQ0s3u5kf02BTe89n6nqtg9qkm91gXYVrlqce2SbPnffT5pr4be8L2M9flEhLntF/Qoal1PGLG7fC7nun99AQdmt4uu/e3TATn1CSafi7Lqvtq03RTBSxpa1CtQfbs3qI8hfbOFunRXd76BB3auY0/tAfus2pMjM4OOfeqHkzQbzyN/BLLe5t0UvlG6Unazl69Tms7g4IOrU3+tHqVtaxbrzV4YbqgAwAyQ41HkYjXCkRwxxoAik68FjK5ptVRKYsfXCjznZrF0GujU6sU9F6p7FrLzF+PdKjxAJAeNR5FIl57kJKwCgADT129k9+iaxOTr3k6V+oqmeFqztjeHlY70yWbn7EH7pz/eHInEqn0jR7dVLL95dcIOgrN6hwkh3wbABcEajyKiU5KTmk7nrgj58mVSCspRwAAikhmeWeODK9nzjU0JEeO2uXo+P9G8VsEIIEaj2JitR1PbYsNAAPNjqYM8zt0EPFYhgVX6xpq3jekJyydd0LQUXhtWzfLypTcJwBIoMYDANA/xlVK3Q0zpH76+JQRy9v3HpLdH3wmm1OS0gEApYrAAwAAAEDkaGoFAAAAIHIEHv1A1+gAAAAAFxICDwAAAACRI/AAAAAAEDkCDwAAAACRI/AAAAAAEDkCDwAAAACRI/AASt24WbLuyTukzjxNFluwWNY9OME8AwAA6B8MINgPGCCxWFTK4icXyvzqk9L82GbZfNjMLiWz75B1S8ZLTcch2fDMK7LDZx904LH2zuEie7fJop+1mrkYsCrKZd0PhkiNeRp36qys3NIjgVeeXJfzVSaLFw6X+ZeJtO87I8vfP2/mD0TOvn4jzS+ckM3dZjYAIAU1HigiOhBokMbnkh+LrTv6i2dXmtfBoms6dNAhKuh4xD/o0Nq2bpaVL58UmTZP1i3gGOZHFzJHSuNfq8fCcomPyHP1UHueeqy42swLELu6XFYsHBF/vX6s+3651FWYFwwEFYNkhgo6tJrrBgXWxqHQ8j8/ASBKBB4oAcOlpnq8zF+yUBqfnJX4Mb2gqSDtJ9NV0KFra1TQYeYG0cHHhr2qEHjnbbJ4nJnZH0ZPkBUP5PAZ5rpclE71+tQCfCOfnzCTKVSh8PsjZO3cIVJ72UVmnq0mNkQafjCiMIXC7h5Z/vPjsij+OCMt5k+hcl3OT/d52X3Knmzfdz7t+YkIZH1+AkD0CDxQhA7Jhvs3yCLn8dgW2fDyIWnXf6qeLmsJPiS24DaZX60KdS+/lnETsR0/26YKksNl/k/65/jFau+Qdf9xntSONDMylOtyxcU0x4npgOMbadl+UlbGC/gnZYMqnLfLRVI7fpD98pLXK5u32Ps3sJtZAQCyQeCB4ne4S3ZsfUWWP7YnHnwsmG395QI1QRbonI2OPbJ+a2qOVLBW2aqbXPX18Rs9QRb/fYOsXTxear48JM3/967M8gVyXS5SvXLM3Mn3OPGNfW4GuXqIle8gcl42vHBCnvrUfTe6V3a8f0aWv3BSFv2WQjrykeP56TZulqwwTV5pmgmg0Egu7wcXTnJ5pcRmz5Bld6mCY7U9p33vHmlq2iVHbtAJz5KU1O0ke+saD//mQ/FEaVXoXvmIT0F0nCqs1tfKjGnD40my7R2HpMk38dqbXP47XaD/Sa3UVqv31zpOSstvXpOndiadozq34vHpUhO0DUnv61cjEZt9h+e4+Gl/eYss9wss1LKNS8YH/z2Ms+19lGiuayuW6cBBTbf/2zZZ/2xrRsFDrsv1hbrvj5SGmNqufSdl+fu99sx4YrYKLH5+JuncdZKPRVq2H1dBh5mdjYpBsri2XGbELkqc16fOy+69Z2WzCmLCDZIVfz1UarNOEs90ucT++fEcJw+znDjvX6aO7VCpd+9j21lZ/9vgdceuHirLpg2SmoB1a8Hrz1aZWt8Qz/r09jW19IiujmuIBSeX67yeBdN0EzszQ1Qg0Naj9u186OeRy/5lf3561T3YIA3TzBOrKWeJdrwBoChR44GI2IXvtTr52VW4rpk2XRoeXyzLppsZWWp732lyNVzGWnMSdFDS+Pg8me8KOjSdH9LwePjduyvqVUCjlo0HHZqartV5JQXuirbuQbWupOOSjbrrx6t/T8ru97MMOrTDn8nuDvX/tCujTfh111bowstmFSRlEjzkulwfOnLqG+v/jpOuwmx3r+jDKupvR6wZLvFE6/PyXtZBh50X0viDoVYzLc95fdkgmT93eOknC192kYxVx2iFCkIakvcxNkTWupOkXeqsfJnwQnnh2EFS8vqc3Jz6wG3Qy400eT1mlkXtZ2yorP3rEbI4oFOBXPcv6/MTAPoQgQciUfegvuOvp05Ky6Yt8XyNlY/tkZYOnSzuKuBnwyk4y2Uy2p0kPfsOuyZEr+/lbbLSlSOycpMdrAQnVqsAQwUrujZmw2POcjqv5KT952nzZEWhmiap7WxQ67LuJLqPyybTjMyV3+Jfm1Epo0fp/0/JsZzuQnbJ7/bo/Uo6fgWkayt0Tsb8y8WqrVj5nzbL5pb0QVKuy/W1NneBLu4b+dyviYs2whSm23JIstZNtFRhXNdubNBNsTx5IXYBs3bu0H7uNSqRz+F+rDTbl94gVXgfqgrm30jz9sQ+rtxump1dNkQWJAdXVw+1ghR93L3LnDXfI31n355XiNqOuu87NTp2fk58fS+ckZZT6vMNCA5iN6iA0We5RWq5Zut8uUjmq31P+fzy2L+sz88kO5r0NdqeziaHDAAyQeCBwhs3S+qtqnq7mt7dVKnt8C556pFt8R+23A2XK64wk7p25S5dCyAqyFHr2+q9Q9628xVZroIPvcyMG/xrPaxmSz/b5WqOpfNKTDe0Su31han1iJkSit7Oze7jsnOX2cbxMjM0yBkhV+iAruNknncu3cevgEbPMk2kVACYTW1Frsv1m4DegU6l9iQUG15mpnLw6RlVuFWFyy1nZEe3u0Cp80JOyAZrZWUyutS74tWB1c9PeJqNtal9t/dPVz56j6FzTFu2Jy/TI8utgGWQzCxUTVBFudRbVS52Uyqdn+No6z4vT21R1zm/Qr1abtl1JnhIWk73+rU5vtwgqb+h0PuX+fmZwrpGh938AIDcEXig8K4wTZ32tgTcLTshn5upghh3lcywCuN7ZOtOe1aKnX+wugatmX6VT7ON4GZL8aZdo0b0WU9Q1TXRJnS2tWd46zNPuX7GBT03oqAKxIt0IdnTlt/c9Y8gObzNWU9FmdTpMUC+P0LWmXFAdFt+fdf8ihHWK0qUKpi/7p934DQbykVysJKzeI1VT3aDA6ZdTp0ze+3zpSY2KOvrS+D+9fH5CQDZIPBAwTl39dvbo+ww/qR87pRQnUBHd7WbMvig85gntdaLc+STU5ILp9Bfu+QOqXM3dRo3QVYssWttOtpL+C7jsV2yfrMO1obL/MULZd0DEzIrUOW6XAmIN325rCynfbIHHBwpjT8YLg06V0DnQSSNA3KhcY6p1czMXdujc0Xm2l0Se3Ic8uDUPrRnGQRltJzT25TOc7Fm2Ppy/wCgLxF4oLQ4tRs55zj0s52vWAP56SZVOuE9HhjpxHY9e++24FqbAnECw6i0tbwiy/9pmzR/KVLznXmy9r8slsW16Wtxcl2u6AUULjNy9dBEYvKp89Ky74yV67HS5Hs4TZEuOPFmWDo/xIzUrR86V0TPbjsjW3PpPaxYDPT9A3DBIvBAZGpqCt/+I3aDzgNQ9v4h0TTj85N2wU53EWsSswMfvt3fhnBqU/LOqXCz80bsJFGHSYr/WbrchhPyuc6PybsGxlVjFIVjrbL5P2+QldnWYuS6XDGLj+Kd2pY/nHN32yQYbzkjT71/3sr1aPPke1yo7JoE7/foGys4W5mmm9pc5FrLFLqc0xzLt7epvt0/AOgLBB4ouHheRFCXreNMgnS2xs2SZVbPVSItH7jGoIh3EVsb0GtVOkGJ1omk9fY9nyV+6A+fsLumDCj8O6OK+7J6tdLjl2yQ5Z6gKDUp3l+XHPtC/59rr1SV8hfT9THsmxqjlFqMv79DFo82fwyR63LFqVd+12YXImuuGxrYfao1VsfVPoHJqfPyO3diclyZZHVIcqlx0XJdLkpWr0/qe6QT703vTvbjhBWcFbJQ3vYHPaq8Ehvkfz2ruEiu8KlETCxXHvCZl8niaXazqfa2pG3uw/1LNSExgGCBuxIHAAIPFF68y9vx0vCkN5dBD5y3zmlWlKlxlVK3QC833dR2bJOnPM2RumTzb+xeq+Y/vlhWLJggMU+h3Cz/nNoWMydZ7RI9zofrzroeiNAaBFA/OSRNnt5dTK2D3j/1w5xYRgUqeowOExz5sZs5qUAnoHetTOz4ILyHrlBOUzV3jVHU3LUYl4+X+f9hVmY1GLkuV4Ta3nd3nzpCVtzgTibWA9MNlXV6rI65PoHJZUNkmd/r9eB7GR0QpytVXePieh8V6HjyB1Lkulz07PwJVeC/MpsapBy5aqwaFnpzLpzPzfd61t0jTVaEYD5zd1Cpg8z4oIvnpSmpS9w+3b8ksQV6EFV7uibnmzkA4I+Ry/vBBTFyuTNCtnnq0XFIWr4YL7XT7O52U0cuN0996LE21v/Mv7lUfFTzIGq9zc+84rO+k9JujS1iZnskb6NhRg/3o7vmbapZKA0p+6eEHRdDj7S++ze7Pd3tek2QFTpZPnDk9GDOMWrZtCEpeOsjo9W2f3+EbH02yyZvuS5XVMxI3YEpNnqsB93tqnmqxG4YIWutLll96C5o1cFouG6QWi58RPTA92k7E9rTUa7Lac6yaUcu1+N3BI34HfQe8ZG4g2U+snsGwtanc29ODZJa35HL03/mvvve1/vnknwdtboap1tdAAVCjQeicXiXLH9smzTvNYPwWUwewyO75XNrELxM6cDgkGx4zB5rI6jg2bZ1sywy6/S0i+5w1usOOlzUe69/RA/id0itx8xT7AEFfYIObecrKa/X76MHINQ/0kfa3fvtcvgzafIck1R6pPX5SxaGDFrYKlv1+CLV02VZyGjsqSbIAl2gCOt2OGrHWuWpXIKHXJcrKnaXpnoQuBZPT0ffSHvbWdlgjfVgZhlt759Qrz+vCplmhqYKnE7Ox47wUynOep99pumPQ7/PoZAel5Rcl4tc93lpMs3XghR0ZPfuHlmuB/3zrNPkW6jPYWtgz1Xuz9zMsujPXC2b0u2t0df759K2taUA4ywBgD9qPPrBBVHjESpR0+BbmzBgmf2WsJqKSmvUd50HEn6nMftjWPdgg38tDFBSTC2CnFWF/p6A71GZNdq4zpMIrnEpVkWyf6ZWlxoPAIVEjQfQV0x+hSdRPUVIbYlHl2x+Zo9YPT89Hpy74tDNJ+xg5jWCDpS2ikEy4zJ1LicnZHv05jX4YL8qkv2z89GCB1cFgFwQeAB9rObO22TF7MqUROmYTmiPJ6cnJ7T70M3ZdHMvJ4nfzE4Wb7O9dxt3LjFg6B7CdMJ2yvdIJ25/38lNSU3cLhX9un9OD4J7W7hRAaCgaGrVD2hqdaE2tXKaO5knQVKS4NPQCes/GS5NapkdPsvowGNZTYss/5mrC2KghNV9f6TVzCiUzkV5/Yx/DkWR67/9q1TXixkq6BgvNTpn7RF1TTF/AYBCIPDoBwQeF27gocVmz5IFd42X6mozOKHh9Gb1u51dIU0sAGixq8tlwbRBUn2ZGYTPcHp70mOflPL3qH/2z+4xr3rvNlmfdjBTAMgegUc/IPAAAADAhYYcDwAAAACRI/AAAAAAEDkCj35AMysAAABcaAg8AAAAAESOwAMAAABA5Ag8AAAAAESOwAMAAABA5Ag8AAAAAESOAQT7Sd2DDdIwzTyRk9LecUqannlFdlxgo3gDAADgwkCNR1EYLjXV46Xh8TukzswBAAAABhJqPIrBuAmy+CfzZH71SWl+bLNsptYDAAAAAww1HsXgcKv8bs9J8wQAAAAYeAg8ikRb+ykzBQAAAAw8BB5FIlZzmZkCAAAABh4Cj6JySo6R3wEAAIABiMADAAAAQOQIPIrKeGl4cpbUjTNPAQAAgAHiotj4b6820/3i66/PmqmEYcMuk9OnL6xk61OffCFfjquR0Vd/W26ZO0Puq58h3/t3h+TVT1KPDwAAAFBqqPEoMjXmfwAAAGAgIfAoFrNnSMO04SIdh2TDY1tk0f0bZPnW1MEVAQAAgFJE4FEk7O50T0rzM6/IjsMEHAAAABhYCDyKCt3pAgAAYGAi8Cgql8loerQCAADAAETgAQAAACByBB5Foq39wuo+GAAAABcWAo8iYSeXAwAAAAMTgUcxGDdBFtw53DwBAAAABp5v3XzLvD+b6X5xoju169ixY2Ny5EibeTYw1T3YIA3TzBNHxx5Z+cguGdh7DgAAgAsRNR5F4aS0790jG54h6AAAAMDARI0HAAAAgMhR4wEAAAAgcgQeAAAAACJH4AEAAAAgckUZeJDfAQAAAAws1HgAAAAAiByBBwAAAIDIEXgAAAAAiByBBwAAAIDIEXgAAAAAiByBBwAAAIDIEXgAAAAAiByBBwAAAIDIEXgAAAAAiByBBwAAAIDIEXgAAAAAiByBBwAAAIDIEXgAAAAAiByBBwAAAIDIEXgAAAAAiByBBwAAAIDIEXgAAAAAiByBBwAAAIDIEXgAAAAAiByBBwAAAIDIEXgAAAAAiByBBwAAAIDIEXgAAAAAiByBBwAAAIDIEXgAAAAAiByBBwAAAIDIEXgAAAAAiByBBwAAAIDIEXgAAAAAiByBBwAAAIDIEXgAAAAAiByBBwAAAIDIEXgAAAAAiByBBwAAAIDIEXgAAAAAiByBBwAAAIDIfevmW+b92Uz3ixPdXWYqKjG5ZPUaKa8S6X11o3Q3vW3ml6Axi6Ri1T1SZp7Gdb4o3asbpdc8BQAAAIrNwK/xGDNLBqmgQyu7/QYZbE8CAAAA6EMDP/A4ukvOd9qTva++L+fsydJ0tFG6l/5QOuOPjaW9PwAAALhgXAA5Hm3yp9V2Qb2km1kBAAAAJYzkcmRu3CxZ8WSDND7XIOsWVJqZAAAAQHpFnlwek8H1P5Dy62qlzORpiHRI74dNcvo3b0vvUTMrLpFI7qf31VXS3dRmnvkrm/mwDLvDvb5Uifcx6xMnuVtt79K/k/Kp1fEE8N4PX5TTG0MSv8fMkUvuqpdB7mU6W+T8Ky/In94L31aROTJs41IZnHFyebbH06vuwQZpmGaeyElpfmyzbD5sngIAAAAhirjGQxWqVaF+2O3JQYAqoE9dKhWrnpZh9TEzrzAGL31aKu4PDzp8VY2WMhVAWNvrCiC0sqn3SMXqRak9UemgRa2vatVST6CilVXVSvn96r1mmhkF0ffHEwAAAHAUbY1HWb0KAm6vFulskdO/fFrOxe/Gx6Rs5g+sWgnZl74GQ3PeK7TGY+bDUqWCDl0D0PPcf43XNpTNXCTD7tdd2KrtUIGCN5k7uYYledmHrUBGO/fcD+X0e9akzaxP1270/PIFtX/Odulaib9TAYLad991umVe41GQ46mbWv1kutSqt2l/eYss3xp1V8gAAAAYKIo+x6N3ny6UmyeWNul972lV0NbJ4iGF5CyVVddY/5977mFPE6fe9xql+7kWNVUrg8JqIHSBfmnysk/L6Q/t6bLqpNoEvQ9r1D6s1kGAez/a5FzTw2a5GikbY80smLyO5+Fd8tQjG2TR/RsIOgAAAJCVog08elt2W3fwy27/OxlWP6fgBfBcpAQPcR3So2sRzDO33o4OM5UqnlMxJiaDdc2KbuqlApGqjb+SYVP1H6rlIjseylsxHk8AAABcOIq3xkOPWbHmRTnXWS2Db9c5CL+yCuRVqmAeRcG5t6Pd+n/w/Q/LYPd769wN01yqt6NwNSya1YxrtdqnVWus5lyDda5HlW5iFYE+Pp4AAACAW3E3tVKF5dN6DI41q+T0qy2q0Nwhvapg7hScK5aqArN5ad7izaJqZZhTKNePVUvt0c4/3Cg97hyNfFn5HyrY0PkhnWrfXt0op9V+dquHHnPEaaJVUH15PAEAAACXos/xsBzVeQ8qMFj9sD1y95qNqtAsVm9Mhe2JyW4W5U3S7rCCgu6Nb2fQXW2mnFoUnYyuAo3Vat+a3rZyPXo9+R4R6bPjCQAAANiKNvAomxly9/3o23L6FZ3wrV5XXaA2Qnr8jqkiPTrhWxfG44+HraCgcEGHS+duOec7Vkcsu5oH3Z2vmQxSkOPJAIIAAADIUXEGHmN0F7ZLpWLj03bznzHeu/DWmBnxvAtPF005s3u1qpaLavvwjn/VPXZ+hXlqd237sFToLnqt5PJ0jso3nfr/Wil3v486Pt48lcIcz7p6uytdrebO22TxOHsaAAAASKd4x/GYuUjK7zA5EEEyHLE7o3E8VOG8YpUeryNY6ojizjgeHdKz5mH5k0+ZPWjd8XE1/OiuefeJNdhfyvgfSQLf58ON0rnxbfOkMMeTkcsBAACQq6JtaqXHz9CJ0N3P6Z6YvF3SWoPuPacK8hkEHRk7ukt6Pgzu+lYr5IjivU0PW+OD9Fo1FobZL53zcS58U+Ks93lVvY95btHvs8cbBRXieO5o2iMtZtH2l18j6AAAAEDGirbGo2+ZmgsJu+Mfk8FLVdAxVRXUw2pOAAAAAKQojV6tojZmlgyqUgHFvl0hd/zbQgcDBAAAABCMwMPFGtV7ZmqPUjr5+hI9qriVS9EiPdR2AAAAAFmhqZUxeOmvrGZUoXQuxC+f9k0iBwAAABCMwMPF7vlphpRVVXtqPZzerPSYGwVLZgcAAAAuIAQeAAAAACJHjgcAAACAyBF4AAAAAIgcgQcAAACAyBF4AAAAAIgcgQcAAACAyBF4AAAAAIgcgQcAAACAyBF4AAAAAIhc0Q4gWPdggzRMM0/kpLR3nJKmZ16RHYfNLAAAAAAlo0RqPIZLTfV4aXj8DqkzcwAAAACUjqKt8fAYN0EW/2SezK8+Kc2PbZbN1HoAAAAAJaU0ajwOt8rv9pw0TwAAAACUmpJJLm9rP2WmsjBulqx4skEan2uQdQsqzUwAAAAAfa1kAo9YzWVmKnN19dOlttqerrnzNlk8zp4GAAAA0LdKrDvdU3KM/A4AAACg5JRY4JGdHU17pKXDnm5/+TWS0gEAAIB+Uhq9WimxBYtl7Z3DRTr2yIZndjGeBwAAAFBCSibwEKmUugdvk/ppw6XGzGl/eYss35rp8gAAAAD6S8k1tXKCDgAAAAClo3RqPGbfIY1Lxot0HJINz+yWHYep6QAAAABKRYl1p3tSmp95haADAAAAKDEDvDvdCYkBBB+cYOYBAAAA6GslFnhcJqOzGAQwtqA2MYDgtFoGEAQAAAD6yYAex8NruMy4odJMAwAAAOhLJRN4tLWfMlOZa9vaEh9AEAAAAED/KbHk8my1ylOPbJBFmw6Z5wAAAAD6Q2kEHuMmyAI9anmOnB6xdr9Pb1gAAABAfyjawKPuQbs3Kuvx+Dyp1TM7DsnvsurVShk3S5bpoGVvi2zOdlkAAAAABVEiTa1OSvvePbLhmV3SZuakVymxBXfIusenS40edPBnrWY+AAAAgL5WOiOXZ22CrHhunlTv3SbrVdCRecACAAAAoNAGcOABAAAAoFiUTK9WAAAAAEoXgQcAAACAyBF4AAAAAIgcgQcAAACAyBF4AAAAAIgcgQcAAACAyBF4AAAAAIgcgQcAAACAyBF4AAAAAIgcgQcAAACAyBF4AAAAAIgcgQcAAACAyBF4AAAAAIgcgQcAAACAyBF4AAAAAIgcgQcAAACAyBF4AAAAAIgcgQcAAACAyBF4AAAAAIgcgQcAAACAyBF4AAAAAIgcgQcAAACAyBF4AAAAAIgcgQcAAACAiIn8/wHfslJXLz/P5wAAAABJRU5ErkJggg==;" vertex="1" parent="1">
          <mxGeometry x="510" y="470" width="798" height="639" as="geometry" />
        </mxCell>
        <mxCell id="nLBNJSQwYbZqWhq8hHGm-3" value="" style="shape=image;verticalLabelPosition=bottom;labelBackgroundColor=default;verticalAlign=top;aspect=fixed;imageAspect=0;image=data:image/png,iVBORw0KGgoAAAANSUhEUgAABTYAAAKcCAYAAADSCuU+AAAAAXNSR0IArs4c6QAAAARnQU1BAACxjwv8YQUAAAAJcEhZcwAADsMAAA7DAcdvqGQAAP+lSURBVHhe7P1/cFTnmeB9Xx6zL5k4QgjLOJL40YptESATBxps5fGOCEI4BY5HePPC0pP9w9QTp2JtLbYZ45VTqfK4yjvWGkfYVI2civMUrqc2Ky1sNmgcTMUW8FqzfgwWDXEmQCD2qMFIijEghGJP/JQ9fu/7nPt0n9N9Tv9SS+qWvp+qhtOn+/T5fbrPpeu+r+u+0dj0mUywK5cvmSEAAAAAAAAAyN2fmf8BAAAAAAAAoGQQ2AQAAAAAAABQcghsAgAAAAAAACg5BDYBAAAAAAAAlBwCmwAAAAAAAABKDoFNAAAAAAAAACWHwCYAAAAAAACAkkNgEwAAAAAAAEDJIbAJAAAAAAAAoOQQ2AQAAAAAAABQcghsAgAAAAAAACg5BDYBAAAAAAAAlBwCmwAAAAAAAABKDoFNAAAAAAAAACWHwCYAAAAAAACAkkNgEwAAAAAAAEDJIbAJAAAAAAAAoOQQ2AQAAAAAAABQcghsAgAAAAAAACg5BDYBAAAAAAAAlBwCmwAAAAAAAABKDoFNAAAAAAAAACWHwCYAAAAAAACAkkNgEwAAAAAAAEDJIbAJAAAAAAAAoOQQ2AQAAAAAAABQcghsAgAAAAAAACg5BDYxMRbWS/vT66TBPAWAqSq0MSLtD9WZZwAAAACA8XLdNxqbPjPDE+bK5UtmKJO5EvnrLdJcITIY/aVsO3LSjEd+KiXy9CZprlLbc3+PbNt71owfZ3etk/YHaqV6qF86fnxAes+Z8YHY7yg055i6It3/40XpzPYShCml4aEWaVlmnnioa9P96tpknmm5vDeZDmy23aMuYCd6ZPPzE3SdBQAAAIBpqLgzNisXy0p1b6hVhxeNY7afDnr8Z+n661USMmOmpIW3ysoqe7D6nlsmJntSZ2rqoKYOBjyeTVBTYb8DKGGxvZ3Sun9YZFmTtG+sNGMBAAAAAIVW3IHNS6elT90baoPRM2kzZJCFc+9I35A9OLj/3QnYnpUS+f5yqZZh6X4ifYaTB/sdwLjRGZcdstnzSL0+9T6f/J4OO1iZJR3c7Dih/4i0ViILzUgAAAAAQEEVeR+bF6Xzv/9X2fz3/5XmyAVxSToft2/QJ6IZemjjWtPs/TXpzCZTM479DoxZeJ10PVZPNvIk6n2+R6JSIc3fZz8AAAAAwHigeJDlJplnmj6jUOpko+5jbui47NpbrB0ast8xdYVunm2GMHnOyl6d5Vm1XDbeZUYBAAAAAAqmiIoHJQrG+BmM7pZtRy6aZ25mOjkirf/9dYmp5w3rm2VD7RypNu8Y7D8iu17Rr7nU/TtpX3GbVGcT2Or/pWx+ZWyZg3YhCt0Esk9qHlorzcv0jIcl+mKn7HijUiIp46zJvBbWSWRDWFaq98XXbahf+n7ZJ51vJG/TRKEgP4P798g234CjmU6OS+vjR9Q2q1TLvlY2uOd54rjsel6/lsZd66Trgdo083FM7f2eoLbj+pWy4SuzpXpuYuaDF9X+O6j2X9RnG9XUS/sjuim/crJHNu/WWbbmcxp1v6WG+oyOnx2Q3gHzXKtR77tb7belif3mK/65bpUSCq+UrWtyWNZJMVdCdf9Wtq64Ue3POWbcFbXf/x+1308mHZ/OceYUD8ryeHGrXCqRO/4PWemeZvj30nfsf0vnWb9jVCRU/4C0hSVRsMjvM9Rxlrq8YxdaH5G2r/RL6zMZzlVLMR+fItufbRK1GS2Dh9Q15ZXk5VHXrcfUdWuu/cz/Pe7rcA5dY7jYRYGu5ja97mf4SbWdKCQEAAAAAAWXMWPzhhtukK/+xV8EPvTrRaHiRllQuVS2//UWaXEFDbTq2npp8ykQk1Vwq6BmywYdNLQCmFqFhL9VL5GHksY9sC6pYI4OfEak68km632edauqleYHNsn2QmcDVVXIgoV1sl0tb0vyPJctl7an0zetbFhRq/4dlr63xjkIVvT7vVIatqh996zajjrY4woaadVz1f6LbJL2LXVmTICb5kioRu2Px8znmNG2YTnvCRrpgJN6X6agkR89rVrWtkj6ZZ30ZrVmn7et1UFqJ6ipqWOg9lvS9h8fkEhQzZY5uR0vVlB0/QPS9e+/Jc3J01TcJs1rt8j2DLtP00FO389Qj0IENfVxtn190r5R+3CBGQyF69Xxs04iNWaEpRSOz7Ny1PX3heqv3Jq6j2pulZUmqGldd94e5+tOLpy+jZdNUME2AAAAAJhGssrY1AHMv/iLpeZZwj/900n5zT/9k3mWPf+MTX92xtOczJl78fvxK9L9Wnc8gypU9++s4IcWfe2/yg7fhJmlsv0/fkvCw072X+HZmUJ6SBfS6ZTOc+6MytRx0Rc7ElmbTvbjUL/s+3Gf9J5ztl+lNGxcKy26ybdVECNzFpGdcVSROWMznumplu3F1+IZoSG1LG1qWTTPMno4nzGGzKgpst+1hi1q36eePiminWp7Rs0TzZ0Rp/bD4MUKqY4Hb1w8WZdq27sy1zJyT+uZX7CU5ZxwZr/pweHfS7cnY3KuNNT/W9kQvk2GPPt9DMeLeq1LvaazM/e9+r+l95J7Xs3Soo5Tkd9Lx9//r5Rj3TmOo/2/l3Ct+nz1GR1JnxGqvCixAsThQuvXyVYnqHhRHS+ijxd93OgApVlxn+zJkjg+dX+hEfu6Y12TdqrrpWsdrOzURrOOnvl5TUrGpmJPJ+Y6b0YCAAAAAMYsqz42dfBSBzHd8g1qjisdNPj7Fz3NQmNn/5d09NvDVXOyvZseP4lCOpfkzeN2hV33uIE/WKO83jggrU90yLbH1c10PKipXZJeU3lXZ4PWFLry7pAOAKgbcVcz95haFnt+antWB6bEyTwdGB0alvP2iPFV5Pu999XjMijDEj3UI607O2Tzo+axUxcWSQh/NV1WnBM0Up/TuUdanc94VA2/6grieDLXdDBqT/x9Ha5TWDfVtca7A07f8QY1B0+q5XXPp7PfGje5QU0dLPw/TFBTB6T/l2e/68JTvUf+l2z7H7sDgtlKrseLeq31f/xX2abmlQhIanpeL5rpbtStqwPpoKYO0m/2+YxCBDW12CsHZJs6prpPquvKXOd40f9XWAHNbn0sPOMNamolcXxG33UtS4WsvN29sSvl61+JR6wl+pugHT/ZKmTePDMIAAAAACiIrIsHuYObRRnU1BlYr6ZmTGnnr1wxQ5NvaDA1iuEed37QDnYmizlZPgsrpeGuetn+UETan45I10tOJmihb5qHpfvH/llJQcs4OUpgvw8ckW2PdsqOt0UW3L5Otj+m9t1jLdL1SKLfQItuzmsG/fVLx071OdFLruxSNZwUqEoYlgt/cI6tS3L+/cR+S2nOmxRw0llv23af9c4nesAaN7nmyte/pDMk9X5Pk2XrCR665Xe8xIOPlXOloW6VbF//gLT/9QPS9R//s7RYiYRzZJ67RXyy/l8GZB4X2MBZ6dzdKZs7TZRW0wHqZw4E941aCsenLsJzKOB1z7HbL0cnOfDuJzZ41QwBAAAAAAopp6roOpjZc/BQEQY1p76QDmY+3SJdT26SlgeWS1j3e1mVyFJCEbP6HrQDRbr/wXA8my430c7UbLsUA1dEd+dnq5DmR1qk3QSq4k11tQ+ueIOCX1TLZAa14s16cyrZX5aBgDjdeAjpYOZf/2fp+vdbpGVtvYR1P5mevj3TG7zygRmaCJUSWaOjrf3SrYOBS8PydU+/mklK4fhUYm/3y6AZlrm18XUK3e7q0/Pkuzk1EQcAAAAAlLacApva++9PQNYRvKx+LZdL2Gre3S/R/T3S8cQeaVWPzfd3xJuGoxjVyXad+ZZHoCg/3sw2TTdF9gaqhqXb3TwY6Vn9b9ZLWMfdhn8v0egvpeN/7JZW9dj89/813oS9WITWr5XmubofygPS+cpr0n2xQpq/E1Tsq4SOz4F3pC/+9eM0Ry+NZuih6tlmCAAAAABQSDkHNqc0XWHbDBaPOtluFetRN/sv7pHNjx+QHXvPWn1txjz9bRaTK3JBp2Xpyur2iOI2jvs9tD7sac47eKhHOnYm+iB09ytYKLFXohIN+vuD7msxqfCK5Q+62ExC+v4Ui0H6Pi0LZ6lst4oK6WJDdh+ZO46ctPrJjAU2d59ENfWytbFCHWevmX18STqf6ZHo3OWydX3qBiuZ49NySd78ras5+s1zSqIZesKwXLhgBgEAAAAABUFg02OigiV5GOqXN11FfBIqJV0r08nhFEEah4JG42KC9vvFftn3ylnpHdB9EFZKKFwvG7KoRp0bXXXaZOBdPC6tOkjlPHSwSve16Bc08mTDKUubpH1LnSvLTy/vOml/NiKRtAdcnd1lwkst0v7QeARHT8pRK0NyjjTfvSq4z8fKucGv5WP4rLzpKVLkmFtU51/oixV2/6ivuK8VZ2WH7nPz5uR+K5MU8/FpWEFRMyxLb5EGVxcKg4f6irQZeqV8fbnOKr0qA1REBwAAAICCIrBp8QZLGtxBLqtYyIS10wxWtVy2bkwKNN21Ttqf3iTNVvGg4tJ7TG/QCll5R7FGirXx3++x911FQ+bWSsuzLdJlPTZJW8Rbhbwg3Blsc5dL2yNqPs4jPu+ItG+plwZPRO6SdB60NkZc9dIm1zR6eXVfhhVqWwUHLEMbw3aXCUr1srBExiGw3fvWETu7tKJe2v7630nEs5/mSqju30n7v98ibesLGJVT89pav9R1/pn5/PUWabaKBxWHwAJP1vgjqf1Wlszx6TgrR+NZpGp51TFpG5a+t4s0g32hWmd9Tpyg/08AAAAAKDQCm4Y7WNLy7/+zVe3YeljFQv6tNFjvmgxnZe9+u/ll9T1N0vaSuvG3Hpuk7QEdaOqXjv3egFRReONdK7OqenmGLLFJNu77Pdon3YEtlocletLb3+CYeYqzBKmQ6qXLpeWRFtnuboccPSCtna4CLQH069nt03EKbF96Xbb9D2e/3SbNa7ck9tt/3CJta29T58UV6X6rEO2oT8reqF0tvTr8LWlLmc/vpSP6e+v1klRKx6fR+xuf693FfnkzTabnZArdYRc3ih6jX1sAAAAAKDQCmw4rWPJLiQ7bQQzH4PDvpfu1/z2pmTaxvZ3S+mK/DLojAkP98T43ezNFoiaFCchamaZFnLU57vtd93G4Rzo8AaJhGTzZI607O2XHq5kDibk5Kzt2Hs/6M5P70rQy/naq5T2klssT8NLLfFw6dnZYGYHJmX+O2N6oRDNHrsZO77e/320FFQc9sbcrMtj/S2n9+xels0AJfLEjL0rra0nzsY4Pu8/NXu+hU2JK6/i0RO0/mrgN/vadwGNyctXJxnsq1PX6uOx9w4wCAAAAABTMdd9obPrMDE+YK5eLtegNCqtSIrqpfNWwdD/RKZ30Lzf+auql/RHdhFhXxfYrwqL2yRa1T5xW2id7ZLNf0+WxumuddD1QK4P798i2vZzvMCb5+Gx4qEValvVLx/0H8vqjRWhjRNruuZr19Pb8uP4BAAAAwHghYxPj6JJ0/lhnZ1VI85PrJrE5//TRcLfTL2KFrLzd3SerpgvC3CorXV1PDr4/PumGoerZ6t9h6XuLoCYSiuX4nAg6CNqyTK3D/tcIagIAAADAOCFjE+NPFznS/YEO9UuHbjpvRqPwGra0SEvWNXPU/nh0HPbHwnppf3K5VJ/okc3P068gEib7+LQzKM0Tj9Qszlzem8zO7KwQ4RwAAAAAgHFFxibG3xsHZNsTpl+9caiSjYTeV7Psv/Biv3TsLHRQs1JCG9fZQU0dxCaggySTe3xOrEGCmgAAAAAw7sjYBKaamkppuH2lbPhKrVTPNeMsuihMv/T95h3pjI7HOVgn219qkqoTPbLr+eACQ5jmJu34BAAAAABMNQQ2AQAAAAAAAJQcmqIDAAAAAAAAKDkENgEAAAAAAACUHAKbAAAAAAAAAEoOgU0AAAAAAAAAJYfAJgAAAAAAAICSQ2ATAAAAAAAAQMkhsAkAAAAAAACg5BDYBAAAAAAAAFByrvtGY9NnZnjCXLl8yQxlUikNG1fKhuW1Ul1lRkm/dNx/QHrNMwAAAAAAAADTT1FnbDY8tEla7nEHNQEAAAAAAACgqDM2KyXy9CZprhKJvrhHdryRbZYnAAAAAAAAgKmu+PvYHDouewlqAgAAAAAAAHCheBAAAAAAAACAklPEgc1LMvAHMwgAAAAAAAAALsWfsVlVIQvMIAAAAAAAAABoNEUHAAAAAAAAUHKKNLBZKaGN62TDMjU4NCzn7ZEAAAAAAAAAYLnuG41Nn5nhCXPlckCV84X10v7kcqk2T2WoX7p/fEA6z5nnAAAAAAAAAKAUdVP0QfUYsAcBAAAAAAAAIK64MjbjKqVh41ppuadCZOi4tD5+RGLmFQAAAAAAAAAo0ozNS9K7t1M6TqhBqqIDAAAAAAAASEJVdAAAAAAAAAAlh8AmAAAAAAAAgJJTxIHNSqn5ovpvaFjO2yMAAAAAAAAAwELGJgAAAAAAAICSQ2ATAAAAAAAAQMkp/sBm1XLZeFeleQIAAAAAAAAAItd9o7HpMzM8Ya5cvmSG0gttjEjbPRXmmaNfOu4/IL3mGQAAAAAAAIDpp6gzNmN7O6V1f78MDpkRAAAAAAAAAKAUdcYmAAAAAAAAAPiheBAAAAAAAACAkkNgEwAAAAAAAEDJKZrA5oIFITMEAAAAAAAAAOmRsQkAAAAAAACg5BDYBAAAAAAAAFByCGwCAAAAAAAAKDkENgEAAAAAAACUHAKbAAAAAAAAAEoOgU0AyNfCeml/ep00mKfAWIQ2RqT9oTrzDAAAAACQCYHNklQuDzdtkLfv2yDdS+aZcSWqfIl0q/XQ6+J5NC2RxeYt2ZtC28XXVF+/EnPXOml/crlU6+GF1hhgzKqXNUkXwU0AAAAAyAqBTWXx/CWyq2mNK7C2RnYtmZdFYK1c7l1yp3SbYFNu045BeY2sLrMHQ4tq5F57MD1XALF7SbkZOcXks10mlAlM5hW0VYp+/aYRnan5QK1US790PH5Aes+Z8cAYxPZ2Suv+YZFlTdK+sdKMBQAAAAAEmfaBzXvr10jXijpZVWYiRpYyWbVohXQ13RkcPCrXwdDV8tSiKgm5J81m2rEaGZDDo/Zg7MyAvGwPprW4Ri2nGQ5V14xv4DUXI6ek+Rf75Pb445i8bl7KWR7bpaRM9fUrGZUS+b7O1ByW7icOSK8ZCxSCDm52nBCpvmetRMgEBgAAAIC0pnVgc/GSNfJUlY5KjsrrZw7LZie4duiYvK4DSGVV8pRvdt082dWog6FqcHRIfnjosCswd1h+OKQmVtOunT9emZEj8lyPPb/mUxfMuHTK5ZvVamFHz8ruM/ayfXNKJm3mul1KzVRfv9IQ2rhWmqtEBve/Jp1kamIc9D7fI1GpkObv18f/IAUAAAAASDWNA5vz5MFFdqrl68cOytZTI3LaeqaMXJCtPSZzsKxOHpxvjY27t36FrNIDo2dlc89ReXlkxBpvG5GXjxyUzYcOy9b33OMnkWnCHBsckOcGhiQmZbK6Zoo2Ry9qZfIl+5BDyaqTjfdUiAwdl117L5lxQKGdlb26SXrVctl4lxmVjYX1sv3pFul6qYWm7AAAAACmheu+0dj0mRmeMFcupwYEFiwIyfnzMfNsAsy/U95eUWWCk6cSQU035z1Dx+T2IyZDTvdV2VgnIRmV3YcOynPZxi6d6QLnp/tfXC1bypI/1xlvniaJnTkszacyLIRZj9eP7ZOt782TXfetkFWZlkPdWOvXpXyePLhyUaKp/qjObj3mE7TNd7pkmZbPUYDtoj5j8fwvS9uiL0go3hXBqMSGzkir2t+B81br9vDiRbK6qiyeTRUbHZLDZ34nzyWvn9r23SndFQRwH2cFWD/dd+yDi0xmsSXdunn332n1XAfwv+tex6Gzatp0+yQfldKwfqVs+MpsqZ5bYcaJDF7sl76DfdIZTbpWhNdJV6TWHj7ZI5t3X5GGLWtlw9IKu4iPDMvgyajs2n1WPFeTfKdLdpf6nAdqZXD/HtmWdWBTraNnXmr9Th6Xfa8ekd4v6uWaLd07O6VzwLxohNZHpK1REq/V1Mn274Ql7GwntY06fnZAepOmy3d+WkjN4+t3h2Vl0rS7dh9Jv10mVDFvz0qJPLZJmueqz3o0TTcFNfXS/shyqbaOxbNmZBLdj6suTnVCvef5gPckaXioRVqWmSdWVwlqucgqBgAAADCFTduMzcVlX7D+11mMgYGaa6P2zXxVolBLvK/KoTPZBzUn2b1qmdUCy2vv6WcX5LUh9V+m5uhlZfKg7n+0cYW3/1E1vGrFanm7PqAqd77TTbTyeVYfqV0rdNDRHT0sk1DVCum6b408nLJ9yuVhtW5vq3Xb4gr4aSG1Pbeo9duVlN2rZRXULCgdpNxg+o41oyzp1s1Q2+JWs210Nw2edayqk658Cx+l0MGiiHQ9u0laGms9QU2tem6tNEc2SfuWNNWhl4alXU/vCjiJqOGlTdL22DppMGNS5Dud0rBCB0eHpe+tLIOaOoCVMi+1fkuXS8sjEdn+Vf15V2XAJ8i44Ga9TezXdFCu65GmRBBOm6seydOlnd+6NPOz90ebmkezz7Rtz0YkUmNGTKai356X5M3fDqv/Z0tN4PaqlMh3TB+tr6YJWJ57R/r0tXrZLWmPSQAAAACYzqZtYPPWWXbE59xomujkyDWxk12+ILeYQJAzXeyaqeIy7hL9Krofm3VfmVmZJ2utuGai2MzLA1ZkM0Nz9CpZVVVmZen98JAz38PyQ2e+VSt8g3j5T5ersWwX3UeqDryqwdEh2X0sqY/UM3Zz/S/Nst8dN//LVkBTZ2em9Ktq5rtqRVLRqPeOut5nujfQ2ajxca5HPFtTy3/9Fi9ZYTI9R+V197odOia7rcnLZEtjUHGrKnnK2jajnu2y+Zg+ZhSfrhnyowOD3mCmHx1s3B42T1J4g00ec2tlw/qgprj5TlcpNV/U/1+Vgayy4Opku87K04MXj0vHzg7Z/Kj9aO3sl0G1HOGl+rVhOa/f46HmdZP6T78WXidtjRUyeLJHWuOfsUc6OvuSMgIT89MZhanzqw2Yn51lqIN3Omgb7dwjrWY6az6H7GVt/s5k9/dYGtsz9v5V9W+FrLw94DgKr5TmueozD73mmzWbcEnePG6CpFkWEerdd1yi5lSlD1gAAAAA08E0DWyWyy1Wwuao/PM1a0QA9XpAHCklIKqbmt+3Qd52PwqW3TYG82us/kBfH3AFzd4bsAJsmaqjW82dj5ySl+OrOiIvnzoYD66tqvHPvsx3uomyeMkiTx+p3ubjelmPSrPVR6oZ5XjvqGw+tE+a/fpVVev3QyugkAiCTwp1HLZZfcfaXRp4mv6PXJDneg6b4GaVfHdJwILqwO0vDnq2y2m17vb6iSwsK8wK9r56XAZ1IO2QO8CkHjt14ZSE8FfTZG3qrLfOPWY6/XkJ1Y0r02S65TPdHJln/ZHAL3CWqmFLk1gxWd3c+JkjnibOsegB2dbZbz/54IpPM281L51BKLWyNTLbCjZu083kXZmBvUnN9J356YDdtt3B8xv87Tue+YXWr7UCbTpY2Ppop+xQn5t4Xc3nFTWt2icdP5vc5uilsj3lD8PW8VR98xz7uUelRNbUWtt61yvZdmVQIfOyvWSeOyI7HlfH9P0dOXSVAAAAAACla1pXRZ8OvM3QHdk0Rx+VwwPu4F3CaasAkfKFWT6B0XynmyimQrwO/PWl6S/SE7hMOO2MLi+Xe+cvkV31a6S7aY0VyH5Kb2q/TM+JNMs0Hw/sKmFEnjtjRyj9A9t6uxyNZ/e6vVPoLOWBI7JNB9LeFllw+zrZ/lhE2h9rsZsIm7dYbpoTmCkY7exM9MOpPm/XIZ3h5ghuDpzvdFmrqZcNVjbfcWkN6kPRiP7G5/WaOWIdTnMrZEgtqw42puWan+4nNJ2h992fVScbG3WmZr90PJMmcDlw1qfvyQlUMttTGXhH+i6q/32OWyeIHD2YXZA4NqizPwEAAAAAQaZpYHNE3v2j/j9TECq4inVK1trIKWl2mvw6TY4nnWmGrpsXJ2WTOkG4MVVH1/0xmsGc5DtdQTj79I/yrn/sMi1dkGdXk9qGjavlKd2Hpe6H0tNH5+SK9x2bLgjp9B07qftB0cVbTCBT97Op+zustrLq8mc3A3ZUyDyr6Xhm+U4XJHR7rd2EOTmbzyV082z177Bc+IP93OOLdnP5wUN7ZIc7fTVA3vNzAn4n3w0udFMESmZ7Wi7JwAfqP3U8L7BHGCaIfLInq2UAAAAAAGQ2bTM2neyztM1qy2eJ3bVZIgjmTBcyfW0WNdMMPZ1MzdHhMv/OREGe0SGryrvua3Oz6W/TaaqNbOj+C5skPMZAZnoBQa6M8p0uwS5UMyx9bwdlBlbK17+i3+Nf6KbBKkqTbnqvvOfnBPzev2I/L1Ilsz2N8+/rDOBaudOVemw3bc9QMChJqFoHTwEAAAAAQaZtYPP0qJWymTawl6iAnii8E29OXbUouLJ0kbCboeu+Fp1MUvfD9LWYqTq6H6e58+iovGONyFK+042LXPvCnCe7VpjtqYvq9ByVracuWH1tng5oth5oAjIl0wbei2A/hNaHPc3NBw/1SMfORNGajpPmhRzZAazcZTfdFbmgg9dVyZl4+TB9PqYrdBMQNMtLza2yMnB+U0FxbU8nA7jqZlNAyDRtz1wwyM+wXHDXFQMAAAAAxE3fPjZNAZ3gKs/z5EGrCEtS4Z2RATlsJW2WyZbF87LPdnQqrAcEtRKVrAvFNEMfHZJfBfS1+KtBK7IZ2Bzdv5l+uTy8yGq8KrHBAd8+KvOdzmPcgn+mf1G9/1amKe5UXu7/mt6enmJDjnK5xQxlNn4FhjIH3nPcDxPhYr/se0X34aiL1lRKKGz6N8xCeM06aTD9YYbC67zTqc99MyCIlN90l2TAyuTMtkp1UJP2ykQhnHSFbnIOQgZU4q6pk8h3TDXx5Pk5hW7SFVpS0yf3FZmqTrY/3SJdL7VI+0Ppij2NRQlsT0f0XasAll1AqNK8Xx/n2WWM2irl68tNVmjW1c0nYj8AAAAAQPGYxsWDLsgLTpXuFWtk1xJXIKt8nuxqWhGvnP2Cp/DOiDzXd9a+ma1aIV1Nd8q95a4Iki4qU2+qbns4Fdar5Kl6V0BUvf/h+jXSZYKoBWOaoacLXjlBMP+s1TKzXdzLOk8eblptArBD8tNTfgG+fKdzJLbTd5M+494CBQNfPm32X1mdtf8enu/+YHUczL9TuhtXS5faTynUNG3u5XLer9fPjhem4Q2qetbHKkZUgBUcOSU/debRqPaD+zNz2g/jy9On5dxaaXm2RbqsxyZpi5igUTb0tI/Y07ZF7H4RHWkLtOQ5Xe8xXQm7Qlbe4RPwcrGbIouEI4kAqqaDttsf2yQtJpDq2wTc6fcyKGjmo/c3doXu6sZN0r6+Ts2zUkI6ALclIu2PNNlVz5WUwjpOoRtR2+Mxvayu9VLDDWp63Qfq1vXp1ze0MSxhc/xXLwtLJKvAb/ZKZnvGXZELTgGh8Eq7YFDngdz6MV14q6zUC34i+/5Px3s/AAAAAECxmcaBTZHTpw7KD4fsrMVVi1ZLl1Ncp3FFvB/FH/b4VM7WhYIOOcGxKnmqcXWiMI8uKlNlTSyvn3EHFRPVqK2AqOv9W9T7Y2cOF7SPRrsZusi50TTBq3gWqX9z9Nio3i7uZXWySnXzdv/K2Vq+09mcTFJ1k570GU8t9gk05iNp/21Z4dp/96njYIXugkAt62l3+89EINyzXPH3q2PF2b9puIOqTzU6n6EeVjGiL8u91rvG5uUjppsBK8jsPjZz2Q/jLNon3VZAzc+wRE+6q5TnLtsiMckyTveGycRbfmvaLMbYK1HrfVbA0ARQ7SDqcgnrCuRWFfaAPhzz6fcyeiDefL+6sUnNc5O06QDc0gqRk8fj8/MrdNP5s+NW1qYd7N0UX9YuNdyiph9U0+/KKdMwc+A3V6WzPR1OAaFa2bqmVnR19b05Ho+hO+yAe/RY9n1yehV+PwAAAABAsZnWgU3t5SMHZfOxIYnZMStjVGJDx2RzT5rgj1UF/bAVzPKd9tBB2ZrcZPm9o6nz0sHTQ/uk+dRIvDDR2DnV0IfkNU+2abJEBmFqc/RROdy3L2V5Y0Nn1fIelOcC46X5TpegA86b9XY1zy1qO+0eKNT2UTLtv1+kLqu1XD77z+lz8+VsFs8Kqh6T10e9b45Zn/O7AgUbR+S5Hr0Pzqr5mFGW4HWbeJek85k90uEJYA7L4Mkead3ZKTte7beDbWkNS/fOPdLt/oyL/dLduUe2pQ3E5Tuddlb27lfTVS2XrRvTBY3Oyo6dPUnzGJaomkfrMwdMk2j/Ph/tatvq7H0/l2CiSO/uDmntPG4FhQf1vHQATq3ntt3vSE2aQjcycES2PWrvC882d7bJ7jSZr0Zsb1SiBfzDTKoS2p6GnfVZIdVz1fH2s8zb0KtONt6j5jF0XPa+YUZlYfz3AwAAAAAUl+u+0dj0mRmeMFcup95gLlgQkvPnc7v1K7TFS0yT8KFjcvuR6Vqtodw0V9ZZfbkEwPKdDshBeJ10RZxCPzpA2ZldMZZ8p/NVKZGnN0lzlfqcJ9TnZN3/4WSpk+3PNkn44nFpfSbXAFuO7lLb+YFaGdy/R7btzS2QWDrGf3s2PNQiLcvGcHxNi/0AAAAAAGRsepw+dcYuKFS1Qrrd/WACKEJBxWQyyXc6xyXp/LFuvl0hzU+uCy66UyScCvSDv31nfIOaSqhaZ0cOS99bUzeYNt7bM7QxIi3L1Ofvfy3voPl02A8AAAAAoBHY9LggW3VTYzUUcveDed+agArTAKalc0dk24u6uXyttDw9ycHNmnppfzYi29cnVS83xW7aGnWz6VwrcudhYb1s1c2nT0RLIIs1jUncnjqo2WZtw578My2nyn4AAAAAgCwQ2Ez23lGrD8TdVlEhAAjwxgHZ9oQpvDPp1acrJNzYJG1O4R+r+I8pdmM1vc+xIndOKiW0cZ20P7lcqof6peP5fIvdFJPJ256DJ3pkc17bcCruBwAAAABIj8Cmn5EL8tyRg3L7L/aZB31GAvChMzcfPyC9k5kZF1j8Z1iih3qk9dGx9CeajTmy8Z5aK8uwVW8LM7ZkTeL2jO3tlG15BySn2H4AAAAAgCxQPAgAAAAAAABAySFjEwAAAAAAAEDJIbAJAAAAAAAAoOQQ2AQAAAAAAABQcghsAgAAAAAAACg5BDYBAAAAAAAAlBwCmwAAAAAAAABKDoFNAAAAAAAAACWHwCYAAAAAAACAkkNgEwAAAAAAAEDJIbAJAAAAAAAAoOQQ2AQAAAAAAABQcghsAgAAAAAAACg5BDYBAAAAAAAAlBwCmwAAAAAAAABKDoFNAAAAAAAAACWHwCYAAAAAAACAkkNgEwAAAAAAAEDJIbAJAAAAAAAAoOQQ2AQAAAAAAABQcghsAgAAAAAAACg5BDYBAAAAAAAAlBwCmwAAAAAAAABKDoFNAAAAAAAAACWHwCYAAAAAAACAkkNgEwAAAAAAAEDJIbAJAAAAAAAAoOQQ2AQAAAAAAABQcghsAgAAAAAAACg5BDYBAAAAAAAAlBwCmwAAAAAAAABKDoFNAAAAAAAAACWHwCYAAAAAAACAkkNgEwAAAAAAAEDJIbAJAAAAAAAAoOQQ2AQAAAAAAABQcghsAgAAAAAAACg5BDYBAAAAAAAAlBwCmwAAAAAAAABKDoFNAMDkCa+T9mdbpEs92rfUS8iMBgAAAAAgk+u+0dj0mRmeMFcuXzJDCQsWhOT8+Zh5hrjyJdLdWJd6sz96Vjb3nJLT5mnJKuj6lcvDTatlS5lI7MwxaT51wYyfKqb6+k00tufkq5PtzzZJ2DzTBg/tkW2vpH5HAAAAAACQjIxNZfH8JbKraY28fd8G81gju5bMk8Xm9SD5TjcpdADRLGf3knIzcoopr5HVZfZgaFGN3GsPFhEdSFP7oGlJfsdIsa7f/Dtd50Dwo+iOu6I/XgAAAAAAQDrTPrB5b/0a6VpRJ6vKTITDUiarFq2QrqY7A4Md+U6Xs5FT0vyLfXJ7/HFMXjcv5WJxTVU8KzJUXVM8wdcCrZ9lZEAOj9qDsTMD8rI9OHVM9fWbaGzPInBW9nb2y6B5JhePyy6yNQEAAAAAWZrWTdEXL1kjXYt0YHJUXj9zTF44NWI3fS6fJ7tWrpBV1kupTaLzna4w1DzuU/PI6fNNk1s5K7sHq2TLIpHdhw7KcyPm5aKSz/qVisR+mFLrpjM2V1SN4zEPAAAAAACQahpnbM6TB63gpMjrxw7KVic4qY1ckK09JnOwrE4enG+NNfKdbhKZJrexwQF5bmBIYlImq2umaHP0olYmX7IPHQClZGG9bH+6RbpeapH2jZVmJAAAAABgsk3fjM1sssyc9wwdk9uPmMIieU53b/0GeapqSH74i9/JLfUrZEuVldZpB0ffK5eHU8ZZk/nII6PRLM/rx/apz800vTerUGehPrhyUaLJ/aidpbr1veR0z3ynS5bt+pn5BQQKY2cOS/OpTPMql8Xzvyxti74goXiXAqMSGzojrWq/Bc5brdvDixfJarW/nOb9sdEhOXzmd/Jc8vqpbd+9qEp9vnmejvs4K8D66T5gH1yku0swI9Kum3f/nVbP71XH5Hfd6zh0Vk3rs0+yOSdSjGF+xmI137YM2zaxnfLdnmNfzqDj5ad9R+XlTIdoHkI1dbLxO2EJz60wY0QGL/ZL38E+6YwmXXvD66QrUmsPn+yRzbvPSihcLxvXLFfT26NFTdv9swPSOWCeu9VUSsPda2XD0gqpNqN8mc+Wmnppf2R5mvcOS/fOztR5jXU5lZy2S5KGh1qkZZl5opfxCbWM58xTAAAAAMCkmbYZm4vLvmD9r7MYAwMS10bFCrVWJQqL5Dud7QvyXR0kqXKiK7pPziXycH3SuBUF7KNTubemSv07JK9ZwdIL8tqQ+q+sSr6ZLmmzrEwe1P2INq5IBCc1NbxqxWp5u36eGZEk3+kmmu42QO2LrhU6MOaOdpVJqGqFdN23Rh5O2T7lal+tkbfVuun95QSptJDanlvU+u3yydLNKqhZUDoYt8H0AWtGWdKtm6G2xa1m2zyVvI5VddKVb+GjIHnOz+7jNsuAcSHkuZy624qg4+WpxkIXVKqUhi0RaXukyRO806rn1kpzZJO0b6kzY3zcdItE9PQRV7BQ09M+EpFIjXnusIKUm6QlU1Cz0HJdzrFuFwAAAABA0Zq2gc1bZ9kRkXOjaVKmRq6JnZTzBbnFxB/ync5WJqGyUdl9SBfJOSy7deGSsjrZUpU0TqpkbcGasc+TtVZcM1Ec5eUBK7KZoTl6layqKrOy0X5oLZu9fD88Y6qtVK3wDeLlP12uRuS5HufzE4/NznzSmie7rMCrGhwdkt3HDrs+Qy+r3Vz/S7Psd8fN/7IVoNLZdj88lDyNPd+UoPR7R13vM90U6MzG+DjXI56tqeW/fouXrDCZiTr717Wch46Z46tMtjQGBc91wE1vG3VMuqbdfEwfM0q6LhbUa10+1dD1I3if5zG/+XdawUW9ft5pztp/UBCdGW2PS2RhjuV40fJbTndfvO59rqfTyxpatCI4yJyjhi12kDGd6qVNsj1sniTTQb7A6Suk+W538K9SIt9Jl3k5jnJazgJsF6V333GJml09uP81sjUBAAAAoEhM08BmudxiJV6Oyj9fs0YEUK974h75TpcQO3PMFO0ZkV8N2m9yj3v3j9aowplfI6vUf68PuIJm7w1YAbZM1dGt5rlHTrmay47Iy6cOxoNBq2r8sy/znW6iLF6yyNomdtPpo0nNx/WyHpXmQ4dTuwN476hsPrRPmtU0L48kT3NQfmgFPpKD2ROsfIm0mWCaLhDlafo/ckGe60kEz78blC2oA7e/OOjZLqfVutvrJ7KwrMArmOP8nKxp3WWDd5pT0mwFGgv5hwGXnJazXB5epP+i4PTF623+r6ezl7VA/d3W1MuGpWZYiXbukdZHO2SzebR29ptXRMJr6j3Zo8n0tNZ0O3skasZZbpqTmK7mVlnpypaMT/PoHuk4aUYqg4fMeN0MXRs4ItvMMsUfrmXLRXbLWaDtcu6I7HhcTXN/h2zbS9V2AAAAACgW07h40OTwy/R0j3vnWkBENE/eZuiObJqjj8rhgdRl1U5bBYiUL8zyCYzmO91EKZdvVpvAX1+afhE9gcuE087o8nK5d/4S2VW/Rrqb1lhZiU9ZcSyfTM+JNMs0eR46E1D1fkSeO2NH4vwD23q7HI1n97plPDaDMlHVI7jP2DHML42CB19zXU5TsEtvkxeC1j3LPzBkI3R7rSd7MhzZJG3PtkiXebQ5/VNqcytkgRlMpgORO5z+JgfOylFXkDJ4umG58Acn2HdJzr8/bIZFqr9ya9ogar6yXc5CbRcAAAAAQHGapoFNJzMyUxAquYp1vtNNFtMMXTejTWoa7AThxpQtpvsdNIM5yXe6gnD2zR/lXf/YZVq6IM+uJrUNG1fLU7oPS913olqfYhHvAzZdUFC9ZgWYJ3U/5O/0qJ3WbDX79yRJzpNduoiRkrariIngBJjTNM9/WxfJst48dgtuTt/U2mu21KT0Q2kbet+bjegOUnoMXBGTqKpUSPMjLdL+WEQ9WqSt0bUsH1wx3QMUVrbLWajtAgAAAAAoTtM2Y9PJskqb2VU+SxZaA4kgWL7TTQrTDD2dQmSLTRu6z0SnIM/okNVvou5rc7Ppb9NpkoxxFm/+bRfgiQcKdR+YevTQseAsSShXZSCgcnj2zsreQ95gYvXcCvUwTyzD0v2qaYJeEgqxXQAAAAAAE2naBjadrK90gb3FNVWmWW+i8E6+000Guxm67mvRr3mwU7woQ3V0P0422uiovGONyFK+042LXPvCdLIB1fbUxWN6jlr9Juq+Nk8HNFsPNAGZkiFT5MpXUe2HfNl/YPBmA5oiPUe8/VlOCicrduiYz7mX9OhJ0yVClrwZi/3S4epHMvVxQHrNO8ci9kpUohfNk2QX+6V7Z6d0TnKgcDK2CwAAAABg4kzfPjZN/3bBVZ7nyYNWERb/wjs5T1doGYNjphn66JD8yjfu5hQvCm6O7t/cPlEUJTY44BuQyXc6j3EL/pn+RdV6b1m5JDhbtbzc/zW9Pd0FeeLK5RYzlNn4FRiK92NatSig2naO+6EYWVXRxQrYN3uChKlFeibNyIAc1qdX4H4orNjb/TJohkVqpeWxddJQU2mea5USCtfL9vXeiuH5q5TIY00S1hmaF49L6849iYcOEj5zYNKDmlrhtkudbH+6RbpeapH2hwq1DQEAAAAAYzWNiwddkBecKt0r1siuJa5Alu6rr8k0a00p/pHvdIXiVFzXVa3neebt6W/QNENPF7xygmD+2adlZv2883i4abVsseK2Q/LTU34Bvnync2S5fmPw8umzdvBP93/YdKc8PN/9wWp/zr9TuhtXS1e9T/V2NU2be7mc9+v1s+OFaXiDqt7+IXUxogKs4Mgp+akzj0a1H9yfmdN+KF52P6Jl8qVCVBMfN06RJrMf9DHjWVy1v5eo4+a+O+VeM2ZMBo7IPk8BnVppeWRTvEhO17ObpC2yXMKNYYkUoh9Jd1X0uculTc0r/ojPMyLtW+qlYTL7rSzQdgltDEvYnN/Vy9R77b5GAAAAAACTbBoHNkVOnzooPxzSUbQyWbVodaLIh+6rTwd/Rofkhz7NRPOdrjCcTEt1s71ohWfeTy1OBOLsZugZiqiMXJNz+v+A5uixUb1+3nnYQTHdvN2/QrSW73S27NZvTEZOSfMhJ7hZJVtWrLbnYT3U/lyhuxJQy3ranXGbCGh7liv+frXPTbXxdNxBVW//kLoY0ZcLEuR6+YjpZkAfn+51y2k/5EEHip15+T38AsV5cALy+tzznY96dKcErCfBe0dls3XMmPPBvb/VcfPUInXcqJcLlb3bu3uPdJwMKPYTVyErb3dnLObJUzwoSIVUL10uLY+0yPawGTUJCr9d1HvvKMA2BAAAAACM2bQObGovHzkom48NScyOWRmjEhs6Jpt7goM/+U5XCDqwuvmMaXLsGB2S3QPOwjjV0IfktbRZo4kMwtTm6KNyuG9fyjrGhs7KDw8dlOcC46X5TpeQef0KQAc3f3HYCkb67sNfpC6rtVzJ+1wvl+lz8+VsFs8Kqh6T10e9b45Zn/O7Ah03I/Jcj94HZ9V8zChL8LqVlJEB+an1h4VgIROw3uXbXcTE0cfM7Wp/71bL6z2eTX+g6rgp3L64JL27O6V1Z490nxx2NcFWLg5L9FCPeq1Dtr3irSien7OyY+dx7zzSCH91Mptvj327xPZGJZo5kgsAAAAAmGDXfaOx6TMzPGGuXE69gVywICTnz3tu/Sfc4iVrpEv3j6kLfhzJvn/MfKcrTuWmubLO6sslAJbvdEAuzHEmZ2VzYFZ0udxbv9rqhzN25rA0l2iT+6JWUy/tjyyXal353LdIUKVEtmyS5qXm6cke2by7lCqkB7hrnXQ9UCuD+/fItr2FCBADAAAAAMZi2mdsup0+dcYuDFS1Qrrr3f0oppfvdAByVF4jq8skQ+GjEXnnWjbps8hXw906qKnpJtx1dpX9OF2Q51ZZ6QQ1lcH3r5ih0haqnq3+HZa+twhqAgAAAEAxILDpcUG26qbGaihU5e5HcU2Gysb5TgcgH7qfU10YKfmPCIt1gaR6k0FdwgWSSkl1Y5OrYFCiII8d+NT6ZV9Bmr9PsoX1svWeCpETUem0OicGAAAAAEw2ApvJ3jtq9YGo+8TLSb7TAcieq+q7LoyUXKyoSxdIqiqz+z4djwJJsPS+mmX/mhf7pWPnAek1T0tTpYQ2rpP2J5dL9ZBan+enQJN6AAAAAJgi6GMTSehjE8Vv8fwl8uCiKllYVuZpBq2LMB0+8zv51XsjaZqqoyBqKqXh9pWy4Su1Uj3XjLMMy+DJfun7zTvSGZ0KTbbrZPtLTVJ1okd2PX/WWwQKAAAAADCpCGwCAAAAAAAAKDk0RQcAAAAAAABQcghsAgAAAAAAACg5BDYBAAAAAAAAlBwCmwAAAAAAAABKDoFNAAAAAAAAACWHwCYAAAAAAACAkkNgEwAAAAAAAEDJIbAJAAAAAAAAoOQQ2AQAAAAAAABQcghsAgAAAAAAACg5BDYBAAAAAAAAlBwCmwAAAAAAAABKDoFNAAAAAAAAACWHwCYAAAAAAACAkkNgEwAAAAAAAEDJIbAJAAAAAAAAoOQQ2AQAAAAAAABQcghsAgAAAAAAACg5BDYBAAAAAAAAlBwCmwAAAAAAAABKDoFNAAAAAAAAACWHwCYAAAAAAACAkkNgEwAAAAAAAEDJIbAJAAAAAAAAoOQQ2AQAAAAAAABQcghsAgAAAAAAACg5BDYBAAAAAAAAlBwCmwAAAAAAAABKDoFNAAAAAAAAACWHwCYAAAAAAACAkkNgEwAAAAAAAEDJIbAJAAAAAAAAoOQQ2AQAAAAAAABQcghsAgAAAAAAACg5BDYBAAAAAAAAlBwCmwAAAAAAAABKDoFNAAAAAAAAACWHwCYAAAAAAACAkkNgE0BhhddJ+7Mt0qUe7VvqJWRGAwCK2MJ6aX96nTSYp9NNaGNE2h+qM88AAABQKq77RmPTZ2Z4wly5fMkMJSxYEJLz52PmGdIrl4ebVsuWMpHYmWPSfOqCGT+JypdId2NdahBr9Kxs7jklp81TTHV1sv3ZJgmbZ9rgoT2y7ZXUc37iVErksU3SPNc8TTL5yweUMr6PpoS71kn7A7VSPdQvHT8+IL3nzPhpRAc22+6pEDnRI5ufP2vGAgAAoNhN38Dm/Dvl7RVV1uDrx/bJ1vesQZd5suu+FbJKDw4dk9uPFO5mbfH8JfLgoipZVabuBI3Y6JD8tO+ovDxiRqTjuWkbkh/+Qk1nDU+iCb2RdO2bLPnvYxQegc0U4XXSFam1h0+qG+bd3DAjCd9HhcX3UW50puaTy6Va+qXj/gPSa0b7Ca1fJ1sba9V7lYv90v2zA9I5YL00JTjBzcH96nthL3/wAgAAKAU0RVdW1cwzQy7za3K6UcnW4iVrpGtFnecmUguVVclTjRuku36eLDbjAo0MyOFRezB2ZmDybyK1kVPS/It9cnv8cUxeNy9hOjkrezv7ZdA8k4vHZRfZkEDW+D4qAL6PclApke/roOawdD+RKagZkTYnqKnNrZXmR6ZW0/XY3k7pOCFSfc9aiSw0IwEAAFDUyNi0pGaZ3Fu/QZ6Kv1ygDJn4PEfl9WPHZOt7iXQYO2tG32COyu5DB+W5bDJliprJYpmwpn9Oc8ipsv186My/NcPS+swRodOGsfBmlY53xqYdDKiwn5CxCT98H40zvo+CZJ+h6Fw3h6V7Z6eVpelc26KdHbIjat42Jah1fUmt69BxaX2c71sAAIBiN+0zNl8fGlL/Vsna+fZz2zxZq+/31GuFzPK4t8a+M9X9kLlvIrXT752SrT2HZfNUDcphzEI3zzZDKCULbjZBTSADvo8wsepko+5Tcui47MrU7LpmjjoylZPReNPz2Nuu7Pwp5azs3T+sTsXlsvEuMyobC+tl+9Mt0vVSi7RvrDQjAQAAMN6mfcZm7MxZOaczU9xZMOa119VrkvSakzmTvo8sJ1vDm3njTBs7c1iaT2V7t5gozOAn+LPMdOoHup2hUq7mv0K+W1UW73csNnRWWo8EZ68sVtuhbVGVhALmrQXPP48MmfJ58vDiRbLavYxZ9/WWe4ZMIivJjJBRtU3OqG1ywWd5x749x8rKjvlK/zhnbFZKw/qVsuErtVLt6pNy8GK/9B3sk85o0rlbUy/tj+hmjEES2T0ePv1OhsL1snHNcgk7803Xf1uNWs6718qGpRVp5q34Zkjml7EZqqmTjd8Jq+VLBCr9t0ulRLaslWa1bFm5eNx3n4bUNtq6xr0fhmXwZFR2vXpWYoXenjlL7Us1SOGyuUxfqR84+9Qcq66msYNq3Xep14LOD79tGj0Ulb2vuKdx+mTtl45H3U1z1fzCc9T/V6TXs7/NthhLNi7fR3wfTcb30V3quvFAbZb9SaYe53bGpvhf41Oo80ddF93X7MGTx2Xfq0ek94v6+jU76XO853vy9Uxfe/ep61lvynzznS6J0+9oDoWEGh5qkZZl5onVtF+tzzQswgQAADDR6GNTrsk/6/7BqmrkXnuELC77gvp31Bqf3MXSy6ftG+BVi5YE9z1WXiOr9c3JkLe/sZcHdDaOuhlY9GW5t9waHH9lZXKrukHbpW6CnnLd9GihqjrpavJfj3vrdd9r6W8iC0n39fZ24wrZkryMTl9vSwq5wfRN4QbTt5wZZVHzrlohXfetkYeDZpfn9sxHw5aIbF+fVABjboUsMIP6hm37Y+skUmNGjJUOUj67SVp0oCge+LFV677UIpukq5Dzc9x0i0TUurZFXEE4zeq/LZI6PyuYqpYzU1CzYPQNuVq+R9RNvSuoqTnbpX1LnRlj3DSWLM06tV9b1PZI3g9qfZc2qeVQx0U4TTZQrtuzVNTcKivV+gy+f8V7rJqXNb19tq732zbB2zTcqLbpY/Xe88xPeKW0RJqkZc2t3vN+fdgK8EZ/k2dQ04PvI76PHOP/fdSwQv8xZFj63sr8hx0d0L9wUf239BarT814FxsX++XNTEFC53xNumZXL10uLfp69lW9HFdlwP05zvkuc3yvZ/raq6dN/X7Ic7pk596RPn2KLLPXFwAAAMWLwKa6YfzVoHUnaZr/lcs3q9XdxeiQ/Oqafp5k5JT8VP/YLauTBz3NBRPuXayDUaOy+3RSP2jvHZUfWveS9s3R2013ysPzM90gjchzPe4iCPZj8xm9zNnQ81ph95V27HBi+mP2Ta3vesy/07pJ0tvGO42T1aQzf+xx2Wf6pKHm17XInt/rZ47JZvPZznLqeYYWrQi+ucvR4iXqhtW6gdR9yyXW7/ZDx2S3tVnLZEvjnfHAglce2zNP59+/KlU66PJsi3Q9FpGtX9HBstmyQQ13qXHWDZsak+meMjuVEvlOusxLY+44NIfXAbfA7MYKab7bHTTMcjkLqGGLfUOejg6obc8mfTEjnW2kA6jmqa8KCUfWBt+Y57Q983VWdjzaIZuzeBSs770vmqDIV9baWcIX+6Vj5x4znz3ScdJ6l1TfrLMq3Uym2VydndkjrTtdy7ezR7p1sGbuctmYdv+p/bLGZMR6VMrX9Xl58bjsLch68n3E95GZ37h/H1VKzRf1/1dlIKuswkvy5m+H1f+10qK/f6x+g9U5mLEFgTr/nKx+dZ50uM6/VqvQnLqeLdWvDct5/R6HOd918LNZvR7t3COtrvM2qs9bv+tZvtOlUOt7XK/vbKnJsohQ777jEjWbfnD/a2RrAgAATJBpH9gMzSqT06fOWH2XWdVoTXbL62eCm3DFs2T8qtc6/aHpG1Gfe6yXj+ibQPvmSMqqZMuK1fL2fWtk15Isqs/mSy3LD39xUJ5z9aN2On5TK7KwzHuHZmcI6eaNydOckmbrhim5D7ixKJeHF+kNZs9v6ylvszu9nPY8y2R1TQHuJMuXSJu5adVNBD19y41cUDfth83NZJV8NygrJ8ftma/YKwdkmw68nFQ3V3PVzZoV7NL/60BKv3SrG7bNz2TRpC4rc2SeK5imm/Q6N586aNTaqW7Y1A3h4CF1s+ae38AR2RZ/n3mom9V86BtQa3p982nGWW6ak8hEMtk4jvg0rsCWppuXW+PzbRrsqKmXDfqm2/DcJKuHvjF3hNc4WX+XpPMZ5z177MCZw7NdzcMdGAivlGZ3UFO935mfHQRwqBvz76TPMsxqe5YQp49Z6/jX+9c69p1Ms0vS++px3/7+GrY0SVgHYHZ2yg7d5Nxz/J6Vzp/Z01XdnCYL1jruhiVqzkUnazqeHfbbdzIEd7LD9xHfR3Hj/n2krvl6VYeSAorpvH81cY5Zf1hQ56B5atGZmY9FpN2VNW2ff4q+9qlrnfv7KhZV33HONfSDK55zKN6ntO6q41F17kYvJV5X5+0Oc94mX8/ynS5YhczzO7X8nDsiOx5X19z7O7Jo2g8AAIBCIWPTckFe0zcBX5hlFVQIyZC8pvsrUzeZvj98RwbksJVUsyg1a2N+jaxS/8UGBwJvRE+fUjdHVlbFWXndZGSsWmQ3OduVMWMmV+qGSfcJZp65vXPNmnleChW8izeTHD0rLwT1EffegHWjH6quGfvNtrNPh84E9Hs2Is+pG33Nf37jsz0D6cDL7k5vsFAHu545kNrf5ZiYZoaGzkBsf2yd1RS+oUbfgKobtmfUzdo4VQ/XgUh9A2pR63zUFaT0BJI8huXCHxKBrfPv6+waW/VXvM2F8xW6vdaTHRqObLIzaM2jLeLK4gtczuw1WE0yHf3SsdvJSrODAPs826VWvh6QtZnf9ixuThEmHbBNdxxaTdXj6uROKzCtm58m9pvnkbaPWFvD3XaG6NH3zQjDGq+b8r5dyPOC76Nc8X2UqtDfR1bTc92Vg/Vs2OqvN/mPatb1Ul1fht4354PzhyEdZMzwR6bkrhzs813PJyAjdOCKOjNS5Tudn9jgVTMEAACAYkZg07D6Gyurk6d09kRSX2SpnJuN5KwNJ9tjSH6aRZM4u/KsaXI2pG9C1A3litXqZtJ+fbKcHv2j9f+qFXd6+17TfXmtsLNZzo1mXr+sODd2att33bdB3vZ9rLBuzgvByf6JpbvpU69ZN0S6/zJrxGRzmsH2S/ehYZGl4cCAVv4uxTPXHLovMt3/YMsjm+wA0GPrpKFmfCq9xm+EDXeQ0sNzU1ohzY+02BlCuv9Eq2mkkZT9k6/cKprPlpox7ZdKqbnJDGrJTTOV3t9klw2b9fYsGc626ZejAQF9JwjtWffwLVkVOErPDo7qrEzv/jBBU1eV6ELh+yiB76Mi+D4KrzP9aeosyA7pOKmvvfr7wLxuMd0yWOeoPcY5J9NlNNsZlvqPVPZzm3O+J/W7mVG+0wEAAKCUEdh0mCwM7fWBpL7I/Lz3O6uJmFV4wYwKKtKQkW5yduRgvJ+ytIUgJkK8GZvpe825odN9eenRQ8eCs1lQcKH1a6V5rq4ufkA6X3lNui9mboacF92sfKdu0j3sCXDGWUUXNqUvXDPuzspeHdx10RlC3oIwalu9WohCLrmaTjfTut/KpMzHgEdh+h41XSX4BHsdTqaWO0DiNEvVldk9zf99Hoks0Esy8IEZVOziQP2yT70ee9+VwWWCpoUpGpSE76MEvo8mmfOHtUQWZO9u3b1FUhEe043G4KG+ePN055wMzmh2gqHJ105zvp9819vU3a1mjjoiFM8fsfKdzl+o2jRrBwAAQFEjsBl3QV5TN3Kx0bN2s7+MRpKKPIgstpoNjqYWacjS6QHT11lRsG9qvctjiikc8fY7NiZONoq6OY0XTQh69AT3M5cr3ZddICdrZ3RU3rFGTKKaetnaWOHq21L336huKucuD6j+PAY1lRIauKRuWjtNv5m6b80e6Tjk7ttR3b8mVYWeaLFXoqYAhA/d9+jOzoJl0HkzHfulIykY5n0k9TfnJ22/bt6Aml+TcW9T9WnEybwMDEakz9RK239mWibw4gmU6MxcE+y5WKiiQcn4PvLi+6jw30dX5IIOGFdl6prC6X/ZfW6dlR1W3706czMi28N18VYF+g8A2Qv4g4U5373dSnjZ3UAk/WEh3+nSGpYL+Z1CAAAAmCAENl1ePnVQmtXNSrbZLfEiD1ZGi6t6bUCruHvrM/RZ5tzATDarCq3I7kP7rL7XEjdzqcUUMsrUfC5d/3DjIH6zHji/RPGIdP3STZTQF3VQpSepT0F1U6n73Ly5kAHGSol8R/cfGZH2LfWmyfkliUXPSu8rfUl9O05mH41qOZ2q4bpZ5M49iYcOLuq+R3MMalY3rnQ1qayUkKt5Zextd1C3VlpSmuOr94frrb5I/SUHK3X17aTpXZ/nbWqu5rdFV7S2hcLrPIWMdBD3zQIFcHM3sVXR45mXgcEI/wCJk2GZrs/VkNofgeeRlYXmkwH8xcIWDfLD95HB95E1VPjvI3VtsrKbs636ndTVhi7EY4Kb4UiTla0Z7fT7406FzLOqryerTBQWCigclNylRpy6FrZY18JEs3ct3+n8VcrXl5ts0qyrm9fJ9qdbpOulFml/KFPVdQAAABQKgc0xuSAv6OZ6ZVXyzSV2s7/Am4/yJfLdKrvPsu4m3VeY9y5msbp56zb9haWrgDsR7H6/yuRLY6r6Oir/bCXZ6Gqurgq75fO8/aS5+ofb0miq8XpeL5d7l6htc5/aZmbMmIyckp9azRrN/Nw39mrZHm5aLVus5Jns+qUbb1bVWL+iC9b4gOIIebCbu+uhCqleujzRr6b12GRuBo10zfzGW40dULLMXS5tajnjj/jyOsFZ874UScV0PIVlNsnW212Bx4EjKQV7krdNW2S5hBvDiSaZSZL7xdQFiDzTf8cVdIv2eauoL22Kr1eicIeWpjjGFOTXzNzDydRKDjRG37Urwutj5THvMRGqqZPIFl0QZZNstKIrqe7UGbI+AeR5anx1ztlp443vo2B8H/npPaavTRWy8g73H1uSOddLOzszktQVibvoXHiNt99NJ+M9HPGOt/4Y9FjieyU5w9Lp2zgcaZH29Yk/7tjB0Ih0qWuhlhxIzXc6XwvVd40+BU5k/30XUheSsH3aSPUy9Z2QVcAYAAAAY0Vgc4zsLBl1U7JI/4hOc/OhbmCaD9lVZ0PqxvOpxtWJvsLUo0vdROof4bGhY7J1kvsLc7JIVi3yLqP7oW+GH05bMddpGqnW16qwa6ZtXCFPLZ5njY9776jpz81U43X3o3bfanlqkdo26uVbxnJf6/LykcNWf3TW/NSNfXxeatnsm8hR2X3Iv9LsVBV7OyrdJ7MoMHPRrtQ9abKqaOsEZ4P7d7T7iPOXnN3Xu9vudzS9ClnpDoi6JQcrk3kyYE1XA+neL8PqxtzpmmA6yFwQJDhTy2Q3a3PtY8IJKrc90iTNSytk8GRPQHPyWgkvVbvvYHIAuUKN15nUkxjgD8D3URC+j3y9YQf+q5enz/63rpfWNalCmt1/mNHnkM5cPnnc/v6w/vCjxm+xsxWtbkOsIfcfj/QfaZaL7re2w+ovObkPTnO+XxyWQTXP6sbEH3fsP7LZwcvBQ3uSssHznc5f6A77D0nRY/l+32UKGAMAAKBQCGyO2QV5zYm0ZCrSoG4mt/Ycls3H1I2afY8VFxsdkh8eOizNR4qgM6eRAfmpVRU3mL4Z3pKhYu7pU7oAhWlq51DruXsg9bP1e51qvN73m37Ueo7KcwVLWBmR53r2qf1g39gnqHmrG/nNvzhYwHmViIGz0rm7Uzbv7LFuUPWNodug7ruyc4+0PpNFpsu40s0fvdXb0wl/Nag5oN2MMjmYO6huiqO/Te6fze53tNXZNmasRb//UI96zV18JpkOVur+Svt9tque/t2kgjhq2Z7p8Hm/mvdJPa9OdWNeTJmC4y2gHz6XtBmd0QPWcR1V07vpYEyH3m+7zyYFLt2Cm6yOS9GgMeP7KAjfR37Oyt796ryoWi5bN6bP2tyhrmHJheWc7wXdesD5/tDnWSID0+c6q6955rvEPp8DCgd9EJVtfvN0ztuU622+0/mpk433qGvK0HHZ+4YZlYXY3qhEM//lDQAAAAV23Tcamz4zwxPmyuXUH5YLFoTk/Png28tidm/9BnmqSmdVTIWAWLnd/E3dkGwOLI5QrtZ5tdXvWeyMuvktgibbmCZq6qX9EV38QVeJ9ysSVCmRLZuk2Wk6f7JHNk9mhikwwfg+4vsoN+qa+bS6Zlapa+oT6pqadX+S48Rc4+XQniyDkEa+0/loeKhFWpaNYXvctU66HqiVwf1qWfaObVkAAACQGRmbY2X1Vab+T1OkoaSUZ+ibzTIi71xLn0EDjAenoq3d9Nvdh5qmC/ncKitd/YGmq44LTDl8HyFnl6TzxzoLvkKan1wnDWbsZAndbjcBDywAFCDf6ZKFNkakZZn67tj/Wt5B3lC17hpjWPreIqgJAAAwEQhsjsHi+Uuku9EOrkx2gYVC0/2Q6UIG8SILxmJd0KB+jXQt0p1/jU9BAyAb3j7U7H7UdN9tduBTK7biLsD44fuI76O8nTsi217sl0HdF+bTkxvczFgoLEC+07npoGabboJ+oif/TMuF9bLV+ozo5Ge/AgAATBM0Rc9VeeLm0aH7wSqKvsgKxG7KaJ4E0X2T9RWynzEgC/Gm6BnoIkc/OyC906bADqYlvo9sfB8VxkJ1ff1+hez7sbp2TkpQrlIij22S5rnq+v1oLv055zudlw5sbq2Oyrbn8+m+pFJNv1K23lMr1UNqOR7PfzkAAACQGwKbuZp/p7y9wtxlmUICW9+bendTOvvnwUVVsrCszHvTrG4gD5/5nfxKrfNUyghCCamplIbbV8qGr6gbSF0sIk4X1+mXvt+8I53TqrgOpi2+j/g+mlLqZPuzTRK+eFxanzmSpqhXsnynKyS1DC81SdWJHtn1fLqCZAAAACg0ApsAAAAAAAAASg59bAIAAAAAAAAoOQQ2AQAAAAAAAJQcApsAAAAAAAAASg6BTQAAAAAAAAAlh8AmAAAAAAAAgJJDYBMAAAAAAABAySGwCQAAAAAAAKDkENgEACAXC+ul/el10mCeAgAAAEC+Qhsj0v5QnXmGXF33jcamz8zwhLly+ZIZSliwICTnz8fMsylI3wg/uVyqzdO4oePS+vgRmZprXimRpzdJc5XI4P4e2bb3rBmP/BTh9pyWxzWmtbvWSfsDtVI91C8dPz4gvefMeKQxQyKbKqR59qfS/fMr0nnZjM7kxhuk/dufT72+XP1IWvd8mOP1xVkGdf389TXZ9tbHZrxX6I450va169V7htV7PjFjUTjZ7YcJVdDjDMD0wfUMxa1hS0RallbI4El137i7iO7Dw+ukK1JrniREOztkR9Q8mYZ0YLPtngqREz2y+XniJrkisDlRxhAAanioRVqWmSdJBoeGZeiXr8neNy4V35eVZ537peP+A9JrDReaCfhJcQfTQnfVy8Zv1Uq4Sl2wjMGhftmXbXBkwrZnDiY1sFnc+z3deZswLN1PdEpnUQTHSuM8mlTx4z3d+Ze40fHcSNw2S7pWz9RDEj38gez4vTU4TRRBYNPzWR9Lx0+u+e4/ApvphW67QTYumynh2debMep77OrHsu+g2p7Z7Ncs98OEmtRAgDk3ZKoFHbgOTk957PeMx8RM2f69WRLWg7FrsvnVwgUPuZ6NlWvfZGlyz/tpdl2qUb9ZHzH3aBfVb/tniue3fWh9RNoaE/fDNvXb+tHxv7e15311QuaVDye4Obh/j2zbmxozQzCaok+Uc0dk2/0dsjn+6JFC/EGiuqpCwg9skran6yVkxhWNc+9I35A9OLj/3aK8eEwU6yL1wHJPUFOrrqqVlidbrLTzjPuvGLfnOB3XQPGplMj39Q9EHYzO8sfQ1U98fkR+KheumEGkd/lD2faTD2Rz/HEt/+vL5Y+l76o9OPjrj6f191G+rKDv6s97ggBa9eyZ0vLtm6T97pmZv8eKcT8U8jhDqhK5Dlb8+WfytdpP5T8s+0T+Q+2E53xkpaLiX2XVYrV8ehmtx6eyquozSQ4PFIU89nu41g4uedw2M6fAWba4nk1z0+H32YC6b7yoB4Yl+tt3iiaoqcVe6ZTNj6r7RuuxR7r1cl4clvP2y+OoUr7+FXXFnJB55Se2t1M6Tqhr0T1rJbLQjERWCGyWkOiL7gCSfuyR1hePy6B+sWq5bN1Yab2veFySzsftZZ3WzdDvWmenlesvlhf3ePah3n/RIXXxWhaWr2e8eLE9S0nv84n9rM/VbisorYNi7vHFkq2JTEIb15puIF5jn5WkT6Rzj32jVxTNBUvNbbOsTFZ94xc9POy6af5AWg9/JFF1c18dukG+fqP99mDsBxSX2lo7SHjPlz+Vr8wuzoCmVlH1qdwT+leZ/zkzwvKZzP+iGr/4X4szuJmr0MyUvqsb/IKdY8X1rEA+lh2ubWc/1O9cK9irW2gkv0aW9sRS943PqHuNRztlxyvFnPk3R+bNVf99cGUCgq8TOa/89T6vE4UqpPn7RZi4VsQIbJa0SxJ744hse7HfelZdPcf6f/pRF6kqM1iEGlbYfYjogMiON7xfLHr/7Xh8j7QWTXPkUlLc+730sD2D1clG/ceJoeOyK2OzkE9kwGRweFz51P4jFFCCnOCC7kdux++9TfRjv/9QduwZltZcuhmAcb3M080ip5zSuQ5e/cP18kbMPP5wnRlbZP78X+Uvv6iDrtfJe2p595+YIf9NP353vbz3JzX6c/8q9xRFlmn++z0a04HBmXLnbfZzm3qu7+rVa4XMOuR6Nl3x+6wohW+xsrKjv5mApJ2JnNeYnJW9+4etxLWNd5lR2VhYL9ufbpGul1qkvegS3sYffWxKpYTuWilbv1Ur1eamfvDEcdm374icv0P3cSCePvDsfvN0/2p9UvPQWmle5mTidcqONyolkjLOmsxHnWx/qUnCOfSxqTM2fT/P6fct6LMW1klkQ1hWquVy+lzJpm/H0F3rPNvFT6L/B9M/X8B7M/cTUSkNG1fKhuXu+Q2rfRGVXfvOSix5OXUBjwzLFhfUAW8e28Xu98J1TPh9hprfLjU/Zz84+y+3vjLy3Z7J/SSq7aqOyQ2e5Tuuli/4mMttvyfL/riOy2U/FGC/232d6m4BzAjnOHPts4Sxb0+bsz8z9ak51vkVz3nU98s+6UwK5BdmezrX7NlquZ0clXT70MjzOmhR26nrgdqsz+GGu2+SFnUz5umnMd7vVaZ+uGZI6LbPy9ZlM6Q63kRO/eiOfSi7Xv04cP3svsJ0szozIs009vLp5fhIau6eJc0hJ3PlirrJmyGRlHHWZGPg9Gtl97H5prpZ3bjmhkQTwKtqPidSbzBTmf68MvYV5upHy0e6/jMz9bHZcPccte3UcseuSavPts1lP7jlNp1Zv3i/jDPUcs2SDWq54sd27CM1beH6U/M9pjPKdz+Mff1Ct81S59BMdQ6ZET6C55/tceZy40yJhG+Qle5lDOqrTy1be4ZliwvoU3Bijxf1/js+r97vXmYzv6iaX0DwZ2zXwUlS8an8h5C6Lbp6vfy3/uIJcuqs0rvUtr/2h+vlH4aSl+szWbXsU5kv18lvf3e9/PpfzOhJkvN+N/0bDv76Ixn6mjqm3ce8eS2qXpOk15z5pO8T0bkGeefL9SyDXK5nKZztlH2f2hN5PSul61IorO5X1tRKeK7rt+5J9bv11SPSO2BGuQUU5Mncv6b6bf6Y+m3+gfqdbxUYUr/N16t7iUZ1f2C/wSo+tEu95v8Z6v1b1G/5pa7f1yeP28v5Rb1Ms6V7p7r38Vtmxe7zUt1bp3lPspBa161q21Tr7EvLsEQPRWXvK8nLqO5LHwu7tmE6AX181qj1u9u7fnKxX7oPqvucaMC9+Ji2p+HEd3IoJOSt71BMdRwmxjTP2LRvstt0hVvXjX31suXS8mREti43I1LMlg365lzdINsqJPyteok8lDTugXUpTSrGQ+gOc6L8ITWtWgfiup5sspYrfjIq8b4dA6L5DQ/pPiG922X8qIuO2p4t9yTPTy3zsiZpU/tiu89yjmXZ8t0uboGfoR7u/dB7zGTU3rNSGiaqr4yqClmw0GzX5OVTx3dQn6wTu9/z2w/5L5s+31tMX6dmlMUcZy9FgvsyyXN75i2v+U30eaS2pzpegvZf8wObZHvQXxnz3Z5mGvsYdf9IMesYsA/Her7bWdfD0vdW5qCmdv7qp9b/Q8Oum4zLn4jVG4F6LbBfH3UzsV39YG9TN3KJoKamfrCHZknb9+ZIJKVpnP6Rf5PpK8yMsqSbRpshG/TNgboZsF0v4WU3SOTupHGrZxX0e2xeeI60fVvdZLnXTw2HV1dI193j0OSwgHTQMziomf9+yG86RW23BeaY0cvlObZDn5e2TTcU7LrU228HE6q/9nlpyNg8s0DyXD8dfLbPITNinOnjoksd0/q88Syj01ffHTPMmIT8l22ijxfz/q8lb08zv2/Pke0+66flfR1Eks9kgbXtr5N/SglqatfJb6xM08+k3NNMfXLkv98/kQs6m87VHD1UoY+tT+WCTlyyR8X1Rj+ysuz091bgdU4d7yv1tot5+7/kehYsn+tZ/ib++69krkvhddIWUfcrnoCc+g27dLm0PKJ+z4dTf7eGbvY/SAYz9a9Zc6usnKve9/4Vu+DQs+q3uSsIp1UvbZKt631+Kzvvdwf9FHs518n2r+rfz1dlIE3AcsHNeh3TvydB3Qc8pu7lImr54kFNrULCjeo+4LGk+4eaOVKVVVBT8el3UwdQ2x9JXT+Zq+5zIpuk3XebjGF7ujm1NZbdMiHxpKlgWmdsJqLaOrsy0Uw4tLBeNn7fCX54o93uaezxdnDUzqxLHReYZZlDZltwxmalnZ2lAxnqWcrrJsvIWr/9Udm7N/GXASsrTwcHktbP4pquW20XJ+tKZ7ptfSBTRWAvHVDIVNnLeY8Mqc/1ZE8lsmnleLpMqey3pSXf7aI4yxo90a9+TKnPsJa5Ty2zs2xqmRdeSsmM8/wFRU3T7ZvNllnm7ek+HrXkfai+KK11T3+85L/fc9gXY9gPttz2e/w40/Nzne9WJt/3m8w2S17HMWxPD+dz0q2Plv/8Jus8srMevedAw8a10mJt60JuT7N8ejDlHEpcC4cKdR2Mc5Y5m+PfcLJMPJkk+ge8O8sgmfqB7lQXvfqxdJ/4SDrjGYwmY+prM2UoKTvFyTDUN3/Rw66sR/WDP7JG3ZxYv3P9s1X0NHZGhVk2672p48ZeJdT9+erHXuwj2Rf90GR+6HWbJS3WOmSal9lGeVZ3zZSNqQW9J76dA+adz37Q8pvOuz2tfaamdY4Xnd2jb4S1QlZ4TRw3Ssoxmr3M+2EM62fOvdRpbpCt6uY5u4ycHI4z1/yiv/5Q9r6VCHhbWVbqtWq9LIGZS7kd0xN9vCSOe/WZnmwtJ7NcTRcL2I9m23g/0yxL4HVwkhVjxuaf/6v81Zf/VWYlLZP9a8Ywy+2f0TnBct3v5v36erBL1LGojjd7Wtc0B0W26oy6pAzmTFmb9uv+5x/XMx+u+eV3PdOc9c30Ptf1Rc9vAq5nFrOOWR+fk0L97tQZf3PV79ZOdb8SzwpUv+fD6ve8Durp362ZMhxNBme0U/0uTteXg3nf4EV1RZlbIdUX1e/dn6nf9QN6vur39RYd2FODJ50MRIf6Xf6s/bs8nqFplsfKqLSWU0mbMWo+I+Wz/TjzU9tFZ2e+rX7PO+tfo+7lvqPu5eaq/R64vmb6bCvEm+2ieTMs1X5Yv1LaGu17i5T9kPf2TGXf23lbD6elm6KbGFa2rcymkumbsal2/AZXgNLd92HsnO73sMcq6hIkUUDikrx53P5p4R438AdrVEGFH7D7TEg81Ilhgpq6+bM3CKAuijqQoVhN4l0381rsjQOmb84KWXmH9y8GIfNnQT1dInCgp3H686yVO3Pp7yFLg8d1cMQ8seg+RNVyPq6L5RTqxMx/u7jpoKa+YGx+XAeQ3MuWGtTUdCGZ1v39dh8uJput6yWdQZdFNfR86QCXLk7j2YcHrEprWlX1ZO73wuyHrKnzfasJaiaf73LurHQ+7hT3qZUNQdl7OW7PMctzfhNzHinqM1ufUJ/pcw70mop+IrOlJigLNtfjc2PY+vGk+7lsVfN0T2fPU63jE3sKdh1MMH2PDuVaQTGguuZVv0qcav3uuMFeP+vmI/Ej3faJ9L51Tbb9fNj7I/1GdXNjbgr0DUT8pkC7/LF07lHHu9Wf1EzZ4JNlofsXs286PpE3Y3YWg3ucb19UY2Td/L3qBDU1vW5XpPXX9vx9q+JOskRwJ+CmJ9/9MMb9Z9EBp5+om0fXtLHfX5MOs5BVVsZTYfS++oHaTx/b32OzZ0qzzrL9ns7Yy6J6cL5yXD87w0ud74eTp/lQth3WAZHkPvzGQt0M68CeYnXZ4AoCaHo57XleLytvKcB+mMTjRf8xwtsEVV3H9Prt0UVTXMuRIrfrIHx87jOZpf67pvvStOim55/IPerxV1UmN+VP18k19d+sIsjYtOW+33UrhdhbH1p9aVrfAzfa2ZbRE8GBpnjWpu/3humfUx3zb/oE17ieJZs+17OSuS5d7Je9nqbO6vd8VP1ufXSPdGTRbNvO4ByWCxliEk6mZ7XObDyk7m2fUb/rrSCcpn5fv2oKFSdp2OIENXtk225v83hrOTv172v1erqMUZ1Rqf6zshszsOen7h3Uuu/QTc7d6z+g7uV+Zi9n1c0Bv+fNvLIrHFQn201QUwdKt3majav98Iq6Bzqk4z/q/uH2pPuVPLdnsAqZN88MZmLFsOwCtdMtqKlN38DmPJNSfCIaEAG/IhfMkJ+hwdSDxT3u/GD876jjalDd5Heom/ltyX0vLLxVVlo348dlr+dG3+WNd60fENXLb835S7yQQZzYW3bAr/qetXagbzybaxdqu5xQF/EcLxgxHXhRFxqnErq+UIXvabKaz26/q3Db06Z+EOisPfPMbSzHZsH2+zgfnykynu+XpPOX9hew//zGZ3sGy31+E3oeGfEg/sJKabirXrY/FJH2pyPWH17sDOWgL+Nc169Svr7cBKZ/nOavrJ4AqzLRx5lD/bDerH9sJwUCrOqprmyThBny9ZD5gX8wTbbA5aQAwhzT/Cr2YUBWhJrnCXt+1aHUmzVPUyzDPc5pslU4n0rfu6nz1GLvOjeYMwq3HwrAk7EWlMmR734Y4/6zjxf/bJ3C7ztbTAfYf/JBvHKwvskNf22W1WRw+20FuNn1GJ/1K1iw1wRedMB7r0+2mOX3dtET//2Xo0k4XpzzslrtYyvgk0uz3Zyvg8hKxb/KfDNYPIFMlzHt94/lqL7Iqu+Bhlt0dqB6rs8t59hPdvlj6dPXodANqU2Wb5tpB11iyd2GJHA9c5kG1zNLSVyXLsnAB+q/uctl6xb1e77GHptwyRNE9Kd+N39F/W6+2C9vZniv3RRcB/D2yLY01dM9wceaetmgsw4vHrcyGdMZej/N/fIX7fuztO+x1Mmden5SKy2PtEjXsz6PR3TrwjTMvLIpHBRabydTDB7aE5jtGnvb3Hfd7C3enNf2DBAbtC5MyNK0DWw62WmDg5kPqmKhm2bqCLx+tOpKWUr1H64kZUsZTiCnarm0ebI83Q/7Ly3JnJPI6iPUHRzR/duZZqJ+gd28nTsi257QwT4T6HvSLN/TJqOxkAGaMWwXt7EcN3YldLUfn+iR7hN6P+r+WNP0RzhBJnS/F2g/ZCur8/3CsB1Y0f0/WiNKzESeR4bupsCqvvfkJmnRfZfqPiw9fV8WilOx/aoM+AamA0zwcZY/pzLyJzLg+wPfn5PNMZjuR7xT7VP3R2WNKHJFtJxWkzYro0QL7nsr3/1QyvvPrhysbgR/fk26rWxfu5/U7QXLHspPzATmrb5h3YEOddO+3TRP9Avo58W5MZ/9eWn73k3S5fsw3UsUwKQcL5c/lG0/10EfE/D5tlmvTSazbaL6J0QiiDn8Z/JbK3vzOnnvapE0ly8gq/9LdU5Z3ZMk9Y2Zygl+JWcROtmHH8u+tBnFNq5nynS4npWQ3t17pOPksNUXY5sVyFO/5der3/Lm9czU72bdB2XG7MRKqblJ/98vR30L4ah9dbvdOtQdfHTGpcvGzCZjtMHqg1PP234eyFQzHwt7XpkzWDU7ODksfW/net+b3/ZEYUzz4kGlK7Y3av3VTJaFgwue5CveHNQurBEPADxpAgAneoKzn/LlpE4/oS7k+/slOjQsg1WJAE37Q7lczEuEbgL9fGc8SK0LUE3qOk7GfkdhTeR5ZPWHafoiHlLz2t9jZY+3qof+44vTpBwoSbpwgb5xvPqRdOhm8vpmr8iLG02Kyx9L56uurgTSFfKYCPFmiHahi/gNuS5YpUfHrgVnI8HfZSfoM6zOhY8levVTGZydCHS2q/Niyv0+KyammXnCdfLr0zPkv524Xl53GjikNFcvYSYrUIuaIj9p/f4jq8myVQjIjIpnH2YMjCbheoaicUl6d3fK5p3q9/whnRmofsvr4jhWgDOL1nMmEJg5O9EEQH0K5zicIJ87IJg58GcyRtMWBTJBwDTzdjjNu3Wz8M2Ppn/4Z0k6AcdsihRl+V6TAerNvMxvewZxEnOQnWkf2Kyu9qYPl46zstcKiFVI8/d9AmJO9tmJnniWZ+DDt1CI/WvJ+ow4XXyjR1qf9/ZTV1Dn7L7ydjzeaTXb1lmNutm2rni8NVOl8mwy7ca8XQrPaUJcHCZovxdyP+SQYZn2fHey+3LuS7EIjfd5pPueMQV5ul+0+5rV/Vfq7PGYXwZ5waTps9NPQY6zK3JBdx2Rw3GWvxlSk0cGlLeCehInC+NqkVchLrLltLap6VNT9wFq3VyGZqXN4Ml3P0yF/RfvSqAo2EEJ7/LoYhh+1ezHwMkm0gVNfvJB+kemghTqGMj6e2yyjpfLdl+/O/ZcsZrv6uw23XxXVy/eGtQHHsbuX66TEf3/7H8Vu+1MqgqTzTnyp6mQwfmxHP21OrfU9ddqhp6R00d0or/JkNWM/VPpjubXtJjrWdL1K/lRwAI7U+L3y3gaUL/nX9H9aqrfqTvVb/mLOsC5ViIpzdO9su1fM54JGZjZmUtA0MVUBk8ftMw2qzQhsP/MjMy8Tr6b2x87AlVKZI1pzejOvByX7an2Y7r+ERE3bQOb8WBSUAn9heoEsJo+jrMx3CzH9r5mFzypWi4bk5sxn3tH+vRr+WR03rXO6h+vWxcG8dz8pxbfKITQXWmyyM6dlR1O34cZg9BZBD3Gsl3y1PBQhj40nYDaZCvkfs90XBd0P2Te74nzPWh+iSIzg8fTdHJdxCb0PHIM9cubniI+DvXFbYYK46wctTJAA/6Q41hY6X2tIMeZUwwux6BqTky/YnK9NK9JkyFyo7f/yfjNl1//YpZEMYB0/Yzl7cYbZPsmO4OkPavAxvUyz/fwy3E5cwgC5c0ENZ1l6X31mpVFFF49J2Vb57sfSmn/Ndydoc855wZ0st02y6p03P3zD+zgW/yRWgwjo0zH2eU0/fvlLPMfNSbjeAndliYbU63/DqcPvHTBibzV2V2dvGS3Nihe472c18l5q6egz+QvnGJBHp/JV7+ox6v3ORmcvkple6rr7VtXZJv+o5J5nkm86JCVYWn6rA4oGqRxPfNR0OtZZpP+/Ze38T6P1OfrfjXNM48B9Vv+oF3wct4X7VFB7KzAzMGzeCZkYGZnugzE1MI5FqtCuenvMl3Q0gQBs+pr8n3rIijVXwnuDz8UTroHcHMKB2XF9HEqtXKnFaVMFVq/1qrArvsY3etqRj+27ZnMqS+g9mPW3XCVznV+PEzfjE3nhlc3u33a26dg6K510u40vx03JgtIzX+DuzL2wjpv/4ZpJQqepDZjdl6rkOYn/frYq5SGjWo9X1LrbsY47LRnddEsRDXqTHS16geaRBfQ0SdgaKF3niFX/47B/SN6gx7e/iF1URP3Z+a/XfJiVd+vsPrQbLeOs6T108eaWb/oLycmQzRIYfZ7tsd1IfZDDvv93BHZ57xXz8/9mlq2yNObpNn6xuuXfaVYRW7CzyOjarlsde9ntd+sY1pvT6t4UOH07jNVBHV/mepciniWx8z3yU3S5vkiL8z53nvM/oyCVOgP4FR3tZo8b5olEc9N1wyrv8f2b1d4m0Nf/lD2WReN66X520k3ajfOlMgmtd7Wb6zs+hnLVUP48xK2f8NZxUWyuRkKr9ZBNFewJKfl/FQuWL9tdZVU72d4+h8rgNQbqY9lh6kImxJ8znc/lMr+u/EG2RCy+5xrV8dmw43egIB1bJr+3tJVMJ4Idr9t18u8MVXtzfY4S/TvZ+2/lD4nZ0jDHWrbfE9tMzMmlfePGt5+9NT07mNioo8XXbV4tV1IxWpunrzf1Tydfv7S9pOXp9DGsN3ViVI9gX+MztVELGf/H/7Mrnr+xU+tSuj6Vtfy55/JqsWf2sWErv6Z+gUTrFS2Z34+lr1WlyEz5evqPNTN0AODYVzPbONyPcvBJH//5Wu8zyOraI3uV/Mx9Zs1OVBXo37LmyzB9JysQHUv5mq2Hgqre7GkrIOMzaKd4GNSX5q9v7GvNtWN6v52vf5ctaw6oLlF3Yc80mQH/ZRsCvXoYGV8udTnNKj1ThG1C33qgkptj6l7FNd6OPNti2wStXvSW6r2mevz7WnV55nnDmf9whF7P8Q582q0t1v3z7z37vluT19OAdQT2WeZTu3rfGbXfaOxye/Pf+PqyuXUwMGCBSE5f36Cvz4W1qsb4YAKWrrPuD/USniZOmif6IxXUm54yK72qwv57DD9DYY2qgP8noqM45I570mhm026qpz7zTOhMh6UGdy/J6VSd+A8HGo9dXViT6XodNvFGFTT9f2yTzp9s7USnPn7LZtDFyDZ+C3TV1+QoePSmq5Jctpl7peO+70VmPPaLko265NCLdv276dfv0G1z1Mq2/vIPH/nePAet26Bn1Gg/R64bZOOay3f/RCX035PnCv+/LZZ/tvTOW/TS/7c/Oc30edR2n2n9lvHcZGWe2qTrltjOD61jMeo/+eO+TjTfwHVRYYybb+xUjdc7d/+fJr1+1S6f55czXOG6wbAT+o0DXffZGWBRA9/IDtMUz+n+nemcW7O59j8ls3hLKNuXni9+HcZlG76hHiV8mS6+VyGiqbOtIO/HpZtATdKmd4Tn3/K/HLfD7Z8pktsz6Btls26Zr//FJ3duSYRCPUzqLbJtiyqymZetjGsX8ZzSC3n1Y+l78RH0vl7/+2ixfdzMp/jLPC9DjU/Xb033bYNXuaPpeMn7sq/E3u8hG67QTYuS7/fk7ObCyX5uh38uyd/tbWfyF3p1s2hrlv/rd+/mfdELKdWUfWp3GNlZvr405/J/tN/pr4Bg03UcubstlnSpQOJ6a7h2bxHZsr2eHGb5PMmCdcz23hcz7JY34SJvZ4VwkScR6H1ah5W4CzAyR5p3Z2+JV3QZ+g+KhNVvtVv8sfUb/K56jf7o977ZIfzOd7pbA1b1H2OVanca/Dkcdn3fq20NIp071S/yQOzRtVv62d9Eskuqt/az/j81g6vk65IcGB3UG0XXaHdf7s462qeJsll/WzqfiNl3ca2PZM5x1q6WFKyor3OT5Dp3cemVUXYqUztMP0JPt4nFzKkeY9VbK8uHJPUv6K+wT6WOSU7IZG1WX3PypS/OOh5ONW3vfNx1tPnZv7cO7LPs01SVVfVSnOBKnk7VcJbX9QVnb3z1YE03YdfxmCC2Zf+0/elXFzy2i75sgq6qHV4Ue1rK5sxQS+fLriSTVBz3BVov+dyXI95P+S039W5Ej/OzCiLmvcJNa/7/QNtpWKizyNrPycf02Y+us/NXs8OLRC9fPfbhZG851L6fTj28930aWxlqI5f1qbOYNj2E7tAx6Dd6sb41LrJav2J34/4T6RzzwfSelhXLjajLOmmKQydZerMc/DX6W50DHVDtMtaVu/6DcY+ko6MN0C22Fu6sINpwubQN1r9hc8Y8xN765pVqMLub9OdRZPvfiiR/aeOzR17hlP2naZvrDt+rm4gswgCjLvLH8s+q7+9YNWzZ0pzhorHuRxn+r1ONWXv+00/eHsyb9ttVn+V3s/W27VbHRfe77GJPV6catH2/PyWTx0T4xDU1KwimUm/mYrRRC3n8ND1sj/2Z/Kepx/N6+S9P6jxGYKaWqlsz/w52c9KLEPRIK5n43c9y8nkff/layLOo9grumiQ+s160vubdfCi+s3aqX7LZwhqarFXXrOqqieoaQ/1eJpNZ9MsOl0GYu9udc/Rqe459HLqZTt5XDp2qnva3e9ITcbCQdpZ2bFTTX/RPFUGL6r7iIMB2YzRA6af0aR7FGu+HWq+6baLugd8Zo+1Td30/PS0fkFGe/3U/YZr+fS20tux9VG/gO3YtqdXnWzUAcqh4zkV7p361/n0pnfGZlqZM4umJrPeki4zqVIaHtpkZaNNt78ETF3sdyC96fqdAJQKk8kj6TIIZ0jD3RVWpup4ZPNgHNy1TroeqC3+3x0s56Szs9CzyRQsBVzPitoUPo/GzmRiBmVeIiO71d8Y7jem6fE57auiI4npzyF9AZVLcn4w09+GUVLY70AGl6Tzx7qfT3Wj8WSB+uAFUDg3Zuhbz/KJnB+H/iAxfuz+v4el763ivjljOSfZjbrvTPX/1eCiQSWF61lRm7LnUQFY/YSq/7PqRxIpdHNyO4notbyTKKbr8UlgE76q71lrFViJd79l6CIkkYec/htKtNAKArHfgTR0U3jd/N4pOmdGAygeuhCS7iYg5XtMF6S42+k/rrgKUiDAwnrZqn93nIgWd5Y8yzmpdF+wTl+Uk13wp9C4nhWhKXoeZa2mXtqfjcj29e7ioYqnsI66V3yFe8VcxfvI1LU38r3XnsbHJ03RA03fZodZFT3RfemlLbaBUsN+B7KkfjS0f79C9qlzoZdzASga3oJIAXTfcmmLX2DyVaobvJXq5qxWqtXvjg7db7N5pbiwnJPGp7CO7pexKPrGLBCuZ8VmCp5H+dCBzUcyFPJMWzQIQXRgc2t1NM/aGxyfBDYDTe/+1OwKy7VSVVXh/dGgThRdFfvNNy6RXj4Fsd8BAKXMruQ9U6pmX+/9HrtqVw9+8/ef8D1W9Opk+0tNUnWiR3apG7zi3V8s56RxKqVrurDNiWuyI01l8FLF9ayYTMHzKG+V0rBlrWxY6rpf1IV1fhuVva9M920zWTg+CWwCAAAAAAAAKDn0sQkAAAAAAACg5BDYBAAAAAAAAFByCGwCAAAAAAAAKDkENgEAAAAAAACUHAKbAAAAAAAAAEoOgU0AAAAAAAAAJYfAJgAAAAAAAICSQ2ATAAAAAAAAQMkhsAkAAAAAAACg5BDYBAAAAAAAAFByCGwCAAAAAAAAKDkENgEAAAAAAACUHAKbAAAAAAAAAEoOgU0AAAAAAAAAJYfAJgAAAAAAAICSQ2ATAAAAAAAAQMkhsAkAAAAAAACg5BDYBAAAAAAAAFByCGwCAAAAAAAAKDkENgEAAAAAAACUHAKbAAAAAAAAAEoOgU0AAAAAAAAAJYfAJgAAAAAAAICSQ2ATAAAAAAAAQMkhsAkAAAAAAACg5BDYBAAAAAAAAFByCGwCAAAAAAAAKDkENgEAAAAAAACUHAKbAAAAAAAAAEoOgU0AAAAAAAAAJYfAJgAAAAAAAICSQ2ATAAAAAAAAQMkhsAkAAAAAAACg5BDYBAAAAAAAAFByCGwCAAAAAAAAKDkENgEAAAAAAACUHAKbAAAAAAAAAEoOgU0AAAAAAAAAJYfAJoDMFtZL+9PrpME8BQAApSO0MSLtD9WZZwAAAFPHdd9obPrMDE+YK5cvmaGEBQtCcv58zDwDxkn5EulurJOQeRo3elY295yS0+ZpaaqUyGObpHmueZpk8NAe2fZK6rmX0V3rpP2BWqke6peOHx+Q3nNmPCbBTNn+vVkSvvqRtO75UMbnijlDIpsqpHm2OmZ+fU22vfWxGT+JbrxB2r/9eak2T+PGdTtMZc4+/lS6f35FOi+b0XkpwuNl3EzE+Zev6bQfAnCdSEsHNtvuqRA50SObnz9rxgIAAJQ+MjankRkbfiQ3v/A38jnzfLwsnr9EdjWtkbfv22Aea2TXknmy2LzuoQON+j1NS/xfVxYvsT+re0m5GYMJozM1dVBT+qXj8UIHNfWN+E3S9T312HRDIth82yx7nHpsv82Mg+22mRJW/w3GPg68SQ/ddoNs3zQnvg31o33TLGm40bwhkxtnysrZ9mD112aSpescp+5jtAil7vc5sv2OmeO/zEV/vBRw/wWdfxmvWTogavbL3TPNuALjvB2jqf99FNvbKa37h0WWNUn7xkozFgAAoPQR2Jw2QvK5r1WJvD8gn5gx4+He+jXStaJOVpWVmTFamaxatEK6mu6Ue82YSTNySpp/sU9ujz+OyevmJSSrlMj3l0u1DEv3Ewek14wdF1c/8QnUfSoXrphBWBpqdVDkU+l71/8sDt0xR9pWf17Cs683Y2zVs2dKy7dvkva7swh0Xf5Y+q7ag4O//nh893u2Ln8o237ygWyOP65J1LwEdVzc7bffr5fw12ZJmw5qmzHjohiPl3GS6fzTwtZ7kpiA6LiaRvshUKGuE1P4+0gHNztOqO+Ee9ZKZKEZCQAAUOIIbE4b8+X6m9V/4xjY1JmVT1XpgOaovH7msGx2goeHjsnro2p0WZU8lSYzE2N1STqf6ZDNjzqPnjEFf0Ib10pzlbpJ3v+adNL8vAjMlDt1VDL2oX/T4dtmSdvXdGDrU4keHnbd3H8grYc/kuhVdTMbukG+njFz8xPp3GNPNy2bs5YYHcxuCZn9/uthaXX2+8+vWftcdFB7XLNNp8vxkuH8c4RSsyXtgOh447xFdnqf178NKqT5+/XjeF0AAACYOAQ2p4s777CaoP/p+D/azwtunjy4yM7SfP3YQdl6aiTRX+XIBdnaYzIjy+rkwfnWWBS1Otmo++IaOi679ubRL2dWPpEBk2HkceVTGTSDU8aNupmw3Zyx/Y4ZZmRuQnfcYGV9Rfv9gxZO8ET3r7fj994/X8R+/6Hs2DMsrWPuT3E6ul7mmSa+xWembLSC2eq4OHxFdrzlyjS7/LHa5yZjbfbnZeO07dahMPsv0/mnRWP6tZlyp2dbOwHRj8kyLmrT6PtIzspe3SS9arlsvMuMysbCetn+dIt0vdRCU3YAAFBUKB5kzJj/l/K5b22QmV+tEifs8Mlv/kFGXuhSP3cDzA+paf6T3OCaRt6PyocHfi5/POq3LiH5wt/+ndzw/gvy/gs6wKim3/BtueGbYdc8X1Dz/Effec64c7PcsG6lfO7mKjNmSL2/Tz78ZZf86T0zKu4vpfxvN7jem05URh78kfzJPMvL/Dvl7RVqXumK8DjvGTomtx+5YI9zivmkmU5ngnYtKpPYmcPSfGrEjLXZr4nsPnRQntMvlc+ThxcvktVVZfFMhJiaX6uan39hoHmy674VsmqcigeF1kekrbHCPOuXjkfdTbrrZPuzTYkmiid7ZPNuV4f+NfXS/ohuCq7EX6uUhvUrZUOj7vfSuKg+92fqcwfM8zjv5+dUPOiuddL1QK0M7lfTZApszt8sN/7gr2SGOnbt4zqZOe5vTj3OGu6+SVrUjhr89bBse8sc9fECEB9Lx0+uBTSpnCGh2z4vW5fNlGoTtBiMfST7oh/K+VvmSNvXxLcoitVU2/3ajTMlEr5BVoauj2/Pwdg12fWqXx+WzjxnqHk6TX7VTW/sw4D3JzjracunYItTGCR4m/huy4yczzVPkwR/lplOnKIcM9T8Z8kGz3b8SG2X4IIdodtmefafn+D551HExW9fX/1Y9h1U2zN5X6hla8+wbHHqeNms9n8y3eflxmW6ebgZkfZYyXN76v7/Vs9MXxzF9z3OfrePxTd1gHTNDYmm7Fc/leiJ1AB5/seLSy77wSOH868A+8/LWe+A889s48FffyRDX1P73P2Z5rWoek2SX3ML2C59Jz6SzoLthzyPszHL7XptX8v0tv5IatTyNavlszKSdfD+92odUsZZk/nI7TqR//dRviolFF4pW9eo73NT9G/w5HHZ9+oROX+7/u2gtsvOTulM+W43vwO+kphOZFhNG1X77qzEUt7vQ/ef/aT6fZFDIaGGh1qkZZl5YnVRo5aN1hwAAKAIkLGpg4sP/khu/MGD3gClMuOrfyU3vvAj+YJPhuGMO/9GTfN3Up40jdwclhvu/zu5cUM8ipEwv15m3izyydB7djDoBTW9K6ipzfjqg1LuN62e3/1/lRSoVPNWy1j+gx9JuZUS4jK/RmZkFdRUCtA8fXHZF6z/Y4MDwcHBa6P2jUVVzbj0tWkVGWpcIVtcQU1NDxc6YDnhbpojoZo62f7YJmlxBzUtw3I+mxuZHDSsqFX/DkvfW1kEQqvVsab+s45rX8HdIJy/+qn1/9Cw65XLn8iQ/l+9dt4akcy+OW9b7Q1cVIc+Ly3fniNbfU4fPzrI2fVt+wbZvT31cMoN8I3qBjk+TyeooqlpQ7Ok7XtzJJJtcZ58qPlbhUFiwX3n9ZpMsuqvfT77QkFjpbbFArNtdHNoz3ZU+6MtoAm03SdkloGnAgjc107foz5ZtPkvmz4+bzJ9XppRliyOlRy3ZzxLN00xqXjGmf5sa4TXvLDaF2rbePrnVMPh1RUFL3STz36w5HH+FfTYyuL8s30iF3TWn6s5eqhCr9OnckEnyNmjkuhAXfB2aVb7oeBFa3I8zsYm3+v1DNmgprMDmJo6JpfdoLZV0rjVhetDNr/vo3xVSkR9n7dF3MFJtV2WLpeWRyKy9StmRArX7wDXdCIVatomaVPTbl+fRTbluXekT6/YslsoNAUAAEreNA9s2plkOjipsx//9NIP5PKDfy3vW48fyMivouo2pUpu+D83q5/YLlaQ0Q5I6gxL9zSX1TTajG/+p9SAqAkAydf+k53h9n5URv7uB4n5/cZ6l8yoSp5QLec6nXdnL6P9fjO/l+xl/Nz9SfN7r8u1XC/YWXLv/4NrnOvxt2myUrN06yy7Gfq5UW9GpcfINbH/uP8FuaWgBc7L5EuL77SyOmV0SH546LCrONBh2XzaZIeWsrm1svU7TRL23MgYH1wpcHZNpdR8Uf9/VQayyMaYUWXfFn8yFLAUOsiu//cJbMbcN5Bxn9rBgQAN+sbWukH29iXZ+nPdj6S6SfcEPvxcL/PCpj/Kqx9Lx8/d/VEOS2s0OZtqpmy3Aj9qUL2/29N/5bB0/PpjGdSfOcd+t5/eqN3HpaabiufaHDx0y0ypVuvbnbJsLr+/Jh3WLrCDRF2bZknkNs+Vy0eiXz73o/XX9g1+ZnpeetuoZXPvi8NmOf2aQN82ywqm6P3nneYj0+RTZ0bZ4zJm/2VDzS/e96ja9vE+KK156n2nLs1fU9vKHRhT29J5T7wAic76ck0bfyRl34XumOV7fOo+L7utY+B6aVbbzD+YkMv2nCE1JlDkCcQkixeVUe9PCaheL2G1L3T2XMfPzXJax7TZ/6FZSUG1MRwv+ewHSx7n3xj2n5+szj/Lp/JmTG8Lpzn6DPm6PtbVcr8ZVHjmts9bgTqdnZl8LXL2Q2rwbhLO2zzlf73Wr6nls47LYfvcUcvVHEoaF9/WY5fP91G+GrZskmbr+3xYop174n1jt+48LtGLFVI912np4RVaH7Z/B+iWGjvdfWrvkdbOfhlU02b3J+1L8ubxYfX/bKnJsohQ7z61bFaUV32P0fc2AAAoItM6sDljw3+SG6xMMh3w+xsZORpzBV5i8qd9P5LLf/eCjPxf7sDfX0r5/Xbj3j+99Ndy2dNsXE2vp/mV/uVXJTPD3lQEJwBkZVL+6gfy/t/+SP70nhMMUvP75T+4PsvH+33yoaeJu5rfUTU/HRT9u7+RPwYmzAUHlgqjXG6xEjZH5Z+vWSMCqNd1EaFxsKqqymqqfnvPUXl5xB1cHZHTaWKtpUPf6Oj/7ZugVvfNzKvZNSPL3hyZZ8X6h7PKUJmhtr0Oun8a1BFZxozOgGqzV30q0954g9gJzfrmVjdBdJ19l3U/kqZgSgbhkG42qm6y1ft7L7vPCjXPpKCj07ee3ZT3WlKz0E+k961rsu3nw2maQyrWstk39LkH60w/ijo4kiEg2vuqDm7YQSJdNEZne3V9b45svyOLauj50gGZn1zxbJdYPMiqroRWxlqCncFm9wnpneZD2WYFVgoXqNCBpcgyO+vQ7oPSm9mol9Oe5/Wy8pZMQeAsqONzqwneJR+fOsDYuScRjNkQlJ2Y4/YMPH+yZDW7ffVDVzNwfUxfiQfJfKt85yz//VCQ829Msj//dJAu9taHViDV2m4m0zN6Ik0zaLXurT9X1wWfa5HeD/Z+9wtKj1HOx1kexni9TvwR6BMTMPaO8+0Tc8xy+D7KV029bFiqB9T1YGen7IgmWkbEBo7Ijmd6JHrRjAgw+Nu+pO5nLkksekC2PdORfZczlgqZN88MZnJOLdvj6nfH/Woe49b3NgAAQO6mcWDzL+WGb+qATFRG0mUsvvePnv4rZ2zYYBXh+eRXP5CRo/a4ZJ9E+6zPS868tANAOiD6A7m8L/gncmoAKCafvK/+u/mvpPzBv5QZKU3jYz59bLqYwNL4FQ4qAkPHUvrfnHp0hoZ9E5Q4etRwgZuh5yYkM6w/DvQFHoOfW27/IcA3o1PdSG/WN9eegIHJRvLLpJpjmk0GViZWN6VmKK3YtSwDjCbjSt+YH0wTnPAEJArstplWYCdtc2OXmA70WNlXTpbo9RL+mt1cd3vGDM5c6e3i3++c06wzHwUJqmhOE+KrH8neoMDX7+2iLtWhAgR/Mx6f6tg+YR/X/vMbn+0Z7FPpe9f/2I296wTIZ4x9u+S9H0rv/NMZx9bfH9V2a7AyPdVzvc7OseEj/seUG9U0t90g2++eI+2b5ljFxuy+edNnhOdugo6zMV6v/TKR3eMKfk7k+n2Ury9W2NvlZNSn/0ztSuB2ib3db2c3N66V7evrJFRjj89HbHBcIsMAAAATbvoGNp0sxt+8lVPRHCc77eNodrc4CSYApG7dPvYtLKQ+O7zSWia/ANCfXtBN1YesPjhv/MF/l5tf+JGUb/hLex0ysANLaTLqxmxE3v2j/r9MvjTLGhFAvW63WC+42LVxSgUtItFOvwJBk8z0GxucDewc94U5/pxsv8Ex3tBmP71TUfkTGfC9MR9/dj+KwQGoIHYldHVDrptAW9lOdr+JBe+vL0dOc0+rea07C033+bfazupL27Q6F05gZfbnpe17dlX61McsOyOwALI6PjP0eZm7Qge9khRiOfPeD6V5/ln93ap1bdGZnhn75VTHjQ5mblLb4NsV0qL7Zg2p7ZWxS43iV6jr9VQTutk6qGXw/TxSrQeOyDbTXD3cqPvUbJGuZ9XjMd235tgCnQAAAKVq+gY2MzaP9eMEaQblkywyJL2fHVxAxZG+SW9M/vTC38j7f5fo+/Nz33zQKm7kW2woLstlHqN3TGBxYVmazjPLZ4ndldMf5d3k5MqyMrnVDKKEZDyPnOM+OKMT6cwUqy5YYMZTFnQT6FddTYuXFbIwSB7izV1NX6BOYEv3+adHx64FZ/XBJdEUN22Gq5MtOYnBwdKV5/lnsk+1qCnqFUj3PeoUmrqqpvu1Oj9+Piytpr9Np2k4EGc1V++QzTv3SMehfoleHJbBuYlAZ/uWuqyu8aGJqt4GAAAwzqZ58aDx4BT60cEe1x3JnXdYTdgzZ7ZlCEC+Z/r+1EV//u4F+dP7OsDpU6gozgSWcsxMzdXpUStlU/1QrpHF1lCqxTVV9o/toQF52RqjZFFQKKvCRKWoZk6WnfxPtCtyweomtiJjplamwkEzMh73+Zn4bKZx6OMuC07/ghmDI1mINy0uCnaQ1bs8pqjMq9k2+c2Ckx0ZcxeTCXjsSdPUWcshczHt8elkL14de5XleCX8NM3o7cI3Sq7zK+Byjn0/FOD8yyPzNP/z72M5+mu1zlc/spuhB3KylD+1i/jsuWb1P6r72oyNZ/P6CTYVsk/HQ/XNY0y1Hrgkva8ckB3PdMo23ef2TrtvTl0dfWs2ldEtw3JhCtRXBAAA09v0DWwO2oGWGd/8th148TM/uam36etS3erMvNMakcJdkOhDVx+cTgAouJ/LoIzOv7T71TTPPN77Rxk5oPNCquR6++NTOU3ux9t7A/K6/r+sTh70DbLOkwd11XLl9QH3r2inoFCZrK7xi2zOk7VW9C9TYaIxmpCM0VrZ4Nxs1NTJ9keW24GDCVLduFIa4s3UKtM0WbskA3/Q/2eulpouy3jGhh/JjabQVm6Z0cHiwbnQTP+q0jc6TVcLxfSXJ9dL85o0mY43ZuiH8EbT1PR7N0l7UNGYFE7/gqaPvgwa7s7Qh6YTqJpsVlV0sSob675AE0Gt1KIyGWUKVjkVwUM3+FTbzlXm4Fri+AyaX6KITvZ9NqbhZAYGVrE2hW8U/wI2Qc3YC7ycee+HAp1/llyDo7mdf8l04Z9tez7M2AzdogsTeYoiOdQym6GikuX1bOKv1wHyCGqPJ6efTFl6i/92qZkj86xigalC4TTZmANnZcfBfmswc9C0Ur6+XFdevyoDWVc3V79bnm6RrpdapP2hOjMOAABg8k3fwOZ7R+RjE6Qs/9u/kc/Nd/1UVMOfe/BHcvMPHkxp5v2n43YDs8/d/yMpt9qoGfP/Ur6gprnRKkg0JB96Kqmr25NMlaNNZtsnvz7inU4XK9L9av6tPT/PLYSaZ7nJDs3oqxvkC67lnWEt7+bgoG7OLsgLZ+zm6KtWrJFdS8oTmZvl82RX0wpZpYdHz8oLnhjXiDx3RqcHqh/si1bLrvmu4KZnuiH51bgkbDqB1Sr57pJ5nmW+N02r+mzFb2CM6sZNdn9YjzTZzW7H1Vk5etIMWmqlxemP69lNsvX24IyO3mP65qhCVt6RTdZHldzwLVfwXR+Xf/vfrXPhT7+x921QRmfOnACJbsa8ydtHY+i2WdLuNGcuoN7oR/Y+1P0DqnlGPMHDGWa+FdJ2tx0I8tMQNk1Nleqvqc/IJsDiNCHOoo8+u/qw3Ydmu7VdvMEGaxlN/5VpKzRPALvfvetl3piqkH8qF8xxsMFd8V1tM0+/nepqahfruV6av22qw3tenyENd6ht8z21zcyYVN7gmrdfUF3sxbUelz8Uuy6cmZ/7NbVskU0V0mwdBx/Lvpyr4/v5WHZY1cR1n6V6/VwBPt1nqToWrPMhTdGe8GodnPJuw8IvZ/77YeznXw77zy2X82+s1Lptde8DZ730fkiMLBpZX88m4Xrtle11YoINvCN9VtVz9Z382DrXHxzVdgmvk/ag3wc19bI10iRtz0bs5uY13u/nkP6DaaTWGs7Yf+fCW2Wl/ll64t2sj+/QxrCErT80q/2+LCyRDH/4BAAAmCjXfaOx6TMzPGGuXL5khhIWLAjJ+fMTfLs9f7Pc+IO/UrcQ/j75zT/IyAupFdM/9+B/l/KvmicphuTDv/sb+aMneBeSL/zt38kNN0dl5MEf+TYJt7LbdCDopb9OqbbuvBboNy/I5Rf+MWU5bc68zdMkfvMbi3vr18hTVQEVgkaH5Ic9RxPN0F3urd+gpjNPUozK7kMH5TmfwObiJWuka1GZxM4czrsquvMZKYaOye1Hxt5Gq2FLi7QsNU/cLvZL929nS3OjzppQTvbI5t1n7WFN3cS0u7I6o50dssPpuC1r6kbn2YCbpIvHpfWZIwFBLjXdS2q6IfWex4Peo9z5N3Kzycr0ss+DP4X1sSs+58QY3HiDuiH+vH/2oe6j7upMCYc+le6fJ1e3VWfDHXOk7WvXy+Cvh7Osim6km6fFf36Ohrud6sZa+vc67GXVmY2Z32vRWVRrEgEHP4O6GnwW1X0zb6cZJvgVvC6Bn5FxW6rlVPux78RH0umbxWZzPj+Fbu6ctI6B73Wo+ekq0YHbOe0yfywdP3FXmHa2jXmawm+bjWF7Kjpbt8XKLvSh1q1jT3IF7MT8Bq/qQjVmtEd2x6mW+Xix5b0fxnj+5bb/bPayZnn+3TZLuvQfDnyOvbiA96TdJnrfqYtvy9dmSvTwB7IjQ+Zo5v0wtuPMkdP1LN22V+vnd712Pt+9zs5yZRqXLHD7pttXEyHp+91D/TaIflAr4aXD0r2z01M5PRSul41rlks4IKPTkva73RbaGJG2eyok+qL6XfGGGZmBM41jcP8e2bY39fc8AADARJvefWy+1yWXH7SrjXt+vr8flQ9f+oFc9glqan964a/l8ktR0yzdeH9I/vSrF9Tn+QVwxlY46JN9umjQC/Jh0nJ+oudpLWdQUFOLyR//9gfWtG6fqHUc+bvCBjW1l48clM3HhiTmKVI+KrGhY7I5IKipvXxkX/B0AUHNQjl9Si3zGTVv89wyOiS7BzwLk7fe3Xuk++SweaYNS/RQj7rxOCCd71vpJOPorOzY2ZM0f3VDclEtw2/TZXSclb371TRVy2XrxjRZm0d/ZJ0/Cd7zwD6uC1y46vKHsi1e6dth+mfc85FcSBPYy5ue50+GpePXH8ugZ5d9agULW3+SPvihs86iZrpBtZwZAyVOE2J14/9mxvcaahl37BmW1sPJy6jmqQMkPx/OKqg57i5/LPs8+y5V9eyZ0pyhgnvsLV0QyTR1dejAWH/qZ+v3OtXhve93jpsM+8Qcc9Gk6s56u3Yf/igpKPaJdO75QO2HxD63ZXes5KNXF4ey5ud3TqQG7eLU8u+yltV7zAzGPlLHS+GXM+/9MMbzL7f9p+Vx/uXJOo6Tz1lruew+N3u9l+6ikNP1zGz7Cb1eu+RynZhQVnXz5O9m57dBn1y4yYxKEovahYNaO3Vl9OTv9X7p7tyTMaip/3C5UQcoh47L3iyDmlpsb1Si3p+SAAAARWF6Z2xiXMUzIQuU+YiJVimRpzdJc9WwdD/RKZ1Z98M1mTJnJJUEk92VKQOu9Jj9Ix9Ja2CxnhnScHeFlbE19dZ/asomy6+kTNnzr9hMket1wanv3sfUd+/c1IzNQmh4qEValo3he/2uddL1QC0ZmwAAoGhQFR3j5vSpM3ZBoaoV0l3v6r8SJeKSdP74uAyKuvF8cl2aPghRaA21ur/AT6Xv3SkWVDH9FqYvSPOJnE/KrENxWzDFql5P2fMP055uTt6yTF2D97+W9x8rQ1bfFcPS9xZBTQAAUBwIbGIcXZCtunm5GgpVrZCu+zbI29ZjjTxcgMI8mADnjsi2F3UBpFppeZrg5sSYKVadr9iHUzaDSRcc0YV14t30GSFduOZup0+8QhWuQcHo/ZO033QRGLu/xakSCJz65x8KI7Q+YorxZfOY/O/PeB+ZJ3ryz7RcWC9brc+IlkgrDgAAMB0Q2MT4eu+oNB86JruHCtNfJSbBGwdk2xM6c1OhCuq4C91xg1XsKdpfBP1hFtrlRNVwXcG97Xs3SZfr0fbtWdKsi+DoPvB+nqZvSEyK0C03WH2fuvdbm6m2PzhFAoFT+vzDtDd4okc2P+8qUpi1SgltXCftTy6X6qF+6cjrMwAAAMYHfWwCmELos60UhG67QTYumylVs6/3VAV2qqG/+ftPMhS/wKS4cYY0hGfJhpBrv+nCPyeuyY40FewBf1yv/Y1vH5v5qZPtLzVJ1Yke2fX8Wa7PAACgqBDYBAAAAAAAAFByaIoOAAAAAAAAoOQQ2AQAAAAAAABQcghsAgAAAAAAACg5BDYBAAAAAAAAlBwCmwAAAAAAAABKDoFNAAAAAAAAACWHwCYAAAAAAACAkkNgE0DxWVgv7U+vkwbzFAAAAAAAIBmBzQlTLg83bZC371sjD5ebUXlzPmuDdC+ZZ8YBU8Rd66T9yeVSrYcXWmMAAAAAAABSENhUFs9fIrua1liBQvuxRnYtmSeLzetB8p1uzMprZHWZPRhaVCP32oNFxARem5aM/7ZAEamUyNMt0vV0vYTMmJzpTM0HaqVa+qXj8QPSe86MBwAAAAAASDLtA5v31q+RrhV1sqrMRAotZbJq0QrparozMGiY73QFMTIgh0ftwdiZAXnZHgRKXKVEvq8zNYel+4kD0mvGAgAAAAAA+JnWgc3FS9bIU1U6MDkqr585LJt/sU9u149Dx+R1HTgsq5KnfLIO852ucEbkuR57ns2nLphxQGkLbVwrzVUig/tfk04yNQEAAAAAQAbTOLA5Tx5cZGdbvn7soGw9NSKnrWfKyAXZ2nNMXtfDZXXy4HxrrJHvdNNJmXzJnciai4X1sl03Z36pRdo3VpqRWch3OhTQHJlXZQZzVicb76kQGTouu/ZeMuMAAAAAAACCXfeNxqbPzPCEuXI5NXCxYEFIzp+PmWcTYP6d8vaKKpHRs7K551QiOOnmvGfomNx+xGRG5jKd5z2638nVsqVsVHYfOii/0gHSlYsSTdlHdfbnMdn63oj9PM6ZzjxNEjtzWJpPJU+TpHyePLx4kayuKov3fRgbHZKf9h2Vl9NOWi6L539Z2hZ9QULxJvejEhs6I61qe3jWXa1z96Iq9T7zPB339kzS8FCLtCwzT6wmyZ1ZZe/lN12lhO5aKVu/NVuqqyrMuGEZPBGVXc+flaCjMXRXvWz81nIJx4N46abR/U5ukmY5Lq2PH1GvV6plXSsbllXYxXGUwRPH1bT6Nbd8p3NZWCeRDWFZ6Z5mqF/2/ThT35U5bBdd6Odbtep95nk6J3pks5rel/qcrgdqZXD/HtlGYBMAAAAAAGRh2mZsLi77gvV/bHDAPzipXRu1gzhViQI999bYEZyspisrk1utEV5fWrxGuhpXePvnVMOrVqyWt+sLW+VcN5t/W81riyuoqYV0c/lGXVU9oER7+TzZ1bRaulboYKU7Wqk+p2qFdPlUd88qqFksFtbJ9qc3SZsuVBMP3mkVUr2sSdpeikgkpSK3XRyn7QF3UFNLN42h5rHAzLPFFWjUqpctl7aggjt5ThfaGJGuJ5ukOXmaqlppeTJNVmse2yWroGYGDStq1b/D0vcWQU0AAAAAAJCdaZuxeW/9BnmqSjcn3ydb3zMjU8yTXfetkFViZ1k+N5LInkw/nTc78zkrK9KbeRkbOis/PX3KZEyWy71LVshT8Sbu6T7bpgOWXer9aTM2ncxRqy/QM/LCqUSW5WL1WpsOWsbXzbxgcdZbGR2S3Wd+J8/FM0n1sn5ZvruoSs4FLqeZPl1WaxDdpPz7duAwp+y9nKark+0vNUlYDw71S/cv+6TzDef9ldKwcaVsuKdWhl7skB1vmNGKDha26ebSMizRF19Tr5lpdGbk95us/iFFV/O+3134xmReWq9pw9KtpnXmF7prnRVE1KKe+eU7nWKyH63l3B+VvXsTWZZ6uq06aKk/LyWrNb/tkmCmH3KyTLPlrGvytgMAAAAAAAg2TTM2y+UWK2FzVP75mjUigHrdVB/3yjRdelYw8ogT1NRG5OVTB2XzGXtmq2oKkbVZLg8vsqNidl+g3qbjp987Ks3HhtRQmayu8aZeLl6yyAQ1dWDyqCuoqellVdMeOpwx+JqXc0dkx+Mdsvn+jtyaJOcwXWhj2ATvdADugCt4p12S3r0HZNsTe7zBu4X1stUENXVAMB7U1M6dlc7H90i33pxSKxuCsiGHdOCu0zO/2BsHpOOEPVxVXYjpKiXyLSfgqZbTFdTU9HTbXuxXQxWy8g7v/PLaLgVh+uYcGpbz9ggAAAAAAICMpnVV9MkxKocH/DMsTw8M2UGoL8wae0X18hpZrRNAR8/KC0EByPcGrEJHoeoa1/zK5ZvV1oSyuy9NtuWI/zoUv0r5+nIToPxxmqzCc+6gnjLPNOk+EQ3ou/OSdP5SBwxFqpff6tM8XM/PPxvx/OCwGfKT43QLb5WVVpDwuOwNCkC+8a5E1X/e5cxzuwAAAAAAAEySaRrYHJF3/6j/L5MvzbJGBAiq7p1pujEK6JszJ7NMn5plddJ13wZ52/dhmpt7OOv8R3m3VGOXaTmVu6/KQBZFiRyh6tnW/4ODV6z/fV0YlkH9v+4X0xoxCZwAbNVyaXvJrhKf+jDNzT3y2y4AAAAAAACTZdpmbL5zzW72vbAsoHiOVj5L7DopTpDPCYhmms5kS07Z4CAAAAAAAAAwuaZtYPP0qB2h9DbD9lpco4vrKEMD8rI1RuTlAasjxeymGx2Vd6wxWXKyLHOdzo9TmX3omNz+i33pH74Ffr4gt6SJ3WalEJmn42a21ARVME+junqOGfLhZEtOZl+RTtboiR6rv9G0D98CP/ltF4+cM1avyAV9Wk1mpisAAAAAACg507ePTdO/pG6q/eB8a0ySefKgU6V84IL1vyWX6c74BQyDmrEniv3EBgdyqyTuZ2RADuuk1KpF8nBOAcoL8poVuy2TLSuXBPf1WV6eRT+geQRHdXXzp+0m0+1BRXj8ZD3dWTlqFd2pkObv17v6mEyysNLzWuytfjtguCwsEd/AX6Joz+Dxd4L7qBxv596RPr3/ApczSH7bxV+uwdFLMvAH/X8BgqoAAAAAAGDamMbFgy7IC04V8hVrZNcSV6CufJ7sajL9T6YU37kgW61q4rlOl7BqxQbpXjLPM93DTatlixUPHZKfnipE+/URee6MXs4y2dKol1PNzxNkLJd7l9wp3ffdKfeaMY6XT5tK2rp/zqY75eH57gnV+s5X0zWulq76oOrt3uDovZ7J1Xw9n+fVsGG5hO34rlTfszbr4Fwu0/XuO276wlwubU+vk8hd3qriobvWSfuTm6TtoTozTjl3RPY5gb8nI7LdPc3COok8vUmarfn3y75cqrkXnFPEyCznxjoJebZFpTRsVOv30jppMGMceW0XD29wtME934Vqvp7P8+o95l+pHQAAAAAAIMh132hs+swMT5grl1MDPwsWhOT8+YnPc7u3fo08VWVnWKYYHZIf9hyNN0N3y326chO8HJXYaJmEfCcdld2HDspzWcQ1Fy9ZI12LyiR25rA0pwmEOu8LpJZ1d9/R1HmWL5Huxro02XkZljXt9Gr7/MJ/uzY81CIty8wTXaH7ic6AKuReOU+3sF7an1xuNx335fcZla4App900wQvU2hjRNruqZDB/XtkWzwomu90Nue1QEP9VrX1lM/Na7u4pJ2+Xzru96/wLlIn23VRo6Hj0urbRB4AAAAAAMDr+lDtl/7WDE+Yf/mXj8xQQnn5bBkZuWqeTZyzF/rl9Q/LZUVZmcyeaUbKqMSG/km+33ta3jBjktnT/ZncVPb/kdBMZ8JRef3MP0nrUb/pPif1X6qVZf/vOfl+zz/K/0yaZ2zorDzb95b831kma95005fk/1s5U65ejknXBx+bsakufdAvPx76o3zuc2VSUTZT7Nreyqha1pi9rL/0m/zjD6Trd0My8Gefky/N9Nk2PW/7T+fQ06v5Lqksc20ftZ6jQ/KLf/qd/N/X/Cc+94frpfbLVVJdJjK4/2X50f+Teqz4yXm6kQvyq339cvHffF5qyip0d6DGsAyeeEP+y+Ovy/9O2RcfyW8P9smxD66Ximp7XrZ003xe/qJpqXy57E9y5v/3W/mtz/6dvfQvpKnuz2X09yflV6ec5c53OtvVU7+V/3liRP7N7AqZVfXnEl/UoWGJ9r4hu3Yd9VlWJa/t4qKnV/Ot/XKF2j5/bkaqfTLUL4e6+mT/e0H75bIM/ptbpWn5l2TJv+lPWR8AAAAAAIBk0z5j0y2e3agL7hxx9atZhLLN2ARKR+YsVQAAAAAAAMc07mMz1elTZ+zCQFUrpLve1QdmEbp1VjyVDpgiLknnj3U/n7p/0NQ+QAEAAAAAANwIbHrYhYF03mioaoV03bdB3rYea3KsLF5AurDQfG8Fcl285ymrn8dROTxAtiamkHNHZNuLugJ9rbQ8TXATAAAAAAAEI7CZ7L2j0nzomOwesiumT7bFNYtky4rVriDrBulaYVeviQ2dyarQEFBS3jgg254wFdqzrIoPAAAAAACmH/rYLHbl5XLv4hXy3aqyRIVxXfjnzDHZ+h5RTQAAAAAAAExPBDYBAAAAAAAAlByaogMAAAAAAAAoOQQ2AQAAAAAAAJQcApsAAAAAAAAASg6BTQAAAAAAAAAlh8AmAAAAAAAAgJJDYBMAAAAAAABAySGwCQAAAAAAAKDkENgEAAAAAAAAUHIIbGIcVUrksRbperZF2tfXmXEAAAAAAADA2BHYnASh9euk/Vk74Nf12DqJ1JgXppqaW2XlXHuwuvEWabAHAQAAAAAAgDEjsDnBQusj0tZYK9XmucytleZH1k3NoN/AO9J30R4cPPSu9NqDAAAAAAAAwJgR2JxQdbKxsUL9PyzdOztk86Md0npoWD2vlTvD1hummEvS+Yy9ntteOWvGAQAAAAAAAGNHYHMi1cyRKv3/yah0DlhjJPZ2vwzagwAAAAAAAACydN03Gps+M8MT5srlS2YoYcGCkJw/HzPPpqo62f5sk4RP9sjm3XYGo900XaR7Z2c82Bmopk4id4dl5dKKeFP2wYv9su9nB6Q3ZVpduGeTNMtxaX3miMTU84Yta2WDe9qTx2XXbv2av1B4nWxdUyvVpp9MP4OH9si2V/T+NPMLeG/ifcnGvpy5bRcAAAAAAABMBWRsTqgrckH3ObnULqRjBzUrRC72y5sZAnD6vV2PNEmzK3inVc+tlZZHdNXxSjMmydwKWVBTJ9sf2yQtydMuXS5tj9VLyDx3a9iili2SPqhZUHkuZ97bBQAAAAAAACWNjM0JFg9mxvVLx6MH0hfWCa+TrkitGhiW6KGo7H3lbDx70cqq1AFIq99Od9Zncgaler3zNemM2tteT6cDl1q0s0N2RK1Bm2t+3mnq1byWq3llscyGs74ZMzbHuJzZbxcAAAAAAABMBWRsTrT3ryb61LzYLx07kwKENfXS/ljElWlYKZE1TmCvU3a4gndaLHpAtnX2q6EKWXl7QHains+jnfFgoaan6zhpD1fd7J0udPNs6389P+80R8y8xqnYUU7LWYDtAgAAAAAAgJJFYHMCWdmLVhahNizdPn1Ahm7Xzb8rZOh9E9yruVVW6mzGi8dlrztb0S36ruiXqr9yq09zbTMf88zt/Pu6Int+koOhY5fjco55uwAAAAAAAKCUEdicKLpJtdWf5nFpfbRDOk5WSPMj66ShxrxuqZSvf0U3U++Xo06w7oum78i5y6Xt2Rbp8n00SSETKGPvX7X+D0eSlk/3gWmahccDr5NlErYLAAAAAAAAigeBzQnhNJvWWYl2de/e3T0SFV3gJiIRJ3gYXmn1NTl4qC+r/ivHTbz5t12AJx4ofMQECk/2BGdJAgAAAAAAABOAwOaEmCPzrOI4V2Ug3vT8rOzYqYObOnMzItvDdSb42S/73EV2/jBs98l5skc2P9qR/vGMHTQtDLv5d7w/UIsu0tMjrbu9/VlOiknbLgAAAAAAACgGBDYn1GypcTftHkgEN8ORJitbM9qZ1M/kwDvSd1H9vzScyOwcb+F10rJUpHtnh2zzBAlTi/RMmoJtlzrZ/nSLdL3UIu0P1ZlxAAAAAAAAKHYENifEWTlqNe22szMjYW/hnQs6QGeE1yT3u3lJOg/a1b2tzM71dRLyvF4pDevXSfuzajozZqzsqugVMq+oq4kXZruENoYlXGUPVy8LS2ShPQwAAAAAAIDidt03Gps+M8MT5srl1MIzCxaE5Pz5qdxguE62P9YkYatJeqrBk8elT2qleakuHqToJta7z9rDilVRXRcfCnKx36oq3hlv6l4pkcc2SfPcYene2ekan+B85uChPbLN3fy9pl7aH1luqrf7G1Tz6zvYJ53R9EWEAucRN4blVHLfLl6hjWr6exLTD+5X89ibfp0AAAAAAAAw+cjYnDBnZccze6TjpOkb0tABwu7OPbJt9xHp3N0pm3XT9IvqPe9fMe+wxV6xX+tOml7Ue61+L58JDt7lbOAd2afmk0713FppjmyS7ZNcdnys2yW2NyrRIfMEAAAAAAAAJYOMTSQxGZRyXFoDi+5USsOWTVY/nMGZmCXmrnXS9UAtGZsAAAAAAAAlgoxNeNXcKivnigz+9p00RYIuyfn302d0lppQte5XdFj63iKoCQAAAAAAUAoIbMJXdeNa2R6ulJB57gjV1Elki9OvZb/smwrZmgvrZavuZ/NEVDrPmXEAAAAAAAAoajRFR4qGLS1WM/O0MhTlKQ2VEtq4UrbeUyvVQ/3S8fgB6TWvAAAAAAAAoLhdH6r90t+a4QnzL//ykRlKKC+fLSMjV80zTKZzv+6TY5evl4qbPydyw59LmRmv6WJHh/7hNXnpf/5G/veoGVmy5skDj4Wl7ESP/Jf/clTeNmMBAAAAAABQ/MjYBAAAAAAAAFBy6GMTAAAAAAAAQMkhsAkAAAAAAACg5BDYBAAAAAAAAFByCGwCAAAAAAAAKDkENgEAAAAAAACUHAKbAAAAAAAAAEoOgU0AAAAAAAAAJYfAJgAAAAAAAICSc903Gps+M8MT5srlS2YoYcGCkJw/HzPPUHLKl0h3Y52EzNO40bOyueeUnDZPS1ZB169cHm5aLVvKRGJnjknzqQtm/FQx1ddvorE981cpkac3SXPVsHQ/0Smd58zovDifJTK4v0e27T1rxmNqY7/7y2K7LKyX9ieXS7V5Gjd0XFofPyIT/4uvkNcDAAAAFAsyNidBaP06aX+2Rbr047F1EqkxL2SweP4S2dW0Rt6+b4N5rJFdS+bJYvN6kHynmxQ6gGiWs3tJuRk5xZTXyOoyezC0qEbutQeLiA6kqX3QtCS/Y6RY12/+na5zIPhRdMdd0R8v08TCW2VllT1Yfc8t0mAPFhEdtFHfKU/Xp/4BJoPQXfWy/emIdL2kpjeP9ofqpWGheUNJy3+7WIp2v5v1cu0z30e+651J0Z8PAAAAmC4IbE6w0PqItDXWJjIY5tZK8yPrMt4U3Fu/RrpW1MmqMhPhsJTJqkUrpKvpzsBgR77T5WzklDT/Yp/cHn8ck9fNS7lYXFMVvwkLVdcUT/C1QOtnGRmQw6P2YOzMgLxsD04dU339Jhrbszice0f6huzBwf3vSq89WOIqJfKQ+k56YLmEqyrMOFv1suXS8mREtt9lRkxXU3K/F0A22+XcEdl2f4dsjj96JGpeAgAAAAqFpugTqk62P9skYRmW7p2d0jngBDorJNrZITsCfvEvXrJGuhbpwOSovH7mmLxwasRu+lw+T3atXCGrrJdSm0TnO11hqHncp+aR0+ebJrdyVnYPVsmWRSK7Dx2U50bMy0Uln/UrFYn9MKXWTWdsrqgax2MexWc6NT016yrZNvN1to0eHpboi6/J3jcumekqpWHjStlwT61Un+iRzc+XcvPrXLdLqSjFY1v9BnpJ/QaiKToAAAAKiIzNiVQzR6x7yJNRK6ipxd7ul0F7MMA8edAKToq8fuygbHWCk9rIBdnaYzIHy+rkwfnWWCPf6SaRaXIbGxyQ5waG1E1PmayumaLN0YtamXzJPnSA7CzUTZntpq/tGyvNyCzkOx18zJF5pmlwVu5aaYKa/dLxRKfsiAc1tUvSu/eAbHtiT4kHNbUctwsAAACAkkLG5oQyGZsne2Tzbvtm0c7YlHgGZ4psssyc9wwdk/9/e/cfXXV95/v+hdhz1BpjMAdNAmRHaRCcqQOBkimrUSG2C9ETuu6ES86ZNUt7h7skf4Cl4sIu16Gs6y2sYrFy743eY2fwzpxOsuDMEo5FTkvEI722UAgcXRVKipOAJLsyQIhp1blH5H4+3+9nZ//Id/9MspMdno+1dvPd370/+/uTnebl+/P53HvITSySY7tHapfr2bKwnnn1t7qrdr4eK/PKOv1w9INiPTFkndcsQA4VjW5/3jq623xuuvbxVYW2CnX1glnRLvcDfpXqmg8Syz1zbZco0+Nz20sSFHafelMNJ9Jtq1izp9+tLbNuVmhwSIEBdYdPaYO5bkm3bY7tidmz9IC5XpHu/d0DYb156rf6UeLxmXO/Z1aZ+Xz3PJXY+2wEjs+OAbt6lh0uwa1IeWzx1++kef6IuSf/OvYYw52mbcA1yeTfxBDD2J4z22x3S5pzGz1PuZ7P4e9nsvvlx0cO67U0t2jd2mY1z3VPbEV6htVQubSz40E2Pmy7TrsVpl3v8Q5tf6EzoAIsvkLrV+Y7uPHxmmi363CfOn663wv14sVWMw7Vu3en1u0a+nssTmW1mpbXaMHcksGhR3rDXdr90j4dTHmMpeYYF2jNw7eqfLB7eJJjXLRU2x6uMu9zz1OJq7yMHl/Hyy3m+N3qDIUaze+tZeb3VuR6BR2r2V7gNcn1vCRpd+SnR9SaeP1G4LwEyeS653R/DlaTlpp/Ew9qedx5PGbaBlU3xt/bWVcfZnM+R+C8+HKo2Mzpfon8G4reA/Y87t59SFpuv3Oo2AQAAJhIqNjMq0s6d978uMcfaD/SDV3nu/SroFDTmF10s/fTVjEmDSQ+GvD/QCiLTiySazvfzfprG5KURdIVOybnHD1Rm7Bu/giO0Wk8UmH/AglrvxeWntN+O35XUZm+kapos6hIq+04oovnR8NJyyzfN/8BvVM7za1IkGu7fLPDBphr0TbfBmOxaVeRQmXz1fbNJXpiyPkpNtdqid4xx2avVySkskLmfD5mjm97QJVuRqHmiLJh3HI3Bqxb5Ul1bI45FzPduXk28RjLqtWW68RHyeS4PX+M2wwD45GQ437aYSuS3S/PLh4vEyrZcKXZjQfpVnlKVD63XlteaVJTislupi0337eb6uPHkjTLNatWqG1ttVsxMmzw12a21RATxljlZVVq3pSiOrWyWus3rzDHaAOZ2DEvkx9jRuFdosGJX7p0OMtQM1HSYzWPxOAqt/Nirvva5O0azPULGgc0p/MyLMO4P821nuGufXPiMc6dpy0jOgFQbudzLOR8vwz+G3KrjMiYscvvcCsAAAAwYVCxmWeDYeagLrU8uS/phAR+BaXtTm6rGN3KIVz1oAYGx6QcbjtbNeevi60gG7ou+ee7z864Os69P6DqNLhKLXa//Gq0H5884SrLivXInPl6drArfuw+5touUbbHFy8y/mnqisbI9TEGwtoRV2lp9/Vu/fWsMp1J3M/IefOq7X5rji22TeT4bFXu4SQT0Qzv2KxMji9uDNijMVWytnJwwXx3jRL3M/76efekaRs5L7Y60gaJ1pDrF6nYTGHoNR+J7SW2maMt86sVSnkN4qU/nyOzn2+dOqUXT0QrZb1qU/NayH5eqvFubZfyx/1AJ/PqLSOLdn6VoP3u9MeDHKyytBVdj9e7ajLzffpo7PepH3JEKs0iVVt+pZcdR/JBNXufmVnlYmQfUu7roqVqW1VlFsx+7u3Qrl3RSr2QeW2NDVzMa0Mrxlw1m10Md2lPXOVcdMzLcNL9zKIaLrKPOY6fGTkPHce7VDPXfI7Z35aXjpjzGt3fUOUFdcceX67nxbXzq/TitxG9fonXPVYOVYIJMrnuI3F/2rZ7TNvIdbfnxQZ01tD7M9I2y+rDYZ/PqIz+PcTJ4R7N8n6JVoHHX4eQuQ6N5jr4oXOW5wwAAADjGhWb+fbh5eiYmufNHw/PJ/zxUFGrbU81adtDthKhWHd5hZcD+qeP7M9kzOtu1mRfru2iuk8ddSFGv37W678pdt37f/BWjZzpFV6A91ZPpIuz8UGPNw5outnRvbDnUCSctPr12ok3tPKUv9/3VQRXX+baLl9mz5nlQk0bMB6OCTUtu6+H1XDgzYQgzvjgsFYe2K0G0yYaalr+8T3jzWR7s+4ayyK84jna4kJNG5jFdf3vP6cftb+pHd5lKNNfJ6sWHLDB4Btx5+WkOXb/+KTKohE+wCy3F6matkM2xLc5oYajtlGZHhyN8W2z2s9iPTHLT1X8sXjju//bdv6+phnv9swhbX3an/k441DTyrRdZa3WuNDIBhJxXcfPdKr16Z3a4x1flZYnqYb0wpcXIqGmZceRbNWGvX3es5r5I1G1WaqmhyNBlNnPmDDG6n57n9a93GWWSrTgK/H7GWqscaGmDX32JXQHjo55mW238SCh8lvd0vDYUNOe15Vmf6MBmZUQag7jvMi8tmGjuT8CtmGvX8txu3yrKlJU6466Ebg/vXD40da4627Pi3985tuiPEk7c84aNvnj1A55BFUiF8L5zPV+MddhuQs1E69Dt7kOWwevAwAAACYSgs088qo1m2yVgWX+j/dPzB8WCV3QQ/ea16eWKPxh7B8c+XdmICZocmLXnf4oSSKao/hu6BGZdEcf0Js9Q/fVOulNQGTcfEtAMJpru3wp1jfKXfB3JEXVZFxwGXUysrq4WI9Mn6PttUu0p36J3vlmpCK3SHfe4r1jbNziujyHTyWpAuzXj075f4EGB9v2vARXO6a9N21Q/Opu3RvwGBISDxrG9lIY8fA12/10E3bZc/JismPP8D8wjKpprivq8Y4kVVYX1PpTG3RI5fNmBnTb7dORXwd/p3b/2k3gdseU4Xf3jXTxDh/TrmQB5Nvvq8P8iN/PUv35PBeMvZSiki0uiBoHjrdnFmTnfF58gyFpZanqFtVq/dombdvc5IV3fnVeiaaN5X+HGoH7c48dM9I9i3W21w/eR9K4P5+53i9prwMAAAAmIoLNfKlZ6sbTPKYNT7ao5b0SNXx7qeoq3Ose88ftn/jdwA7b/8euSGVkuhAqcRbrXNuNlWl60AvbyvTsN5d74VvkEQnhhjU7uh130C1mJdd2IyJybf6g94Ozy5Rsd+ft9eYcLn5Az9oxLO3YieZ4xovBMWBThYLmNS/gGdPrkLuTA35ZszcWbVyR5DRtd93Cg/4DQl5FAuaiarUl/NuLPtxwCGMoUmHY23vJ+xnoXJ8fUNrxCr0VWcq1XaxIsFI2T1tiK+fiHq67eZzIzN2X1ZOHQKa797K/MMwwN+X1iJXzefHZCXm82fM3rVCzHcPSjrkYNwbp2MrL/ZmUrU70q56HPJIMMzDez2eu90tG1wEAAAATDsFmXpSqaYk/VtSen/jVOAd3tKtDVWr+dpOaIuFmzQI1TDX/p/zAkcHKjUiVVcrKruJb5Pcai4ZgubYbE64beipjWi1WaLzxFN2EPANhb5b3Zw68qZXmYasSI12SMcoGu3/7E/AMBoV2wiq7Onw0eZUkMJpGLWQbBd44k25CnnCXOva2q2XjTm0wDxveRbpqI0OcTwAAAEwwBJt5MUXTptqfl9Uz2PW8U1uft+Gmrdxs0vqaahd+dmn369GufZGqr1TB3uwKO7mHEe4Z7IKaa7ux4HdDt2MtBnUPdmMtppsdPUikGm1gQKe9FRnKtd2oyHYszEg1oDmfR9/Uve2HvXET7VibJ5N0W08qD5WSIXOukxpX1yFX/n9giO9abCfpOaqVh+LHsxwTkapYO2nXkH97CY8cJ5IaSeXlU9xSgEiVV7hPZ70VGcq1XZBIYGgn5YmtnAt6BE6eMgJjG2YSVp45rSNe6J5izMeRlPN5qdZ6N4HMnpf9sTzteIt2bMjubLvl5yHEHZX7c0SN4PkcTcP8d5TyOgAAAGDCIdjMK/NHa2zX855ouFnTVO9Va3a0Joyz5ca3s11FVwdONDJNq71JWIIn3sm63UhLG465bugDYf0sMHeLTF6UvDt6cHf76KQo3b09gYFMru3ijFr458YXNcf92II5yatVi4uDX7PnM3ZCnkHFusstpTd6EwwNjmNaNktPBG4jy+swHk1f6A2lYAP7hriQcOgkPWOmv0dv2n9eSa9Dhuzs5rZr6yvN2pZNUJZhu8FxMOfWqCkw+ItONtJ77HRAYJhszMB07bIUCQyT7mcynTrsVcqVqOHxWj/QD1JZmvy1QZmEoxf0q2P+2I3lyx5Mvq92Ru9FIxB85nxenHCXfhU3mVJEqeJGc0lp9CbEGf79mWcjcj6HIV3InOP9Er0Od6nOW5OgMjLkQzrV0e+loAmYAAAAMK4QbOaF+aP1PfvTr85sqon/Q/Hcebdg1CxJHHfznF6MzNI9f4m2z4kJsuxYffWuW+uQyT9ybTdSIjOu21mtp8VtO268QdcNPVV4FQnBgqtPi9zxxW/jifoH9JiX24b14xNBAV+u7SIyPL5heO2kmwnWjn9Yv1BPTI/9YHM9py/UnsUPqK02ILExbbbE7lfk/fb40v5hFx+qxo8PaScjGoED7D+hH0e2sdhch9jPzOo6jF/+OKJFunM448OOusgkTe462HsmbnfN9Z5j7ptvLtQjbk2QuuWua6uRMihLkHG7M4e0OxL8bWrS+tiwzYZvm1eowfucLu1OMplNzSobnlZHg8EM22UnMkmM20+7vbhjKlVd41Jte8V8z7s1EQd3H/NDGTuu4OalCYFiqUKLTLtNK7QladASH47WxW7XmyQm/vdO9679bobomH31XrEi26tXw6rMr2dyuZ8Xjzkna4L2z14/b7KbVLI7LzkZgfszr4Z1Pofjks5595ytFI7ZvjlHcdcl1/slphK52fwbiv3MyP2cbBzXWKHGmuj3Uq5hPAAAAPJm0v2L66+65by5dHHo/7GfMSOks2fHvI5hFFVr/VPm/1R7XdKH6n3vmI6Y/zPecI8bwP+9dq3cER34/5HaJXq2zK+wHGIgrGfag2dCzrbdI7X+hD1vHY3OED17zhK1zSpKuy5R5D1D2G6vh/wq0aDtDTVN270JTGx39TfcLNrFg+FX94D5QyTwEGPfH5Fru6EyOb5kIm27T72phlTBXfEc7Vkc+wdooqH7mnS/LHvNe6VnZ5WlPucpt2s+49Xg+y0is+OLXotgqa5f8muUdNvTF+odN2lPSnHXbxjbS3vt7D0Y1punfqsfBVbXRqU/n8PYTyPyWlJmP+1s60Gfa9WtjcymbNnJTFozmpU4u3alMQFRkKD2kTZ96g3bCVLc6jiZ72+osUlblpWod+/OlLOBR96XVLjLmwV7yDYra7Vt0zy/y3KgNPuasn2XWh5NnHk7/TnteLlVWxNmps70PCTK5bykbGPe33JMal5WZfazZch+Dsr6vMTL7HiHd38mu67Jt52+bZAROZ9OZuclXtLt227nCZMdpdxXK+jfUaprbd7f8fsq1cxNfc4St5vtfQ4AAID8omIzbzq19Qc71fKeGzvK6T1v/o95q/k/zTsOqXVHq1barunnzXs+jJ/V87VDb2jl0bAXxkUNqDt8VCuThJpWru1GwskTZtunXJfjCBuQ9ER2JjIbelj7k4aaVrSCcGh39AG9eWT3kGPsDnfqmSQBjy/XdlHpj28E9J9Qw6tv6hm7naBr+OrQffX2K/Ga2/1yY26+lsnu2e0eOKq3BuLfbIO4HUd/O0L3Tb9+1G6vQafZjlvlSX5sBaW/Rz8Opz7ZoaIyPTb/AW0PHC4if+w9c6+53jvM/sbfz248UHPfpLoWttqww/s3akOA/RmHLNm1u6DWp1u04eVoG5/5vjzerg2Ppgh3wl3a7rXtUm9M297jx9SSRSiUqe5d5rt8Y7v2HI//vrfjK9rJWjY8HRBqWmcOad2j5vfE3vj9zOgYLdvebLfDbCdWrw2AXo5OShcVe05j29jt+ecmXbiVjVzOi22TeN28QMuNEXkw7oOSyPq85GIY92cejcj5HAZv+/b+ds89dvtHh85kntO/I3etbZuo6Pt39cbfA0G6d3UkXEMAAACMZ1RsFqDB6qq4yrL0cm03PqWvUAuWazsgG+4+U6dWJp10p1iP1D7gVSynrmzFeJFLhRqAArVoqdpWVfHvHQAAYJyjYrMAnTxxyp8YqGy+9tTGjqOYWq7tAGSpuEIPFCnNxEf9Ov1RJuWzGC9mlKfoFgtgQgmV32r+t09Hfk2oCQAAMJ4RbBakc1pjuxqbpVDZfLV9c7ne8R5L0sxsnGs7ALkIzZrvTYyU+B8RZtsJkmoj41qGC3aCpAnLzQYeOz6qnXzEHw+UoAOY8CprtcaOs3m8Y1wMIQAAAIDkCDYL1QeHvTEQ7Zh4Wcm1HYDMxcz6ft/8B2L+I4L/aFs8X4/ZSb3smKUHRnesW2Qv9JUaNaxaoS2vNKvNPbasqvJe6yXoACawUoXsjOt2AqJwl1oSJjQCAADA+MMYmyhQjLGJ8W/29DlaPatMlUVFcdV/kdnQf/ZBf4qu6hgzlaWqW/6gls8tic6ubCcs+el+bX2bak1g4qrW+lfqVXa8Xdtf6IyfTA0AAADjEsEmAAAAAAAAgIJDV3QAAAAAAAAABYdgEwAAAAAAAEDBIdgEAAAAAAAAUHAINgEAAAAAAAAUHIJNAAAAAAAAAAWHYBMAAAAAAABAwSHYBAAAAAAAAFBwCDYBAAAAAAAAFByCTQAAAAAAAAAFh2BzDIQeWqptzzWrzT6eWqqmCvcCAAAAAAAAgIwQbOZZ6KEmbVlcpXL3XFOr1PDtpapzTwEAAAAAAACkR7CZV9VqXFxifvZpz/MtWvlkizYc6DPPq7SwxnsDAAAAAAAAgAwQbOZTxRSV2Z/vdai1x1uj7ne61OsvAgAAAAAAAMjQpPsX1191y3lz6eIFtxQ1Y0ZIZ892u2cTVbXWP1evmvfatXJHp7fG75ou7Xm+dTDsTKqiWk1fr9GCe0oGu7L3nu/SkTeOqLUj8ZyWqumpFWrQMW34wSGvbeO/r1HNVFsxapzvU8cb+7V1xNoBAAAAAAAA+TM5VHXn99xy3nzyycduKaq4+Fb19192zyaqSar8s3t0d9Uknf/5aU3yQs0S6fxJvfJfzyn50Zeq6bEGPfNvTdupN6rIrbWKvliiu//0HlVdPKJfht1Kz03600X2/Z+qpGKB/sq0Lf/ije41wyyXm3Z/UdGv//zfL7qVVq7tAAAAAAAAgPwh2Myrj/WH4pmqryrTgq8vMD9tYNillo3/Te/4bwhWc5+eWVzmVWf+/X/crx/+41v6zz8/Yh5dOn99uRaYzyn/01IvLD3jmgwGlF8sUfnUG9X73jH9/U9eNW3j22nqnQmhaK7tAAAAAAAAgPxhjM18+/BydEzN811qeX6fDrqnnopabXuqSdseKnUrjI592vB8i9b9wLy3J7YL+AUdfL1VLe/Z5VtVUeGtHKL3wE6t23HItHUrXDt/4iKp5svV3s9EubYDAAAAAAAARhvBZh5542k2VbnxMfu05yc2qPSeDArda16fWqLwh/FjWHZH3ldRqrqaWq1/rMkLQNuea1bzPfaFEk27w3tHgj4deSd4PMzBiYv+zRSFvDWxcm0HAAAAAAAAjD6CzXypWerG0zymDU+2qOW9EjV8e6nq4qosS/Xnf2In6enS4Q5/TUTIhplPNavt2yvU3DRPNXYCociEPsNlPmeGW8xKru0AAAAAAACAYSLYzItSNS2pMj9tleYh2bnfD+5oV4eq1PztJjVFws2aBWqYaruAH4nvnm5DURtmmtds9/WOA+1qeX6nNpjHSi8k9d8GAAAAAAAAXCsINvNiiqbZUFKX1TPY9bxTW5+34aat3GzS+ppqF352affrsV3Aq7W+yYWirTu18gf7tPX1Tm+sze648TZzcEeJ3y3+fJ/OeisylGs7AAAAAAAAYIQQbOZVwgQ/PdFws6ap3qvW7GhNmEwo4nyXftURFGSWKsmcQYOCx96MVJFKvb857VWRJsq1na9a6zc3q+2VZm1byyRDAAAAAAAAGFkEm3nRqcNed3G/OrOpJmbGc+Pcebdg1CxJHHfTmTpPax6qjpmsp1ShmqXa9tQKNXiTByVjQ9MmrY9tW1GtJtvOqyJNrBCNyLWdL9RYo5oyf7l8bo2aKv1lAAAAAAAAYCRMun9x/VW3nDeXLg4NxGbMCOns2eT1f4WvWuufqvfHyQzQ+94xHVGVGu5xEwK9166VOzq9RW82dTvxUJDzXWr5jdS8uEodrS3aOjjpUOlgCNl7XioP3G6f9jzfqta4mdlzbRcv1Gj2eVl0n3v37tS6XcPsOg8AAAAAAAA4VGzmTae2/mCnWt7rU69bY/We7/LGzly345Bad7Rqpe2aft6858NL7h1S9+ut2tDa5QWNg1w7O+bmwQ/dukB9OvKTliHtbZDakjKczLWdr3tXhzrC7gkAAAAAAAAwwqjYnLAilZfpqyvj5douiUVL1baqiopNAAAAAAAAjCgqNjGqQuW3mv/t05FfE2oCAAAAAABg5BBsYvRU1mqNHWfzeIdaz7h1AAAAAAAAwAgg2MQoKFWocam2bZqn8nCXWl7wJ0ECAAAAAAAARgrBJkbBFDUuq5KOt2vD0/t00K0FAAAAAAAARgqTBwEAAAAAAAAoOFRsAgAAAAAAACg4BJsAAAAAAAAACg7BJgAAAAAAAICCQ7AJAAAAAAAAoOAQbAIAAAAAAAAoOASbAAAAAAAAAAoOwSYAAAAAAACAgkOwea2qrNW2zUtV554mCjU2advaavcMAFBw0nzP5xu/VwAAAACMtEn3L66/6pbz5tLFC24pasaMkM6e7XbPJr66tc1qnuuexOlSy6P7dNA9s7J5b0YWLdW2VVUqD5v2L5n2Z9z6GPYP0C3LSqTj7Vr5Qqdbmy+lqmtcoOXzzD6WuVW5HismluI52rO4WiH3dNBAp1a2n9BJ9zQzxXqi/gE9ViR1nzqqhhPn3PqJYqIfX6EoVdPmFWow32W9e9u1bleevk8z+J7Pt7H9vZKZ+N+3feoNX9bucXL+AAAAAAxFxea1xlbw2D92bVD4dPI/1rp3tWrD3j5pbr22NZa6tflRt3aFmpfFhpqjY/b0Odpev0TvfHO5eyzR9jnTNNu9nsrQtsu1p3aOHil2byh0NkCMHNeciXJQCYor9ECRvxiaVaFH/MVxxAaT5hrUz8nonhxi3B/fNaJypha477LyZXdlUD1pg9BmtW2uHRrgZyrD7/l8G8vfK7kpMb+HqtS8afxUvQIAAACIR7A5pmwVYotWxj2GViUefCHxPS3+H4dZM38wPz7P/LHbpz0bh24nkf0jtOW4/WP8QTVVupWjrlQVd/hLHS/vjDnm9PubjUdql6htfrXuK3LJj6dI982ar7b6hSlCoGI9EdhWCpVV69nFS7R9ultRwGZXlA2GKqHyityCtdHQf0INr+7WvYOPo3rLvZS1/h69OeAvdp/q0Wv+4sQx0Y+vUJw5rSNhf7F37/t5qDrP7nt+OEpuvKo/q7qiv5z7mf6yKrPOH2PzeyVzcb9vN7Zrj3ftblXFONxXAAAAAASb15RQ44OuO+R+tWZYwXPwhXZ1qEQNjw+jeigX4WPa9fbQIQtGwuw5S/RsmQ0lB/TWqTe1MhKSHTiqt2wQVFSmZwOr5FzX3kjbozFtX31Tz5wKq9uGoxXT/LcXrGJ9o9wc40CndpwyJ8Scj29MyKLNfv2o3b9+E7Ob9kQ/vkJxQa1P+0FZPrqh5/I9n62qqs+8MHPZ3Vf0J7dmP5rNmP1eydaZTv3qWC7/EREAAABAvhBsXjOq1WjHNgsf0/Zd2QSGndplq0PL5qlxkVtV0KZp9Sy/0vKto29ozYn+6LiM/ee0pt1VABZVa3Vi5eX0u73xCs1J1DMHTNsPYtqqX6+dOKyGA2/q3kMFHiK5LszdvT36UY8f1j5QMUG7o49rRbrTv1Unrsparbfdrl9pzq5rcq7tCsIUTct5GI5cv+ezc/n3k/V2t3v8fpJbm40cf6+MwXXv7r3slgAAAACMR0weNEb8CQpynxDHn4ThcubtFy1V26oq9e7dqXXZ/sFrx2vbNE/leZrwwTs3dxzThqcPacTviOkL9c78stSTzUTeEz4aE1JGJ2J56+hurfnArc6CHZdz9Szbhd2t0IC6w6e0wWwj2aQ3trq0bZa048Ab+lG/WVE8TU/MnqUHyooGK526zX4GfkbQewfC+vGRw3rNflYy7vj945ym7d+cr/uSni93XuS/bre5esGsaDf9AVsVe9QLgePl2i5Ruv2LiF6/IN2n3lTDiXTbKjbX8G5tmXWzQoPDEKS/hsmuw5unfqsfJR6fOfd7ZpWZz3fPU0lyfwbJ5Piyuz/jr99J8/yR2vn667j7stO0TT2hU+JELXs2tmZUZZhTu8pqNS2v0YK5JSp3q3rDXUkmholO+NPxcou2vu1WD4q8nrjtaLsgSb9/7UQ/D2c4rnCq7+HhfM/nquSK/jJk/m/E5cn6T11ZhJw5/F7J9X4ZDv93rfKyLQAAAADZo2LzGlE3v8r8b5+O/DqHP3YjY8TNzWTiixFSVqIZbnEkzS662ftpqxGTBi4fDfiBalnMhCuDE7GEtT/rUNOGQMvduJxuladIobL5avvmEj2RQUGkDTnfWTzf6wof233TLiceS9L32m72i1NPCPRIhU1XIsd5TvvttU/XHb2oSKvt2KNmm3Fjj5rl++Y/oHdqk3TPz7VdvhVP0/b6B8w1tKFj7EVMdQ3NdTfHluw6PGaOL2g81oxCzRE1jPvTnIuZ7tzY4R3ijrGsWm25Tnw0wmw41bapXg0xoablTwwTVP1nu4/b7tJSzaqmIWNBjkZ375GYLG1Y3/P5Nha/V3J2WT2EmgAAAMC4RLB5TYhMyJPrH2cX3DhjhT+Bwsxb/OTmzECK6rX+j+Sfppt1VyTQMe280Cac/SQss+fMd5V0/ric/pic5nHgqHZ4k7sU6bHFqSYsKtKdsxeqzXahH7Dd4GM+49U3tfJkQtf36e69dnunjsaMA7pbK4/aruVSaNb8JGHVND3o5ZrR43ytx0s203RHL9N9ZUVeld4zB6L79owdo9N7eX6SSZVybZet6HiTsY+Vke2kNE3bveDVLJrzvyP2GsaMrXrnLf67B9mhC+yxBVyzyPHdNz/hun9wOOZ9blgEW406uC7mMVitaeV+fMO7P21Qbs/NQNx5sfeZJ2hIhxgHdx9Th3trVmP/ZtNu0VJtsd2z1aeOve3aMDghWYs2vNylXvNK8EQ2ndpqXrczY8eNBVlZqzVJu3tHx9OMfaSd7O3tfTHv9wNV+/mx+zr4SFrdONzv+XzL/vdKrvcLAAAAgImLYPOa4MZsC/fprL8iRyWaNqoFdKUKNS7VctvVcNj7GqRYd3kFmwP6p4+8FUmY1xPyoEilZ9aK52iLCxltd/K4rtX95/Sj9jddeFSmv05RRXlfWZnXnfjedtuNPDaU7dfJuIy2WE/M8ku//DFE47sRn/zgsBq80ClJUDm9QveZH2/1xIRmH/R4AVu62dG97s6HTsR0c7fjjr4xGK4lm1Qp13b5MnvOLO+c+MMXHE7oPh4dW3XI8ATmXK88sFsNAdfMHt8zXkATE56PhZG4P21w++obcefF3mf+8UmVRSkO8MwhbR2cWCeLKsOM25Wq6WFbxWi7lLdq667OuOEtut/ep3UuvFzwlYAxG83rdgZvOxbkGq+qM2bG8ZdGYaiMYcnme75a659rVlsGj/U1rsmoyeL3Sq73y7BVqXlzreqYGR0AAAAYdwg2kZFRnUDBjrX2ivkj+pUV2rKsSuXhrnEYGuRosNLzlD9G5hD9+tEpPwFKGRyGj2YwBqQR6TI/0KkXk3WZTxFUxndDj8ikO/qA3uwJ3r+T3gRExs23BBxfru3yxc0Qb4O/IynGi4wLLqMGQ+fiYj0yfY621y7Rnvoleueby/Wslz8HVHrm07DvT3teDgdWMZ/+KOG/DoyFypla4N3Sx7RryDiZztvvexWS5fNmxnWlj/Bn8ParOtev9bug25CUasHhK4SJebp37VfL8T71ls3zhi2YmBNWAQAAAIWLYBPjju0a2uMvjrB+vf8H+zNdmDR0NuqTA17DrEO2wTE9U4U8kTE97XiF3oqhUraPFQmqiqrV9s3lXoA29DHfr0AcwnVDt92LE9pEQrhhzY6e4vhSyrXdiIjcC3/Q+8HZZUp2Qp7t9eYcLn5Az9oxLO04lHFjdI6tkbo/x61pbkzNsnna4v3Hk6BHvVIXJXZq68Zj5nupRDVzS7zJe4ZOJlRozDE92aKVGTy2ev3iETs2KwAAAIDxg2ATGQmV3+qWRsGZQ1rnjR+3Uy17+/wJPWLHtBtBkSqylN1ji2+R3+MwJswq5HAnU64beirpuqMjhh3rNDIhz0DYG+/UjrW50o23GemqjfEv9JWqaLB1x5RR+W66Fo3q75WRsmiBmm2gHe5Sy8adY9ANHgAAAEAqBJvXhEs6Z0OUYc803qdzCfPUjKwLOrir1Y1pNzqzokcqL1MFdLMrylz33JiJgvp79KaXiaYeCzOZkJu0KFCkynJgQKe9FcMQCWDDR6OTwCR7tMd3rfa7oduxFgPe+6obazHd7OhBcj2+kTwvw5btWJjTtH2+O592Up32w954p3aszZNJuq0nlYcwPW/3Z76d6/MqwG2VpTfxTqrH00mGv4hMPmQ+w/6Hl+h4m6Ms6+/Akfqez7fR/r0yPH74asdU3aeDZwg0AQAAgPGGYPOacEE9v7c/c53VvFR/Ps/OKlwos+2m4MaXTD5b8zSt9iZTSZhAR/36Wa9f7Zl8RnGjeJqemB59cXCcyLJZSdpEJ/vp7u1JPoZjpiIBbNLtJeO6oQ+E9bMkYy36x5+8O3pw9/70x5druzijFv658UXNcT+2YE7yatXi4uDX7PmMm2woolh3uaX0Rm+Cobzfn4kqa7V+s98lPKtxCzNtd+a0jtjrN7cmYNbzTFRr/So7+VCXWl7o1MFd+7XHfF75shVav8h/x+jJ9vt6uN/z+ZbL7xVzPSLXfW21W5cP2f7uG6v9BAAAAK49BJvXiINHU8z8m05kAo7j7+ugv6aAndOLkdm25y/R9jkxgVTxNG2vd+NPBky+c/LEUTdDdJEeW2zbTosJs8znTF+oPYvn67H5McFn/wn9OBKM2TYxoacXgtY/oMe8HDWsH2cyOVBakcleYvYxLrAq1iNzzH5+c6EecWs8rht6qvAqEoIFV7sWufMZc04yOr5c20VEZrC3lbTxn/HICIWBr510M2nbcUvrF8YF1/Z8+tf9AbXVBkztbNpsCbpP7PH5eWEK8aFq3PF4kxGNwAHm/f6MV7d8nmrcebCT82QaPmbe7oJaf+p/9zVsatL6xmqF4t5bqrrGpdr2ylLVuTWx6tb64292vLzPffeZz3vJjrcp1awKbjN8nTpsq9btPj+eMBN3pdnfRcm/w4f1PZ9vOfxeCTXWRK97zmF1LrILi8duPwEAAIBrD8HmtSLNzL+pRMaX6zja6a8YVaWquMP8CPfprL9ixJ088YaeCfvVh/fNeiA6yc7i+YPjIT6T0E3b168ftbsu2V7b+TET9JjPmW+7sA/oraNvxM0w/dqhmDbzHxickMduzw+NbPfv4Jmlc/LBYa30wlu3j4sj++jv57OzzH6al2OrAP1u6NKZgRThVf9H8oqWknRH7x5IOCcZHl+u7XzxlbSxn/Hs7ICgMRf9J9RwIBJulumx2GsYc913nIyt8I0G6HH7Nfh+c4+52cZTiQ1Vn429jt5kRHfHh9M5yvv9mW9v79MG24XcTv6zrF5b3MzW/mOFmpeZ7zdzKYYEV4uWqnmu+Zk4WdCZQ9rufV6VmkepGu/gbj88td3eIzNxe49NZn9XLUgeqA7jez5TVVWf6S/nxjxCV/0Xbr0Sv77KrU9i+L9XCiTALZj9BAAAAAoTweY1o1O7chofrlqNdny58DHtKviZgKNeO/SGVh4Nq9vPnpwBdYePamV7qhDHhpu7TdtOvTUQ29i27dQzB97QmoRKz/g2bpXHbe/V+CB0JNjw9t4DR7Uj7MbcjDD7bCexsccY3WZkNvSw9g/Z91jRCsKh3dEH9OYRe4zx5zRyTpIfX67touyxrjzlulRHDIS1oyfuZA+PDTdffdMLIwPvmYBr6O1X4j1m98uNuflaJrvnhapHE+41Gwbbz/ntCIWN+b8/I2yA1+Hy3d69+9WaYXffbNt172rVyo3t2nPcjbkZEe5Tx952bXh6X/xnVNZqW0wX9ET287yxgOfWZ9eFPlN2QjWzvx1m/2L1hru05+UjKSocc/2ez7fcfq907+oYvO750t172S1lbiz2EwAAALhWTbp/cX3qsopRcOni0AH4Z8wI6ezZuGhiQqtb26zmueaP5kcjXRyzE2ps0pZll7NsX6qmzSvUUNanPRtbMwoR/P3M/P3D5/ZRx7Qh2WQeI2z2nCVqs+Nq2gl3Do3jWSzGpWLXXdlW9WUTgOXaDkBq2X/P59uwf68sWqq2VVXq3btz1Gco93/XKrd9zeN+AgAAANcqKjavKZHx4ex4c+nHh7N/0NmumNlUUo2YsnlqTDGW3Eg6eeKUP6FQ2XztqY0dDxEACk123/P5NhK/VyIzlR/59SiHhZWusjRHedtPAAAA4BpGxeYY8StW3JM4Q6s4s3lvRhYt9bpZlodN+6eD2/tVKuYPuuPtWhnQFXM0DW47Tu7VrRmxE7p4Yx/GopowPSo2gXEpg+/5fBuR3yt2mIBN81Q+Sr+bAn/fhnPoQTDK+wkAAADAR8XmtejtfVq30U1OkWK21t4x+oPMjl+3YW+XevM5RtkHh72xDO2YlABQ8DL8ns+33H+vlCpkZ7C3YaENa/Pyu6nP7O8xtbyUTag5FvsJAAAAXLuo2AQwDFRsAsiHaq1/pV5lx9u1/YXOvIy/nJtC2U8AAABgYiDYBAAAAAAAAFBw6IoOAAAAAAAAoOAQbAIAAAAAAAAoOASbAAAAAAAAAAoOwSYAAAAAAACAgkOwCQAAAAAAAKDgEGwCAAAAAAAAKDgEmwAAAAAAAAAKDsEmAEwQocYmbVtb7Z4BAAAAADCxEWwC48RNX5us2ievV/UctwLjVuly/1rdu3ySWzN+lM+tVxvhJgAAAADgGjA5VHXn99xy3nzyycduKaq4+Fb19192zya22dPn6D985cvacu+9Wj37bvOo0Jzr/oe6//kjXXDvCVasJ+qX6v++8zq99U//nOa9Y2zqJFX/z5P1pSWTNe2r13mP26ZKVy5d1cd/dO9BjEm6o/463XLjVV361VV9FHiOJqn0a+ac1k9W1RLO6XDZILlmxXX69Jfm/Ll1GZl6nb70wHX6glm0j0vHr+p/eC+MvcsnfqOjX5ip+rp79NUvdOlnJ7I6MgAAAAAACgoVm3n2SO0Stc2v1n1FRW6NVaT7Zs1XW/1CPeLWFDKv8vCvJmvKlPhqthtnXqeZZv30qW4F4tw4xfzPpau6eN5/HuumOZN175OTNXPhJP99TuSclrrnyNQk3fYlc3/aUNitydj5q7p0yS6Yn7/Lof0o697VqpbjUvmyB9VU6VYCAAAAADABEWzm0ew5S/RsmQ00B/TWqTe18tXdutc+DhzVWwNmdVGZnq2fo9neuwuTDTW/vNAGmld16fUreve5z3TIPv7uinpO23dMUsXD1+kmu4ioqZN0o/0ZELR55/Qh//VPTptz+nfunD53RacPXzVrJ2nmOOwSPd5FguTsg8mr+uBv/fPf+Qt7/sefgy+0q0Mlani8ViG3DgAAAACAiYZgM2+mafUsv0rzraNvaM2Jfp30nhn957Sm/ajesstF1Vo93VsboEh3xhZ6ZqOyVus3N6vtlWZta8yivi+bdraLrgs1e/7uijpPxIRG56/qg91X1GMr3aZM8rpQI0apCy4v+k8HxZzTS69/pnd2m3M6WNF5VRd+cUXvvv653jXrkYU518nLNTsn6nnr1K69fVLZPDUucqsykev3BAAAAAAAY2DS/Yvr8/6X/aWLQ0eHnDEjpLNnu92zCWj6Qr0zv0wa6NTK9hPRUDNW5D3ho7r30LnBdXtmlSmUSaAZ2y5B3dpmNc91T9SnPRtb1XrGPU0h83aTNP1bk1UxxVzf1z9T5wm3OkGkovOTw1f0TqTabep1uvevrtONp6/oUGBAF/nsqzr93JXAsUVtV+0v1cZ2076qS4c/1zmzjSEVefne3qBJKl1+nSpmuupM45PTn6vnl5/r41n+eYk/d5md06Smmu19NX57tkKx59Dn+uBEiuO+FDkvdkxP097sV3R/r+h3Nlx1z325tovK7XyaduYYbzPHOCXhnP5utzmn7rlvkqq/Zd6XMDxCsITrbvat9qGAdpc+17t/m7idAHm7Dgkqa7Vt0zyVH2/Xyhc63crUcv2eAAAAAABgLFCxmSezi272fnb39gSHmtZHA/Ki3bKKuLE2Mwo1x9rUSZpiQ6lLn+tcigDuY1eReONt/k9PsmrFGMm7DdvA6nq/q/ZgKGaZ/Vk4WV/+VkC393xvz7Jhqh0jMzbcMiJjZE6z4z3aMC/23M25zgs1053TIN6YnOZzE7dnq2UrHjKvfS0gqHPX0Dsvkf2NCdOsG2dO1pcS2+bazpPj+TSv25nJv2yOMS4wNOw5/bLZh7ixXM0+3phRqGkkXPebYu/VGJ9kML5mXq9DojOndSRsfs69S3X+GgAAAAAAJhRmRc+TP7/rXi0ukt7pfkf7PnIrE/3Lv9ZXZ5d7Y+KdCXfp0L+YhY969NJvf+sef9Ac+7qt+nz9F/rfBte7x7lkH2w+7/eTVXV3mcrNPvTufU0//GW6SMaXabub5l2nadMm6dKbV/T7f3Yrg/wb8z43acu53/qrbrr7Ot1u2g68+7kuBrWdatrcO0lf6PlcXa6Nb5Kqn5ysKXYm8cOf63cHzOv7P9e5X5rH6auaNP063TLFtLsc/7n53p7XbvVk3WIXL32u07uuqNO1u3R5km4x5+MWm1rZcxIzw3bpIjsBk1md7pwmmjNZNQ+Z/TCLtrLv5N+a/bT7+Euz35Mnecf+BfOYZPY5bvb1yutUZfbls5sm6Y7a63Sj2Z/Tuz53+3pVn5rzYvfnC59Gr50n13bDOJ+2ojFUYYM90/Z103ZP9Bg/Ncd4ozm+KdPNuYuczz9e1Yfe6/57bvqq3c/P9e7/dcW1i3kkzHL+P86a/Y593Vwzew8nvX8i8n0dhvhYf5gyU/XVN6j3+G/0m363OoVcvycAAAAAABgLVGzmRbHu8go2B/RPybNHw7xuJxEaDWcOaevTLVr5aIvW7QrqXJ1ERu3cDNO6qk8y/OjYasmbbkvTNkmFpa3Ym2K7DdvxPG2X5djZxO2Ynj/9XJ+YxRu9z4/K9/b8dsbpKzr0t5/rQky7j09c0Tuvm32xTy7FVgBO0pSZ9ufV+CrOtCap+iF/+4NjcnrPLLNsx+R0Ew5NmZV4XvyfXmXjYbuvV8y+RrpKX9WFX/rHlyjXdjlfP9st255QG0zaCXxix3K12zPH+I75zNOmfWAsZ6s37c+48505/3jT3ev5vw7JlWjaNLeYTq7fEwAAAAAAjAGCTYyISDfiT2LDqQCR0OaTi5GgZpLf9tJVXUzStrTaD36ibaxI8DdJM//qetU+GfCw42h6742V5+1NtWMrmp82hPPGSwwWFKR6sgzfbOhnD8+OYZpsTM6PT/lBatxwAIYf+NogLmb80wCJ+5lbu9yv37SFdntXdTrV+Jbnr8YFyHFccJ3bxEEuxE9x/1hjcR2CdPdO3Cp4AAAAAAAINvOiX+//wf4s0p1ef+RkhjHr+XiQNoQLqOx04wkmb+uCyMQKOTerddbyvL2bZvkhWqrxGIeGvUakqjBLkWrUS6eyDe2ix30pcEKbmGNJCHxzajeM6+edl9OfB07qlAk/uE64vlmIBOOp7vX8XwcAAAAAAK49BJt5cvojv495ZVGx9zNQ8S2q9Bb+oPczGA+v4MSEioPVbllM5BNbIRcJA20330PPpX7EVb3leXvpA65o2Jtdl/MgkVDMHF+KasJk5yBdYBc5lsRAMJd2o3n9UsvwHCXjAtnU1Z5jcx2ChMpvdUsAAAAAAEw8BJt5cnLAK9lUqLxCs72loWZXlHkTBynco9e8NUkUFcnrxTuOfHLJ/M+USUlmsPaV2glbzM/Y6sXAasUYN0Uq+5IEPYnjL6aT7+1lIjDIOn/VH0cxzTnN3iRNr/WPIbCCMmmgliSsy7WdMxrnMx1vf3Ks+PTvn9yrPaNG+Dqk1Kdz59wiAAAAAAATCMFmvnzQo7fsz6JqrZ7urUkwTatn+f3Q3+pJl0LcrLtSFH4GqqzV+s3NanulWdsaS93KDGTU7qofbGqSKr4WHFTd9LXJmunGmvxdQEVjUFBk23zZTcCSWNX2sXt+45eSB383zRn6Wr6355ukGwNP3aToxEJDgqyrunTa/kx+Tu1r8duLXocpc7wVQ8ROvHMupkJ0sIIyRSViUACba7ucz+cFc4zmx40Lr1PSu3hq8s/MtYt/hH//pAsV838dgpXqz+eVmJ+X1XPGX5NedfTf+9pqtw4AAAAAgPGJYDNvzunFU3539PvmL9H2OcXRys3iadpeP1/32eWBTr34gbc2wDntD9ufRXpswRw9EhtuFhfrkenJ08665fNUU+Yvly97UE1+n/e0Mm13wQUxNnCqnhMTxE2dpOnLJ+vLbsKXnsCZqiep4qsxYZRpU/2t6702l077nzukwvLE5/KyoynX6cvfuk6lU721npsi23xosqYFBkv5297H7nOmmNfi2swx5+lbLuw1grpWR2a/vnHhZN27PD6su2mOWfek2abZl9j1ketgt5fNdUjbvdlVEiaOFZpru5yv3/mruuRCw5nm/JWa9w4yyzYorv2ryfpS0jDYmXmdpsecH3+bKcJST6RaMj5stgFs7P5b+b4OgSpnaoH9t3v8fR3016QVaqyJ/nufW5Px9wQAAAAAAGNh0v2L6xMSnNF36eLQv9pnzAjp7Nlu92zieqR2iZ4tSzJD0EBYz7QfTt0NvXiO9iyu9rusD2Havxrcvm5ts5rnuifq056NrWrNoIorm3Y2VJo5MybEiXPVm+V5yAzRcyar1lVJxruqnr+7oouzbAgkb/mDxCq5pG19n5y+ot/tTgiA8r09TVL1k64qM9Glqzr9O2lmsu0ZXhWpF4IF8fc5sV3p8usHA9OhgtpM0vRvTVbFFLM/z10J7KId2Q87Jmb0GubazsnpfBpTr9O9gTOm+z45/blpl2zG9Mg+u6cJAvczRrLrEdQuf9chWKixSVuWlajj5RZtfdutTCPSJqJ3706t25UsZQUAAAAAYGxRsZlnrx16QyuPhtXtF286A+oOH9XKdKGm1X9CDQeO6q2BuA8wnxfWjqO/Tdr+4O5j6vCqPW1YsT+jUNPKpt2F3Vf07ut+V+FYNmg6/XcBoaZ14opOuypJ31VdOmw+5zk/9EnZ9de0PWQ+99Kl+Gze395neicoFMv39sznd5o2PbHbNO1tyPvu314ZfH+yrs0f/yJom+Ycn47uc6ILuz/zr4NX2ejYbcYcZ6J03ZuTVRLm2s6T0/k0zn+ud8xx2OsYd6+Zz+kx5/WdpKGmdVUfmPMedz2MT0xbu810YeHHvzD7FnD/xHYnj8jndRiqWo02oAwf064MQ02re1fH4L93AAAAAADGOyo2x9DsOUvUZsfVDB/VvYcm0uwekSrF5JVnAEaPX2mdeWX2EIuWqm1VFRWbAAAAAIBxjYrNMXTyxCl/QqGy+dpTOy3pbOmF56rOHbZ5uR0HMXH8RLcAYFTY7uR2+IhsKrMThcpvNf/bpyO/JtQEAAAAAIxfVGyOtekLtWd+WcKYmQPaceAN/ajfPS1IScYyvPS53v3bVF2FAeRqcIzM4+1a+UKnW5ulylpt2zRP5cP5DAAAAAAA8oCKzbH2wWFvzMwd4fgxMwufP5Zh4jiIieNvAhhZvTkHkqUKNS71Q81wl1oINQEAAAAA4xwVmwAAo1rrX6lX2fF2bX+hU3wbAwAAAADGO4JNAAAAAAAAAAWHrugAAAAAAAAACg7BJgAAAAAAAICCQ7AJAAAAAAAAoOAQbAIAAAAAAAAoOASbAAAAAAAAAAoOwSYAAAAAAACAgkOwCQAAAAAAAKDgEGwCY6myVts2L1Wde1qoQo1N2ra22j0DAAAAAAAYfZPuX1x/1S3nzaWLF9xS1IwZIZ092+2eIbVSNT21Qg1Tpd4D7Vr3eqdbX4BssLdpnsrd00HhY9rw9CEVzh1hrslmc03K+rRnY6taz7jVqSxaqm2rqlQe7lLLS/t0MJM2o6XCXIdvB1yH8+Y6/CD9dbDB5pZlJdLxdq18oYDvRwAAAAAAUDCo2CxEFTO1YKq/WL74roKv9rsm2UDXhprqUsvTYxxqjoDuXa3asLdPmluvbY2lbi0AAAAAAMDoIdgsRD2ndeS8v9h74H0d9BcL05lDWvdoi1YOPtrV4V6auErV9LitjrTVnfvGx/XrMdfhSXP+Bx/ZXwcbbrYcl8qXPaimSrcSAAAAAABglBBsFqQLav2BH0AVdDf0a1So8UE1lEm9e/dn1mW9gBx8wQaiJWp4vFYhtw4AAAAAAGA0EGwCeVWtRjsWZfiYtu8aOtZs4evULtslvWyeGhe5VZmorNX6zc1qe6WZruwAAAAAACAjTB5kVVSr6es1WnBPyeDkKb3nu7T7J/t0sMetGOQm7lFkUpVS1T32oJbHtn3vmLbvSD7hSqhmqdYsqVK5GyczSO+BnVr3uj1P0YmCgkTfl2j4+5ndeRkp1Vr/Sr1qspg8KLSoVo0Pz1NNmVuhPvUe79D2FzpTt680x7fcHN/cmOMLd+nIT4+o9e1koWOp2d4CrXnYXD+3vd7jx7R79yFpebOa56aZPGjRUrWtqlLvXnPdUgWbkcl8kk7eE7kvzPaeN9tLuB6hh5q0ZbGirwVdy/fazfVPdo7MdXjOXIcMJw+KE5kQKouJhOrW2nPnnnhd9DOcgAkAAAAAAFyzrvmKTRsAtX27Xg0xgY9VPrVKzd9u1raHklSPTS3RjIpqrX9qhZoT294zT1ueCu6KW/dYk7Y0pQ41R1SO+5nzecmrUjVtbtaWVbGhpmX2eW69trzSlGSsR9NurTm+Teb4YkJNq7ysSg2rVmh9YLWh3d4Ks71oqGmVz52n5k1NWn6HW5FC3fwq8799OvLrFKHmCEt6Lc0jq8AyU2dO60jY/JzLxFYAAAAAAGD0XNvBZs1SbVlcYhb61HGgXRtiJk/Z0NqlXvNK+eIH1VThvTuBDfjqVWMr5lp3xrXzTJ2nxhp/cZDZng0XvYq0uDbHvG3JzpDt1kWrMKPjacY+Nhzoc6+nk9t+5n5e8icyVqW3ny+bY4tMQLSxXXtssGbHety0dGi4tmiBF2ja6syWjTHtHt2pFtuN2qhZNbRd3doVgdvbYLbXES6JCzuDlarCCz8vqycv1YglmvZ1dy3Pm2N9Pnr9Vz65Uxt+Plrjs17Qr47Z83irKjKcROjg7mPmHPrLE3HsUQAAAAAAMPKu4WCzVE1LbPWc1NHaqq2vx3fJ7e7Yp3Ve+FeiBfcmqU60YdGTrWrtiFbf2XYt7/nLZbfHtwvdfqv3024vvs0ht60qLUwMGUdCVvs5AuclHyprtcaOVWlD4o1mP2O7jp/pVOvTO124WaXliWM2vr1PGza2aN3T+3TwTEw7XdBBN7P3kFDObG+511V66Pa6zfa2Dm4vlSmaZsPPcJ/O+itGXc09Vd5wBSt/YIcPiD/W7lEbTiCiRNOmucV0zhwy59APilN20QcAAAAAAHCu3WCzYqYW2O7g549pV4e/aoiO92VfKv+TmQHdtfu0x4416Z7FOvthptWUQyWGocOX5X4O+7zkyTTXrfp4R5Lqvgtq/alflVo+b+h+dkfaVJaqblGt1q9t0rbNTd7kNf5YjwmhXNrtjVPvtScZg3V0dfdedksAAAAAAACj49oNNu9wQdXUedryXLPaAh/1GskCyu4P/bCnpmmp6mK7cdsxMJv8Ksnwh2NcrTYG5yUXoXK/+rW395L3M9C5Pr+Lf1mJZngrouyEQ94s3JtWqNmO0WnH2jTvSyaj7Y1DvR8W1v4CAAAAAABk6pqfPCivBrt/+xPwDAaFdgxMu/q99uRVkhg5i5ZGJxwKd6ljb7s31uYGN96m3xUdwxEJggEAAAAAAEbLtRts/t5V873XHjOhSpLHDw6N4OzRfvdvf7KgCDdJz4748SzHxJidl9yUl09xSwEi3cfjxrSs1vpV/szke+wEQE/v09Zdnd5Ym91x420GS7m9tC7pnB2HM6CCdGLq07lzbhEAAAAAAGCEXbvBZs9pHTlvft5Tk7/Zvb1Z0aU9z7doXVxIOHSSnjEzUuelolbrn/IrUrc9lMO4oWnCv+5f+7Oza67Zz8CZt0vV9LDfvb/32Omh5zbcpV/FTjg0qFRBhx3d3l1DZ1m3Kt3EQCldUM/v7c8MZgvvuSRvLqKpwech9NCDarBjoY62JNtPrVR/Ps92689m9vdqf2iAV8z9srbarQMAAAAAAEjuGu6KfkGtb/izezd8u0nrH6pWKC7RKlXdQ0u17bmlwUFWDvxZ0Us0bSxnE09rZM5L3dfnqcYFb+WLH8wiJHVVjd5s5mbb3jqjslp1sWHgmUPa7XUZN/u5yeznophzat7btHmFGrygsUu7g2bZLpunNbGfb44rtMgcl23nTR6U4MxpHXH71bzZHHvMvnjtNmU27ujBo25G+a+kuwfMebABs93eYzH7WVGqpseatGVx8vFAR0Z0+8vtPeCtMyrMdUh3LStnaoE998ffD5y0KkioscYfGsAoTxpWAwAAAAAARE26f3H9VbecN5cuDg2aZswI6ezZ/Ncshh5KExKd7/JmFW/tcc9VqqanVqhhap/2PN8asz4q8pm9B3bGz0hdUatt357nd49Ootds78gbR9TakbpbdNJtDBrGfhrZn5d4dY81e9WpvuT7ECTUaLa9LGDbx9u18oVO98QyxzgYYAYx291otptQNZj0861wl1qOSc3LqtTxcou2vu3WW5Xm+m1Kcv3sWJ2/r1LN3OBtRlVr/Sv1qgkf04an03Tlr1mqNjepVCJ7zXbfvsKc4+Bzm/7+SC/pPWCHKdgRex3iRc7vkPOXQuI16d1r9jsokAYAAAAAAHCu+cmDul9v1crn27XnPTe2ZMR5N+7lD5KHd1nrOa3dZjuplE+tUkPTCq0f42nHh3teDv78mDq8ij8bwu3P6hx272rVhr2u63dEuEt7jibO8H1BrU+3aMPLZlteNWWE2efjZh8fDQ4Yvc9/2Xx+bBv7+W7MzYNxG45x5pDWbTTn5HjsNTTnY6/Zlmm3qzf1tfV1atde8z6vYjRN1WbHPm1oNfvpzqPnfJda7FAGr1/Q2Q8z2V7u7D2w4UDCdbCB9rupZlqvVqMNKMPHtCvDUNPq3tWRcA0BAAAAAABSu+YrNvPHVVDqmDYknXSnVHWP2So8vyIv10o7jHeRStN01Z2Fp25ts5rTVq2msGip2lZVUbEJAAAAAADSuuYrNvOmYqYWTJV6fxMwkc2g0a/Cw3hwQa0vHVOvNz7oyI3hOtZsd/LmubYb+f6cw9pQuR2Htk9Hfk2oCQAAAAAAUiPYzDM7kc76mtKYSWt8oYrqmElhurSbas2JzXZrt93hI5MRudWFanCMzOPtuVdaVtZqjfcZHROqihUAAAAAAIwOuqLnUfyEOkmkmZQHE4ydkOjxEu1+aZ8OFnCYZ4PNNeUdWhc3uVOmSk37BVqzrErldvImO86pewUAAAAAACAZgs08C9XUqnFJlcqmlsTNrh2ZDf1XHRdSz5QNTDj+TPFlx9u1/YVO7n8AAAAAAJARgk0AAAAAAAAABYcxNgEAAAAAAAAUHIJNAAAAAAAAAAWHYBMAAAAAAABAwSHYBAAAAAAAAFBwCDYBAAAAAAAAFByCTQAAAAAAAAAFh2ATAAAAAAAAQMEh2AQAAAAAAABQcAg2AQAAAAAAABQcgk0AAAAAAAAABYdgEwAAAAAAAEDBIdgEAAAAAAAAUHAINgEAAAAAAAAUHIJNAAAAAAAAAAWHYBMAAAAAAABAwSHYBAAAAAAAAFBwCDYBAAAAAAAAFByCTQAAAAAAAAAFh2ATAAAAAAAAQMEh2AQAAAAAAABQcAg2AQAAAAAAABQcgk0AAAAAAAAABYdgEwAAAAAAAEDBIdgEAAAAAAAAUHAINgEAAAAAAAAUHIJNAAAAAAAAAAWHYBMAAAAAAABAwSHYBAAAAAAAAFBwCDYBAAAAAAAAFByCTQAAAAAAAAAFh2ATAAAAAAAAQMEh2AQAAAAAAABQcAg2AQAAAAAAABQcgk0AAAAAAAAABYdgEwAAAAAAAEDBIdgEAAAAAAAAUHAINgEAAAAAAAAUHIJNAAAAAAAAAAWHYBPA6Kms1bbNS1XnniYKNTZp29pq9wwAAAAAACBzBJsARseipdq2aZ7K7XKltyZQ+dx6tRFuAgAAAACALBFsjqHrl/9Qt7/4Hd3gngMThq3UXFWlcnWp5el9OnjGrU/QvatVG/b2SXPrta2x1K0FAAAAAABIj2BzzIR0w5+VSR/26DO3BpgYStX0uK3U7NOejft00K1NxoabLcel8mUPqilFZScAAAAAAEAsgs0xM12Tbzc/CDYxwYQaH1RDmdS7d79ak1RqJjr4Qrs6VKKGx2sVcusAAAAAAABSIdgcKwu/4nVB//TYL/znwIRQrcZlJVL4mLbvuuDWZaJTu2yX9LJ5alzkVmWislbrNzer7ZVmurIDAAAAAHCNmXT/4vqrbjlvLl0cGnjMmBHS2bPd7ll+2bEub/uG9Mfvf0d/+MCsmP41Ff8vy3XD7WX+Gz7sUP/f/FCf2tcSXL/wOypeWqPrbfWlJ6xPf7Zbf9z9i4RKTPOZ34v5zJTM9lab7blnmr5St3333+r6d1/Uhy8GBaEh3fy97+uLtye0c7I/Pvd5H0a2F9INy/8nffEb5jj9N+gzsy/95rURrTatqFbT12u04J4Sf8IZo/d8l468cUStHYn3TKmanlqhBh3Thh8c8to2/vsa1Uwt8V8+36eON/Zr64i1GwGV5viWm+ObG3N84S7tfiloDEqzn5vNfppL1PFyi7a+7VYPirxuu3u3BldGZrW9WKUKLVqgNQ/fqvIyd17Up97jHdr+QqdS/itdtFRtq6rUu3en1mUVbBp2XE472dDxdq0028lE3dpmNc91T7yu70nOBQAAAAAAmHCo2DSuL7MBX68++8BN6PPd1fEBpA0th4SaNqj8B932aGyoaZXphm+s1m3fWzkYAnqmV5j3ZRJqGond08tNW/Pjs3BAsupJ3a096+ObXqt/bdZ527Oh6ovfV3FMqGld/+XVKl4+Up2GS9X0WJPavl2vhphQ0yqfWqWGphVaX+NWJJpaokbTdotpOxhOWma5xrRreyzJbNu5tstRqNEc3yZzfDEho1VeVqXmTUHVhhfU+rTtni3VrGoaMvZkuu7e2W/PqazW+s0rtMVO/DMYalrmc+bWa8srQ/clVt38KvO/fTry6xyC4TOndSRsfs69S3X+GgAAAAAAgKQmh6ru/J5bzptPPvnYLUUVF9+q/v7L7lk+hXTDw0v0r/54VH/85Bu67S+qvWrEvr95XgP/8I/6494OXblwUp/2xO7b11T84mrdcLOtzvxP6t8Zea95vHtek6oX6F/dPkvXXfhH/UuPa/LRb/SJfd17nNf1Dy/Q9R/+F11cv0kDg+vd47/9Rp+7Ztb1C/5CN80s0v/3//5N9PNiTf+qbv6a2d4/HdDA0bNuZUQOxzf7G7rlz8r1edEc3bR0vtnPDvVv/z/V/w9/479/xhLdcLt03ced+uOQ7eWg5j49s7jMq878+/+4Xz/8x7f0n39+xDy6dP76ci2oulHlf1qq8z8/rWiGd5P+dNE9uvuLJSqfeqN63zumv//Jq6ZtfDtNvVNVF4/olzYw8+TabhgWLdVLK22Q3KeOvW9r+/f/q36822zPPI7+c6nm1Jh9qS7XF47/Rr/p95v4LuqX5vW/qCnT3XdP1tE3zsm7SpW1+g//650qCh/T/769018XK+ftVWv9C/WqKTKL4S7taduv7/0f5lp4bc25+cJNqqgu03WnzXkJzNhL9dXl5twW/V4H/p/Ya5Wpj/WHKTNVX32DeofsW7Azv5+sqrvLVG72uXfva/rhL4d+twAAAAAAgImJis1ItaMWqPjRcn36ynd10XaxHgxuuvXp4fjOtzesXq0bbHfx739H/bbLeWzI88Ev9Ie/+S9e5eT1ZUkqGm31pv2Z4cRBfsVlWFd6/edDpKzozP74ri/za/y8CtOffVcffs92U4+8x7z/p/7xjZiOfdrwfIvW/WCfDvbEVvpd0MHXW9Xynl2+VRUV3soheg/s1Lodh0xbt8K123Cgz3tW8+Xg6stc22WnVE0P2ypG26W8VVt3xXfl7n57n9a93GWWSrTgKwFVlOZ1O2O4HXtyjVdlaT4vMuP4S4cCuoXnvr1QY428wtjwMW14ep9a3064FrtM2407A7rFR0zRNO9W7dPw4u4STZvmFtM5c0hbn27RykfN/ZNt13cAAAAAAFDQCDYjIePtZfrsle+oPyHkG+pr+tdftj9rVPzdf9DtLwY87HiY3nuTcEFkZhMHhfyu7h8eCRzj07phnt9P+7NwwL5nfXyRINXsnw1Bdyd/f/Ku8dnrjoSLFaWqq6nV+seatO2pJrU916zme+wLJZp2h/eOBH068k5woNX9Tpe8LPjfTDFnMVGu7bJUOVMLvLDvmHYlCwTfft/rcl4+b2bg9vwZw83ryx7U+rV+F3QbWgaPq5nr9kr15/Ns1/NkgalzZnTDw+7esajaBgAAAAAAhYhgM1Lt+LPvqv+wvyolN5v5cPhBZIoKzFhuvMvk1Z0u+Ez2edke3+DndehfkoSg19cs8D8zKEjNUciGmU81q+3bK9TcNE81dqzN2LEvh8N8zgy3mJVc28WaZo7D/iybpy2v+LN3D33U+5WSSXVq68Zj6lWJauaac3K8PXnVZM7bc9WWuqweJt8BAAAAAAAF4JoPNiMh4790ZBbSRbppf/rKv9OHq1M/gqsdI8GhP5lPWhlPHBRc0Znt8UU/L3k3+bRd47NVs1RbbJg51Syf71LHgXa1PL9TG8xj5ZMtriv6tS30laroJEB3jEAl6TgVKr/VLQEAAAAAAKR2jQebWYaMMZKOn5mWCw7f/bU+9VekFAlSk1VHXh+pIA0MInM4vpSfZ+V+zoJVa32TP5P2ntadWvmDfdr6eqc31mZ33HibObjDVS+ez3LMx1zbBTnXZ86UcbzdGwcy5ePpJF3AFy3VlmV+pWbL3r6Y8TYDDHt7t6oixaznqV3SOTvZUtlwK137dO6cWwQAAAAAAEjiGg8201cnJvos7JcpXv9ntf7YlQGuXxhK+trgmJcZSlUdef3yH+q2R/1OxSknDsri+AYrUpOO/5n9Z2bkfJd+1REUZJYqyZxBg4LH3ixV0xJ/Ep3e35wODAxzbeepcF3nn2vWtoeShIzWmdM6YsO+uTVqyikwrNb6VXZ/utTyQqcO7tqvPebzypet0PpF/jvi5Ly9Th22kxSpRA2P1yavCK0sTVEtekE9v7c/cw1HI+N8ZtMd3pyfzX4X+21rR2KyJwAAAAAAUCiu7WAzy9nJPYddpeXt/1a3fW+lbpjurfVcP/1runm1DRu/ry8udCuT+fJy3bwwGhH5bc3nuefxyvTFh78WDUTNe4u/9w+67Rtl+vRdm2IlqejM4fjSdjN3FZ2f/fdDIxtsTp2nNQ9Vx4RmpQrVLNW2p1aowZs8KJkS1TQ1aX1s24pqNdl2tmu7urT79aDANNd2vrqvu67zRvniB9WUNH29oNaf+rOQN2wy22s024sL/UpV12iO85WlqnNrYtWt9cfD7Hh5nw56a8znvWTH25RqVgW1yX17B3f7n+uNz7l5qZoWxQa25nosMu02rdCWFAHiwaMpZnhPJzLx0fH33bGm583k7o0Naq5DzuExAAAAAAAoRJPuX1x/1S3nzaWLQwOjGTNCOns2aX3c6Fj4Hd3+aI03sU6q2b+HcO2S+ezdF9X/4i+SBH8h3fy97+uLXnfuoezYnXGT/CTdVlh//P539GnND3XbN+Qt/yGxaDPr44vsW4f6V/8wsKu8VyVqA9XE/RyG0ENN2rI4yURB57vU8hupeXGVOlpbtNVO5+0pHQwhe89L5S5kjNenPc+3qjUy47on13bx6h6LzNZupX9/qNEco+1Onky4S3te2hc/0/mipWqz1Zq2W/kLnW6lb/DzAl6zctqeVVmrbZvmRcfzHMIc68YkM7J7qrXeTk4UPqYNybrWJxHZ546XzXVONjlSgsTj7N27U+t2DXMIAwAAAAAAUBCu6YrNdONXJnX4h/rw+y/q0w/9asmIz979L+r//r/TxaShptWtP3zvu/qjq7SM+OzDDq/tkLDQbKs/7r1hffqzF3VxtR9k+hWWweNdZn98YzBxkNH9eqs2tHZ5QeOg812DY24e/NCtC9SnIz9pGdK+971jakkZNubaznfw58fU4dr1Htif9v3du1q1cmO79hx3Y2BGhPvUsbddG55OCBltwBjTBT2R/bwW23V8br22BYy3mfX2Is4c0rpHd6plrzkvcbeo+Zzjpt2jqUJNq1O70o0DGqhajTagDB/TrgxDTat7V4c64v8pAQAAAACAa8S1XbGJAhapvExfLRkv13bInDnHm805LktX3RlVt7ZZzXMzf/8QrrqVik0AAAAAAK4d1/jkQQBGXmQcUDvOZ/DYobFsd/LmubYb+f7cQk0jVH6r+d8+Hfk1oSYAAAAAANcKgk0AI892aX+5S72qUvPm5OFm7FihOVdaVtZqjfcZHTkHowAAAAAAoPAQbAIYHW/v07qNbqb1FLOV27E7gyZASq9UITvDu53sKBw8FikAAAAAAJi4CDYBjB5bufn0Ph1MUklpJzlal3MgOUWNy/xZ4+1kSAfdWgAAAAAAcG1g8iAAAAAAAAAABYeKTQAAAAAAAAAFh2ATAAAAAAAAQMEZN8Em3dABAAAAAAAAZIqKTQAAAAAAAAAFh2ATAAAAAAAAQMEh2AQAAAAAAABQcAg2AQAAAAAAABQcgk0AAAAAANbaMgEAAAMWSURBVAAABWfS/Yvrr7rlvLl08YJbile3tlnNc90T9ak3fFm7X9qng2fcKgAAAAAAAAAwxnHFZonKy6rUvGmp6twaAAAAAAAAALDGVcVmnMpqNT1er4ayPu3Z2KpWqjYBAAAAAAAAOOO3YvNMp351rM89AQAAAAAAAICocT15UHfvZbcEAAAAAAAAAFHjOtgMld/qlgAAAAAAAAAgalwHm77L6mF8TQAAAAAAAAAxCiDYBAAAAAAAAIB4BRBsVql5c63qKt1TAAAAAAAAANe8Sfcvrr/qlvPm0sULbimdUtWtfVDL55ao3K3p3btT63Zl2h4AAAAAAADARFQQXdEjoSYAAAAAAAAAWOO7YnPRUrWtqpLCXWp56YgOnqFSEwAAAAAAAMA4r9gMld9q/rdPe17aR6gJAAAAAAAAYFABdEW/rJ4zbhEAAAAAAAAAjAIINm9VBTOiAwAAAAAAAIhREJMHAQAAAAAAAECscR1sdvdedksAAAAAAAAAEFUAkwcBAAAAAAAAQLzxG2xWVqtxWYl7AgAAAAAAAABRk+5fXH/VLefNpYsX3FK8urXNap7rnkSEj2nD04fU7Z4CAAAAAAAAwDjuit6n3uPH1PISoSYAAAAAAACAeOOqYhMAAAAAAAAAMjGuJw8CAAAAAAAAgCAEmwAAAAAAAAAKDsEmAAAAAAAAgIJDsAkAAAAAAACg4BBsAgAAAAAAACg4BJsAAAAAAAAACg7BJgAAAAAAAICCQ7AJAAAAAAAAoOAQbAIAAAAAAAAoOASbAAAAAAAAAAoOwSYAAAAAAACAgkOwCQAAAAAAAKDgEGwCAAAAAAAAKDgEmwAAAAAAAAAKDsEmAAAAAAAAgIJDsAkAAAAAAACg4BBsAgAAAAAAACg4BJsAAAAAAAAACg7BJgAAAAAAAICCQ7AJAAAAAAAAoOAQbAIAAAAAAAAoOASbAAAAAAAAAAoOwSYAAAAAAACAgkOwCQAAAAAAAKDgEGwCAAAAAAAAKDgEmwAAAAAAAAAKDsEmAAAAAAAAgIJDsAkAAAAAAACgwEj/P9bc9EiS90DKAAAAAElFTkSuQmCC;" vertex="1" parent="1">
          <mxGeometry x="1610" y="450" width="1334" height="668" as="geometry" />
        </mxCell>
      </root>
    </mxGraphModel>
  </diagram>
</mxfile>
